<svg width="160" height="160" viewBox="0 0 160 160" fill="none" xmlns="http://www.w3.org/2000/svg">
<path d="M44.2907 116.725L29.3426 137.763H152.249L145.329 125.03L134.256 126.968L122.353 92.0887L119.031 96.5178L115.433 114.234L106.021 119.494L99.3772 92.0887L91.0727 72.158L77.5087 93.4728L67.8201 88.2133L55.917 118.11L44.2907 116.725Z" fill="#E2E2E2"/>
<path d="M98.3634 7.65918C96.0012 7.65918 93.4422 9.13077 92.4579 9.86657V24.3985C93.9343 23.6627 97.1823 22.743 98.3634 22.743C99.8397 22.743 102.423 22.743 105.376 24.3985C107.486 25.5818 112.45 25.5022 114.788 25.1343C114.788 25.1343 112.511 22.8159 111.466 21.2714C110.421 19.7269 109.436 17.2245 109.436 17.2245C109.436 17.2245 111.586 15.3204 112.758 13.9134C114.086 12.3192 115.711 9.49867 115.711 9.49867C114.911 10.4797 111.456 10.3004 108.698 10.0505C104.638 9.68262 102.977 7.65918 98.3634 7.65918Z" fill="black"/>
<path d="M25.4669 137.209L42.0759 107.866L49.8268 111.742L67.8199 73.541L74.7403 81.2918L91.9029 52.5029L109.619 92.9181V111.742L117.37 89.5963L125.121 84.06L137.578 120.323L144.221 111.742L156.124 137.209" stroke="black" stroke-width="2"/>
<path d="M91.9038 2.12123C93.1269 2.12123 94.1184 3.11271 94.1184 4.33576C94.1184 5.55881 93.1269 6.55029 91.9038 6.55029C90.6808 6.55029 89.6893 5.55881 89.6893 4.33576C89.6893 3.11271 90.6808 2.12123 91.9038 2.12123Z" fill="black"/>
<line x1="92.3503" y1="5.99756" x2="92.3503" y2="53.0564" stroke="black" stroke-width="2"/>
<path d="M12.9129 0V160" stroke="black" stroke-width="2"/>
<path d="M160 146.066H-1.19209e-06" stroke="black" stroke-width="2"/>
<rect x="25.4668" y="17" width="43.737" height="6.08996" fill="#E2E2E2"/>
<rect x="25.4668" y="36.3784" width="36.5398" height="6.08996" fill="#E2E2E2"/>
<rect x="25.4668" y="26.4141" width="28.7889" height="6.6436" fill="#E2E2E2"/>
<path d="M92 47C95.3137 47 98 49.6863 98 53C98 56.3137 95.3137 59 92 59C88.6863 59 86 56.3137 86 53C86 49.6863 88.6863 47 92 47Z" fill="white" stroke="black" stroke-width="2"/>
<path d="M26.2529 133.425C27.9098 133.425 29.2529 134.768 29.2529 136.425C29.2529 138.082 27.9098 139.425 26.2529 139.425C24.5961 139.425 23.2529 138.082 23.2529 136.425C23.2529 134.768 24.5961 133.425 26.2529 133.425Z" fill="black"/>
<path d="M42 105C43.6569 105 45 106.343 45 108C45 109.657 43.6569 111 42 111C40.3431 111 39 109.657 39 108C39 106.343 40.3431 105 42 105Z" fill="black"/>
<path d="M50 109C51.6569 109 53 110.343 53 112C53 113.657 51.6569 115 50 115C48.3431 115 47 113.657 47 112C47 110.343 48.3431 109 50 109Z" fill="black"/>
<path d="M68 71C69.6569 71 71 72.3431 71 74C71 75.6569 69.6569 77 68 77C66.3431 77 65 75.6569 65 74C65 72.3431 66.3431 71 68 71Z" fill="black"/>
<path d="M75 78C76.6569 78 78 79.3431 78 81C78 82.6569 76.6569 84 75 84C73.3431 84 72 82.6569 72 81C72 79.3431 73.3431 78 75 78Z" fill="black"/>
<path d="M109 89.1338C110.657 89.1338 112 90.4769 112 92.1338C112 93.7906 110.657 95.1338 109 95.1338C107.343 95.1338 106 93.7906 106 92.1338C106 90.4769 107.343 89.1338 109 89.1338Z" fill="black"/>
<path d="M110 107C111.657 107 113 108.343 113 110C113 111.657 111.657 113 110 113C108.343 113 107 111.657 107 110C107 108.343 108.343 107 110 107Z" fill="black"/>
<path d="M118 86C119.657 86 121 87.3431 121 89C121 90.6569 119.657 92 118 92C116.343 92 115 90.6569 115 89C115 87.3431 116.343 86 118 86Z" fill="black"/>
<path d="M125 81C126.657 81 128 82.3431 128 84C128 85.6569 126.657 87 125 87C123.343 87 122 85.6569 122 84C122 82.3431 123.343 81 125 81Z" fill="black"/>
<path d="M138 117C139.657 117 141 118.343 141 120C141 121.657 139.657 123 138 123C136.343 123 135 121.657 135 120C135 118.343 136.343 117 138 117Z" fill="black"/>
<path d="M144 109C145.657 109 147 110.343 147 112C147 113.657 145.657 115 144 115C142.343 115 141 113.657 141 112C141 110.343 142.343 109 144 109Z" fill="black"/>
<path d="M156 133.425C157.657 133.425 159 134.768 159 136.425C159 138.082 157.657 139.425 156 139.425C154.343 139.425 153 138.082 153 136.425C153 134.768 154.343 133.425 156 133.425Z" fill="black"/>
<path d="M92 50C93.6569 50 95 51.3431 95 53C95 54.6569 93.6569 56 92 56C90.3431 56 89 54.6569 89 53C89 51.3431 90.3431 50 92 50Z" fill="black"/>
</svg>
