<svg width="161" height="160" viewBox="0 0 161 160" fill="none" xmlns="http://www.w3.org/2000/svg">
<path d="M68.4372 15.0219L68.4369 59.3283L65.1006 73.2289L79.7377 63.4568H147.952C152.37 63.4568 155.952 59.8751 155.952 55.4568L155.952 15.022C155.952 10.6037 152.37 7.02197 147.952 7.02197H76.4372C72.0189 7.02197 68.4372 10.6037 68.4372 15.0219Z" fill="#E2E2E2"/>
<circle cx="20.5" cy="35.5" r="13.5" fill="#E2E2E2"/>
<path d="M55.2746 119.378L64.2692 94.2435C65.55 90.6643 68.9415 88.2759 72.7429 88.2759H84.5315C90.4902 88.2759 94.804 93.962 93.1988 99.7004L87.8048 118.983C87.1468 121.335 85.0033 122.962 82.561 122.962C80.2745 122.962 78.2315 124.39 77.4467 126.538L77.2099 127.186C76.2829 129.723 73.8696 131.411 71.1686 131.411H63.7483C57.5222 131.411 53.1768 125.24 55.2746 119.378Z" fill="#E2E2E2"/>
<path d="M15 128L15 153" stroke="black" stroke-width="2"/>
<path d="M61.5674 136.928V160" stroke="black" stroke-width="2"/>
<path d="M57.0341 46.144C57.0341 57.2201 47.9968 66.2098 36.8354 66.2098C25.6741 66.2098 16.6367 57.2201 16.6367 46.144C16.6367 35.0678 25.6741 26.0781 36.8354 26.0781C47.9968 26.0781 57.0341 35.0678 57.0341 46.144Z" stroke="black" stroke-width="2"/>
<path d="M74.4574 52.7633L74.4848 52.6487L74.4848 52.5308L74.485 7.99996C74.485 4.13398 77.619 1 81.485 1H153C156.866 1 160 4.13403 160 8.00003L160 48.6772C160 52.5431 156.866 55.6771 153 55.6771H84.7856H84.4814L84.2287 55.8465L71.7154 64.2365L74.4574 52.7633Z" stroke="black" stroke-width="2"/>
<path d="M112.546 24.5767L117.593 29.5923L132.23 15.0469" stroke="black" stroke-width="2"/>
<path d="M121.63 15.0469H103.46V40.1252H129.201V30.5955" stroke="black" stroke-width="2"/>
<path d="M17.1514 94.796C17.1514 101.818 16.6061 107.796 16.2661 110.842C16.1362 112.005 16.9892 113.058 18.1579 113.123C24.6193 113.481 44.2164 114.5 58 114.5M58 114.5C56.1149 120.319 53.492 128 53.492 128L7.04584 128.355C3.71431 128.38 1 125.687 1 122.355V86.7271C1 78.9951 7.26802 72.7271 15 72.7271H26.7413C28.0872 74.0646 31.8895 76.7396 36.3312 76.7396C40.7728 76.7396 43.9021 74.0646 44.9116 72.7271H52.615C60.347 72.7271 66.615 78.9951 66.615 86.727V88.7772L60.9401 105.624M58 114.5C58.7994 112.214 59.874 108.843 59.874 108.843M59.874 108.843L52.0055 101.024C51.4408 100.463 51.4408 99.5494 52.0055 98.9882V98.9882C52.5585 98.4387 53.449 98.4311 54.0113 98.971L60.9401 105.624M59.874 108.843L60.9401 105.624" stroke="black" stroke-width="2" stroke-linecap="round"/>
<path d="M67.1198 88.7773H98.7619C100.099 88.7773 101.06 90.0643 100.679 91.3463L89.8327 127.9H87.3232C83.9775 127.9 80.9852 129.982 79.8221 133.119L78.2239 137.429H52.8335C51.4403 137.429 50.4739 136.04 50.9582 134.734L53.4921 127.9" stroke="black" stroke-width="2"/>
<path d="M89.8328 127.9V127.9C92.6271 127.9 94.655 130.559 93.9154 133.254L92.2553 139.303C91.4207 142.344 88.6566 144.452 85.5034 144.452H83.5115C79.8525 144.452 77.2129 140.946 78.224 137.43V137.43" stroke="black" stroke-width="2"/>
</svg>
