<svg width="440" height="298" viewBox="0 0 440 298" fill="none" xmlns="http://www.w3.org/2000/svg">
<path fill-rule="evenodd" clip-rule="evenodd" d="M99.6703 0C88.2544 0 79 9.25437 79 20.6703V68.9412C79 80.357 88.2544 89.6115 99.6703 89.6115H365.198C370.369 89.6115 375.154 87.9626 379.058 85.1621C380.529 86.3238 382.715 87.6893 385.744 88.8839C389.502 90.3667 395.119 90.0159 396.998 89.8099C389.168 85.485 389 81.1618 389 79.308C389.027 78.0714 389 65.7151 389 65.7151V20.6703C389 9.25441 379.746 0 368.33 0H99.6703Z" fill="black"/>
<path d="M112.898 32.9395C112.74 34.293 112.239 35.3389 111.396 36.0771C110.558 36.8096 109.441 37.1758 108.047 37.1758C106.535 37.1758 105.322 36.6338 104.408 35.5498C103.5 34.4658 103.046 33.0156 103.046 31.1992V29.9688C103.046 28.7793 103.257 27.7334 103.679 26.8311C104.106 25.9287 104.71 25.2373 105.489 24.7568C106.269 24.2705 107.171 24.0273 108.196 24.0273C109.556 24.0273 110.646 24.4082 111.466 25.1699C112.286 25.9258 112.764 26.9746 112.898 28.3164H111.202C111.056 27.2969 110.736 26.5586 110.244 26.1016C109.758 25.6445 109.075 25.416 108.196 25.416C107.118 25.416 106.271 25.8145 105.656 26.6113C105.047 27.4082 104.742 28.542 104.742 30.0127V31.252C104.742 32.6406 105.032 33.7451 105.612 34.5654C106.192 35.3857 107.004 35.7959 108.047 35.7959C108.984 35.7959 109.702 35.585 110.2 35.1631C110.704 34.7354 111.038 33.9941 111.202 32.9395H112.898ZM116.581 28.6416C117.302 27.7568 118.239 27.3145 119.394 27.3145C121.403 27.3145 122.417 28.4482 122.435 30.7158V37H120.809V30.707C120.803 30.0215 120.645 29.5146 120.334 29.1865C120.029 28.8584 119.552 28.6943 118.901 28.6943C118.374 28.6943 117.911 28.835 117.513 29.1162C117.114 29.3975 116.804 29.7666 116.581 30.2236V37H114.955V23.5H116.581V28.6416ZM128.684 35.8486C129.264 35.8486 129.771 35.6729 130.204 35.3213C130.638 34.9697 130.878 34.5303 130.925 34.0029H132.463C132.434 34.5479 132.246 35.0664 131.9 35.5586C131.555 36.0508 131.092 36.4434 130.512 36.7363C129.938 37.0293 129.328 37.1758 128.684 37.1758C127.389 37.1758 126.357 36.7451 125.59 35.8838C124.828 35.0166 124.447 33.833 124.447 32.333V32.0605C124.447 31.1348 124.617 30.3115 124.957 29.5908C125.297 28.8701 125.783 28.3105 126.416 27.9121C127.055 27.5137 127.808 27.3145 128.675 27.3145C129.741 27.3145 130.626 27.6338 131.329 28.2725C132.038 28.9111 132.416 29.7402 132.463 30.7598H130.925C130.878 30.1445 130.644 29.6406 130.222 29.248C129.806 28.8496 129.29 28.6504 128.675 28.6504C127.849 28.6504 127.207 28.9492 126.75 29.5469C126.299 30.1387 126.073 30.9971 126.073 32.1221V32.4297C126.073 33.5254 126.299 34.3691 126.75 34.9609C127.201 35.5527 127.846 35.8486 128.684 35.8486ZM138.237 37.1758C136.948 37.1758 135.899 36.7539 135.091 35.9102C134.282 35.0605 133.878 33.9268 133.878 32.5088V32.21C133.878 31.2666 134.057 30.4258 134.414 29.6875C134.777 28.9434 135.281 28.3633 135.926 27.9473C136.576 27.5254 137.279 27.3145 138.035 27.3145C139.271 27.3145 140.232 27.7217 140.918 28.5361C141.604 29.3506 141.946 30.5166 141.946 32.0342V32.7109H135.504C135.527 33.6484 135.8 34.4072 136.321 34.9873C136.849 35.5615 137.517 35.8486 138.325 35.8486C138.899 35.8486 139.386 35.7314 139.784 35.4971C140.183 35.2627 140.531 34.9521 140.83 34.5654L141.823 35.3389C141.026 36.5635 139.831 37.1758 138.237 37.1758ZM138.035 28.6504C137.379 28.6504 136.828 28.8906 136.383 29.3711C135.938 29.8457 135.662 30.5137 135.557 31.375H140.32V31.252C140.273 30.4258 140.051 29.7871 139.652 29.3359C139.254 28.8789 138.715 28.6504 138.035 28.6504ZM149.373 34.4775C149.373 34.0381 149.206 33.6982 148.872 33.458C148.544 33.2119 147.967 33.001 147.141 32.8252C146.32 32.6494 145.667 32.4385 145.181 32.1924C144.7 31.9463 144.343 31.6533 144.108 31.3135C143.88 30.9736 143.766 30.5693 143.766 30.1006C143.766 29.3213 144.094 28.6621 144.75 28.123C145.412 27.584 146.256 27.3145 147.281 27.3145C148.359 27.3145 149.232 27.5928 149.9 28.1494C150.574 28.7061 150.911 29.418 150.911 30.2852H149.276C149.276 29.8398 149.086 29.4561 148.705 29.1338C148.33 28.8115 147.855 28.6504 147.281 28.6504C146.689 28.6504 146.227 28.7793 145.893 29.0371C145.559 29.2949 145.392 29.6318 145.392 30.0479C145.392 30.4404 145.547 30.7363 145.857 30.9355C146.168 31.1348 146.728 31.3252 147.536 31.5068C148.351 31.6885 149.01 31.9053 149.514 32.1572C150.018 32.4092 150.39 32.7139 150.63 33.0713C150.876 33.4229 150.999 33.8535 150.999 34.3633C150.999 35.2129 150.659 35.8955 149.979 36.4111C149.3 36.9209 148.418 37.1758 147.334 37.1758C146.572 37.1758 145.898 37.041 145.312 36.7715C144.727 36.502 144.267 36.127 143.933 35.6465C143.604 35.1602 143.44 34.6357 143.44 34.0732H145.066C145.096 34.6182 145.312 35.0518 145.717 35.374C146.127 35.6904 146.666 35.8486 147.334 35.8486C147.949 35.8486 148.441 35.7256 148.811 35.4795C149.186 35.2275 149.373 34.8936 149.373 34.4775ZM154.646 35.6729H160.21V37H152.66V35.8047L157.907 28.835H152.739V27.4902H159.946V28.6416L154.646 35.6729ZM174.545 32.3506C174.545 33.7979 174.214 34.9639 173.552 35.8486C172.89 36.7334 171.993 37.1758 170.862 37.1758C169.708 37.1758 168.8 36.8096 168.138 36.0771V40.6562H166.512V27.4902H167.997L168.076 28.5449C168.738 27.7246 169.658 27.3145 170.836 27.3145C171.979 27.3145 172.881 27.7451 173.543 28.6064C174.211 29.4678 174.545 30.666 174.545 32.2012V32.3506ZM172.919 32.166C172.919 31.0938 172.69 30.2471 172.233 29.626C171.776 29.0049 171.149 28.6943 170.353 28.6943C169.368 28.6943 168.63 29.1309 168.138 30.0039V34.5479C168.624 35.415 169.368 35.8486 170.37 35.8486C171.149 35.8486 171.768 35.541 172.225 34.9258C172.688 34.3047 172.919 33.3848 172.919 32.166ZM176.188 32.1572C176.188 31.2256 176.37 30.3877 176.733 29.6436C177.103 28.8994 177.612 28.3252 178.263 27.9209C178.919 27.5166 179.666 27.3145 180.504 27.3145C181.799 27.3145 182.845 27.7627 183.642 28.6592C184.444 29.5557 184.846 30.748 184.846 32.2363V32.3506C184.846 33.2764 184.667 34.1084 184.31 34.8467C183.958 35.5791 183.451 36.1504 182.789 36.5605C182.133 36.9707 181.377 37.1758 180.521 37.1758C179.232 37.1758 178.187 36.7275 177.384 35.8311C176.587 34.9346 176.188 33.748 176.188 32.2715V32.1572ZM177.823 32.3506C177.823 33.4053 178.066 34.252 178.553 34.8906C179.045 35.5293 179.701 35.8486 180.521 35.8486C181.348 35.8486 182.004 35.5264 182.49 34.8818C182.977 34.2314 183.22 33.3232 183.22 32.1572C183.22 31.1143 182.971 30.2705 182.473 29.626C181.98 28.9756 181.324 28.6504 180.504 28.6504C179.701 28.6504 179.054 28.9697 178.562 29.6084C178.069 30.2471 177.823 31.1611 177.823 32.3506ZM194.918 32.3506C194.918 33.7979 194.587 34.9639 193.925 35.8486C193.263 36.7334 192.366 37.1758 191.235 37.1758C190.081 37.1758 189.173 36.8096 188.511 36.0771V40.6562H186.885V27.4902H188.37L188.449 28.5449C189.111 27.7246 190.031 27.3145 191.209 27.3145C192.352 27.3145 193.254 27.7451 193.916 28.6064C194.584 29.4678 194.918 30.666 194.918 32.2012V32.3506ZM193.292 32.166C193.292 31.0938 193.063 30.2471 192.606 29.626C192.149 29.0049 191.522 28.6943 190.726 28.6943C189.741 28.6943 189.003 29.1309 188.511 30.0039V34.5479C188.997 35.415 189.741 35.8486 190.743 35.8486C191.522 35.8486 192.141 35.541 192.598 34.9258C193.061 34.3047 193.292 33.3848 193.292 32.166ZM201.589 28.9492C201.343 28.9082 201.076 28.8877 200.789 28.8877C199.723 28.8877 198.999 29.3418 198.618 30.25V37H196.992V27.4902H198.574L198.601 28.5889C199.134 27.7393 199.89 27.3145 200.868 27.3145C201.185 27.3145 201.425 27.3555 201.589 27.4375V28.9492ZM208.611 37C208.518 36.8125 208.441 36.4785 208.383 35.998C207.627 36.7832 206.725 37.1758 205.676 37.1758C204.738 37.1758 203.968 36.9121 203.364 36.3848C202.767 35.8516 202.468 35.1777 202.468 34.3633C202.468 33.373 202.843 32.6055 203.593 32.0605C204.349 31.5098 205.409 31.2344 206.774 31.2344H208.356V30.4873C208.356 29.9189 208.187 29.4678 207.847 29.1338C207.507 28.7939 207.006 28.624 206.344 28.624C205.764 28.624 205.277 28.7705 204.885 29.0635C204.492 29.3564 204.296 29.7109 204.296 30.127H202.661C202.661 29.6523 202.828 29.1953 203.162 28.7559C203.502 28.3105 203.959 27.959 204.533 27.7012C205.113 27.4434 205.749 27.3145 206.44 27.3145C207.536 27.3145 208.395 27.5898 209.016 28.1406C209.637 28.6855 209.959 29.4385 209.982 30.3994V34.7764C209.982 35.6494 210.094 36.3438 210.316 36.8594V37H208.611ZM205.913 35.7607C206.423 35.7607 206.906 35.6289 207.363 35.3652C207.82 35.1016 208.151 34.7588 208.356 34.3369V32.3857H207.082C205.09 32.3857 204.094 32.9688 204.094 34.1348C204.094 34.6445 204.264 35.043 204.604 35.3301C204.943 35.6172 205.38 35.7607 205.913 35.7607ZM220.951 34.7588L222.779 27.4902H224.405L221.637 37H220.318L218.007 29.793L215.757 37H214.438L211.679 27.4902H213.296L215.168 34.6094L217.383 27.4902H218.692L220.951 34.7588ZM227.833 37H226.207V27.4902H227.833V37ZM226.075 24.9678C226.075 24.7041 226.154 24.4814 226.312 24.2998C226.477 24.1182 226.717 24.0273 227.033 24.0273C227.35 24.0273 227.59 24.1182 227.754 24.2998C227.918 24.4814 228 24.7041 228 24.9678C228 25.2314 227.918 25.4512 227.754 25.627C227.59 25.8027 227.35 25.8906 227.033 25.8906C226.717 25.8906 226.477 25.8027 226.312 25.627C226.154 25.4512 226.075 25.2314 226.075 24.9678ZM234.258 35.8486C234.838 35.8486 235.345 35.6729 235.778 35.3213C236.212 34.9697 236.452 34.5303 236.499 34.0029H238.037C238.008 34.5479 237.82 35.0664 237.475 35.5586C237.129 36.0508 236.666 36.4434 236.086 36.7363C235.512 37.0293 234.902 37.1758 234.258 37.1758C232.963 37.1758 231.932 36.7451 231.164 35.8838C230.402 35.0166 230.021 33.833 230.021 32.333V32.0605C230.021 31.1348 230.191 30.3115 230.531 29.5908C230.871 28.8701 231.357 28.3105 231.99 27.9121C232.629 27.5137 233.382 27.3145 234.249 27.3145C235.315 27.3145 236.2 27.6338 236.903 28.2725C237.612 28.9111 237.99 29.7402 238.037 30.7598H236.499C236.452 30.1445 236.218 29.6406 235.796 29.248C235.38 28.8496 234.864 28.6504 234.249 28.6504C233.423 28.6504 232.781 28.9492 232.324 29.5469C231.873 30.1387 231.647 30.9971 231.647 32.1221V32.4297C231.647 33.5254 231.873 34.3691 232.324 34.9609C232.775 35.5527 233.42 35.8486 234.258 35.8486ZM234.688 23.5H236.657L234.302 26.084H232.992L234.688 23.5ZM252.75 34.7588L254.578 27.4902H256.204L253.436 37H252.117L249.806 29.793L247.556 37H246.237L243.478 27.4902H245.095L246.967 34.6094L249.182 27.4902H250.491L252.75 34.7588ZM260.977 34.6182L263.191 27.4902H264.932L261.108 38.4678C260.517 40.0498 259.576 40.8408 258.287 40.8408L257.979 40.8145L257.373 40.7002V39.3818L257.812 39.417C258.363 39.417 258.791 39.3057 259.096 39.083C259.406 38.8604 259.661 38.4531 259.86 37.8613L260.221 36.8945L256.828 27.4902H258.604L260.977 34.6182ZM267.929 27.4902L267.981 28.6855C268.708 27.7715 269.657 27.3145 270.829 27.3145C272.839 27.3145 273.853 28.4482 273.87 30.7158V37H272.244V30.707C272.238 30.0215 272.08 29.5146 271.77 29.1865C271.465 28.8584 270.987 28.6943 270.337 28.6943C269.81 28.6943 269.347 28.835 268.948 29.1162C268.55 29.3975 268.239 29.7666 268.017 30.2236V37H266.391V27.4902H267.929ZM278.089 37H276.463V27.4902H278.089V37ZM276.331 24.9678C276.331 24.7041 276.41 24.4814 276.568 24.2998C276.732 24.1182 276.973 24.0273 277.289 24.0273C277.605 24.0273 277.846 24.1182 278.01 24.2998C278.174 24.4814 278.256 24.7041 278.256 24.9678C278.256 25.2314 278.174 25.4512 278.01 25.627C277.846 25.8027 277.605 25.8906 277.289 25.8906C276.973 25.8906 276.732 25.8027 276.568 25.627C276.41 25.4512 276.331 25.2314 276.331 24.9678ZM283.354 32.5967L282.334 33.6602V37H280.708V23.5H282.334V31.665L283.204 30.6191L286.166 27.4902H288.144L284.443 31.4629L288.574 37H286.667L283.354 32.5967ZM291.589 37H289.963V27.4902H291.589V37ZM289.831 24.9678C289.831 24.7041 289.91 24.4814 290.068 24.2998C290.232 24.1182 290.473 24.0273 290.789 24.0273C291.105 24.0273 291.346 24.1182 291.51 24.2998C291.674 24.4814 291.756 24.7041 291.756 24.9678C291.756 25.2314 291.674 25.4512 291.51 25.627C291.346 25.8027 291.105 25.8906 290.789 25.8906C290.473 25.8906 290.232 25.8027 290.068 25.627C289.91 25.4512 289.831 25.2314 289.831 24.9678ZM304.201 34.4775C304.201 34.0381 304.034 33.6982 303.7 33.458C303.372 33.2119 302.795 33.001 301.969 32.8252C301.148 32.6494 300.495 32.4385 300.009 32.1924C299.528 31.9463 299.171 31.6533 298.937 31.3135C298.708 30.9736 298.594 30.5693 298.594 30.1006C298.594 29.3213 298.922 28.6621 299.578 28.123C300.24 27.584 301.084 27.3145 302.109 27.3145C303.188 27.3145 304.061 27.5928 304.729 28.1494C305.402 28.7061 305.739 29.418 305.739 30.2852H304.104C304.104 29.8398 303.914 29.4561 303.533 29.1338C303.158 28.8115 302.684 28.6504 302.109 28.6504C301.518 28.6504 301.055 28.7793 300.721 29.0371C300.387 29.2949 300.22 29.6318 300.22 30.0479C300.22 30.4404 300.375 30.7363 300.686 30.9355C300.996 31.1348 301.556 31.3252 302.364 31.5068C303.179 31.6885 303.838 31.9053 304.342 32.1572C304.846 32.4092 305.218 32.7139 305.458 33.0713C305.704 33.4229 305.827 33.8535 305.827 34.3633C305.827 35.2129 305.487 35.8955 304.808 36.4111C304.128 36.9209 303.246 37.1758 302.162 37.1758C301.4 37.1758 300.727 37.041 300.141 36.7715C299.555 36.502 299.095 36.127 298.761 35.6465C298.433 35.1602 298.269 34.6357 298.269 34.0732H299.895C299.924 34.6182 300.141 35.0518 300.545 35.374C300.955 35.6904 301.494 35.8486 302.162 35.8486C302.777 35.8486 303.27 35.7256 303.639 35.4795C304.014 35.2275 304.201 34.8936 304.201 34.4775ZM316.365 34.7588L318.193 27.4902H319.819L317.051 37H315.732L313.421 29.793L311.171 37H309.853L307.093 27.4902H308.71L310.582 34.6094L312.797 27.4902H314.106L316.365 34.7588ZM321.05 32.1572C321.05 31.2256 321.231 30.3877 321.595 29.6436C321.964 28.8994 322.474 28.3252 323.124 27.9209C323.78 27.5166 324.527 27.3145 325.365 27.3145C326.66 27.3145 327.706 27.7627 328.503 28.6592C329.306 29.5557 329.707 30.748 329.707 32.2363V32.3506C329.707 33.2764 329.528 34.1084 329.171 34.8467C328.819 35.5791 328.312 36.1504 327.65 36.5605C326.994 36.9707 326.238 37.1758 325.383 37.1758C324.094 37.1758 323.048 36.7275 322.245 35.8311C321.448 34.9346 321.05 33.748 321.05 32.2715V32.1572ZM322.685 32.3506C322.685 33.4053 322.928 34.252 323.414 34.8906C323.906 35.5293 324.562 35.8486 325.383 35.8486C326.209 35.8486 326.865 35.5264 327.352 34.8818C327.838 34.2314 328.081 33.3232 328.081 32.1572C328.081 31.1143 327.832 30.2705 327.334 29.626C326.842 28.9756 326.186 28.6504 325.365 28.6504C324.562 28.6504 323.915 28.9697 323.423 29.6084C322.931 30.2471 322.685 31.1611 322.685 32.3506ZM333.425 27.4902V38.0986C333.425 39.9268 332.596 40.8408 330.938 40.8408C330.58 40.8408 330.249 40.7881 329.944 40.6826V39.3818C330.132 39.4287 330.378 39.4521 330.683 39.4521C331.046 39.4521 331.321 39.3525 331.509 39.1533C331.702 38.96 331.799 38.6201 331.799 38.1338V27.4902H333.425ZM331.632 24.9678C331.632 24.71 331.711 24.4902 331.869 24.3086C332.033 24.1211 332.271 24.0273 332.581 24.0273C332.897 24.0273 333.138 24.1182 333.302 24.2998C333.466 24.4814 333.548 24.7041 333.548 24.9678C333.548 25.2314 333.466 25.4512 333.302 25.627C333.138 25.8027 332.897 25.8906 332.581 25.8906C332.265 25.8906 332.027 25.8027 331.869 25.627C331.711 25.4512 331.632 25.2314 331.632 24.9678ZM339.999 37.1758C338.71 37.1758 337.661 36.7539 336.853 35.9102C336.044 35.0605 335.64 33.9268 335.64 32.5088V32.21C335.64 31.2666 335.818 30.4258 336.176 29.6875C336.539 28.9434 337.043 28.3633 337.688 27.9473C338.338 27.5254 339.041 27.3145 339.797 27.3145C341.033 27.3145 341.994 27.7217 342.68 28.5361C343.365 29.3506 343.708 30.5166 343.708 32.0342V32.7109H337.266C337.289 33.6484 337.562 34.4072 338.083 34.9873C338.61 35.5615 339.278 35.8486 340.087 35.8486C340.661 35.8486 341.147 35.7314 341.546 35.4971C341.944 35.2627 342.293 34.9521 342.592 34.5654L343.585 35.3389C342.788 36.5635 341.593 37.1758 339.999 37.1758ZM339.797 28.6504C339.141 28.6504 338.59 28.8906 338.145 29.3711C337.699 29.8457 337.424 30.5137 337.318 31.375H342.082V31.252C342.035 30.4258 341.812 29.7871 341.414 29.3359C341.016 28.8789 340.477 28.6504 339.797 28.6504ZM347.276 27.4902V38.0986C347.276 39.9268 346.447 40.8408 344.789 40.8408C344.432 40.8408 344.101 40.7881 343.796 40.6826V39.3818C343.983 39.4287 344.229 39.4521 344.534 39.4521C344.897 39.4521 345.173 39.3525 345.36 39.1533C345.554 38.96 345.65 38.6201 345.65 38.1338V27.4902H347.276ZM345.483 24.9678C345.483 24.71 345.562 24.4902 345.721 24.3086C345.885 24.1211 346.122 24.0273 346.433 24.0273C346.749 24.0273 346.989 24.1182 347.153 24.2998C347.317 24.4814 347.399 24.7041 347.399 24.9678C347.399 25.2314 347.317 25.4512 347.153 25.627C346.989 25.8027 346.749 25.8906 346.433 25.8906C346.116 25.8906 345.879 25.8027 345.721 25.627C345.562 25.4512 345.483 25.2314 345.483 24.9678ZM105.885 58.5967L104.865 59.6602V63H103.239V49.5H104.865V57.665L105.735 56.6191L108.697 53.4902H110.675L106.975 57.4629L111.105 63H109.198L105.885 58.5967ZM118.225 63C118.131 62.8125 118.055 62.4785 117.996 61.998C117.24 62.7832 116.338 63.1758 115.289 63.1758C114.352 63.1758 113.581 62.9121 112.978 62.3848C112.38 61.8516 112.081 61.1777 112.081 60.3633C112.081 59.373 112.456 58.6055 113.206 58.0605C113.962 57.5098 115.022 57.2344 116.388 57.2344H117.97V56.4873C117.97 55.9189 117.8 55.4678 117.46 55.1338C117.12 54.7939 116.619 54.624 115.957 54.624C115.377 54.624 114.891 54.7705 114.498 55.0635C114.105 55.3564 113.909 55.7109 113.909 56.127H112.274C112.274 55.6523 112.441 55.1953 112.775 54.7559C113.115 54.3105 113.572 53.959 114.146 53.7012C114.727 53.4434 115.362 53.3145 116.054 53.3145C117.149 53.3145 118.008 53.5898 118.629 54.1406C119.25 54.6855 119.572 55.4385 119.596 56.3994V60.7764C119.596 61.6494 119.707 62.3438 119.93 62.8594V63H118.225ZM115.526 61.7607C116.036 61.7607 116.52 61.6289 116.977 61.3652C117.434 61.1016 117.765 60.7588 117.97 60.3369V58.3857H116.695C114.703 58.3857 113.707 58.9688 113.707 60.1348C113.707 60.6445 113.877 61.043 114.217 61.3301C114.557 61.6172 114.993 61.7607 115.526 61.7607ZM123.674 53.4902L123.718 54.5449C124.415 53.7246 125.355 53.3145 126.539 53.3145C127.869 53.3145 128.774 53.8242 129.255 54.8438C129.571 54.3867 129.981 54.0176 130.485 53.7363C130.995 53.4551 131.596 53.3145 132.287 53.3145C134.373 53.3145 135.434 54.4189 135.469 56.6279V63H133.843V56.7246C133.843 56.0449 133.688 55.5381 133.377 55.2041C133.066 54.8643 132.545 54.6943 131.812 54.6943C131.209 54.6943 130.708 54.876 130.31 55.2393C129.911 55.5967 129.68 56.0801 129.615 56.6895V63H127.98V56.7686C127.98 55.3857 127.304 54.6943 125.95 54.6943C124.884 54.6943 124.154 55.1484 123.762 56.0566V63H122.136V53.4902H123.674ZM145.963 58.3506C145.963 59.7979 145.632 60.9639 144.97 61.8486C144.308 62.7334 143.411 63.1758 142.28 63.1758C141.126 63.1758 140.218 62.8096 139.556 62.0771V66.6562H137.93V53.4902H139.415L139.494 54.5449C140.156 53.7246 141.076 53.3145 142.254 53.3145C143.396 53.3145 144.299 53.7451 144.961 54.6064C145.629 55.4678 145.963 56.666 145.963 58.2012V58.3506ZM144.337 58.166C144.337 57.0938 144.108 56.2471 143.651 55.626C143.194 55.0049 142.567 54.6943 141.771 54.6943C140.786 54.6943 140.048 55.1309 139.556 56.0039V60.5479C140.042 61.415 140.786 61.8486 141.788 61.8486C142.567 61.8486 143.186 61.541 143.643 60.9258C144.105 60.3047 144.337 59.3848 144.337 58.166ZM153.908 63C153.814 62.8125 153.738 62.4785 153.68 61.998C152.924 62.7832 152.021 63.1758 150.973 63.1758C150.035 63.1758 149.265 62.9121 148.661 62.3848C148.063 61.8516 147.765 61.1777 147.765 60.3633C147.765 59.373 148.14 58.6055 148.89 58.0605C149.646 57.5098 150.706 57.2344 152.071 57.2344H153.653V56.4873C153.653 55.9189 153.483 55.4678 153.144 55.1338C152.804 54.7939 152.303 54.624 151.641 54.624C151.061 54.624 150.574 54.7705 150.182 55.0635C149.789 55.3564 149.593 55.7109 149.593 56.127H147.958C147.958 55.6523 148.125 55.1953 148.459 54.7559C148.799 54.3105 149.256 53.959 149.83 53.7012C150.41 53.4434 151.046 53.3145 151.737 53.3145C152.833 53.3145 153.691 53.5898 154.312 54.1406C154.934 54.6855 155.256 55.4385 155.279 56.3994V60.7764C155.279 61.6494 155.391 62.3438 155.613 62.8594V63H153.908ZM151.21 61.7607C151.72 61.7607 152.203 61.6289 152.66 61.3652C153.117 61.1016 153.448 60.7588 153.653 60.3369V58.3857H152.379C150.387 58.3857 149.391 58.9688 149.391 60.1348C149.391 60.6445 149.561 61.043 149.9 61.3301C150.24 61.6172 150.677 61.7607 151.21 61.7607ZM159.366 53.4902L159.419 54.6855C160.146 53.7715 161.095 53.3145 162.267 53.3145C164.276 53.3145 165.29 54.4482 165.308 56.7158V63H163.682V56.707C163.676 56.0215 163.518 55.5146 163.207 55.1865C162.902 54.8584 162.425 54.6943 161.774 54.6943C161.247 54.6943 160.784 54.835 160.386 55.1162C159.987 55.3975 159.677 55.7666 159.454 56.2236V63H157.828V53.4902H159.366ZM169.526 63H167.9V53.4902H169.526V63ZM167.769 50.9678C167.769 50.7041 167.848 50.4814 168.006 50.2998C168.17 50.1182 168.41 50.0273 168.727 50.0273C169.043 50.0273 169.283 50.1182 169.447 50.2998C169.611 50.4814 169.693 50.7041 169.693 50.9678C169.693 51.2314 169.611 51.4512 169.447 51.627C169.283 51.8027 169.043 51.8906 168.727 51.8906C168.41 51.8906 168.17 51.8027 168.006 51.627C167.848 51.4512 167.769 51.2314 167.769 50.9678ZM173.903 63H172.277V53.4902H173.903V63ZM172.146 50.9678C172.146 50.7041 172.225 50.4814 172.383 50.2998C172.547 50.1182 172.787 50.0273 173.104 50.0273C173.42 50.0273 173.66 50.1182 173.824 50.2998C173.988 50.4814 174.07 50.7041 174.07 50.9678C174.07 51.2314 173.988 51.4512 173.824 51.627C173.66 51.8027 173.42 51.8906 173.104 51.8906C172.787 51.8906 172.547 51.8027 172.383 51.627C172.225 51.4512 172.146 51.2314 172.146 50.9678ZM190.682 61.3213C190.248 61.9424 189.642 62.4082 188.862 62.7188C188.089 63.0234 187.187 63.1758 186.155 63.1758C185.112 63.1758 184.187 62.9326 183.378 62.4463C182.569 61.9541 181.942 61.2568 181.497 60.3545C181.058 59.4521 180.832 58.4062 180.82 57.2168V56.1006C180.82 54.1729 181.269 52.6787 182.165 51.6182C183.067 50.5576 184.333 50.0273 185.962 50.0273C187.298 50.0273 188.373 50.3701 189.188 51.0557C190.002 51.7354 190.5 52.7021 190.682 53.9561H188.994C188.678 52.2627 187.67 51.416 185.971 51.416C184.84 51.416 183.981 51.8145 183.396 52.6113C182.815 53.4023 182.522 54.5508 182.517 56.0566V57.1025C182.517 58.5381 182.845 59.6807 183.501 60.5303C184.157 61.374 185.045 61.7959 186.164 61.7959C186.797 61.7959 187.351 61.7256 187.825 61.585C188.3 61.4443 188.692 61.207 189.003 60.873V57.999H186.041V56.6279H190.682V61.3213ZM192.817 58.1572C192.817 57.2256 192.999 56.3877 193.362 55.6436C193.731 54.8994 194.241 54.3252 194.892 53.9209C195.548 53.5166 196.295 53.3145 197.133 53.3145C198.428 53.3145 199.474 53.7627 200.271 54.6592C201.073 55.5557 201.475 56.748 201.475 58.2363V58.3506C201.475 59.2764 201.296 60.1084 200.938 60.8467C200.587 61.5791 200.08 62.1504 199.418 62.5605C198.762 62.9707 198.006 63.1758 197.15 63.1758C195.861 63.1758 194.815 62.7275 194.013 61.8311C193.216 60.9346 192.817 59.748 192.817 58.2715V58.1572ZM194.452 58.3506C194.452 59.4053 194.695 60.252 195.182 60.8906C195.674 61.5293 196.33 61.8486 197.15 61.8486C197.977 61.8486 198.633 61.5264 199.119 60.8818C199.605 60.2314 199.849 59.3232 199.849 58.1572C199.849 57.1143 199.6 56.2705 199.102 55.626C198.609 54.9756 197.953 54.6504 197.133 54.6504C196.33 54.6504 195.683 54.9697 195.19 55.6084C194.698 56.2471 194.452 57.1611 194.452 58.3506ZM203.083 58.1572C203.083 57.2256 203.265 56.3877 203.628 55.6436C203.997 54.8994 204.507 54.3252 205.157 53.9209C205.813 53.5166 206.561 53.3145 207.398 53.3145C208.693 53.3145 209.739 53.7627 210.536 54.6592C211.339 55.5557 211.74 56.748 211.74 58.2363V58.3506C211.74 59.2764 211.562 60.1084 211.204 60.8467C210.853 61.5791 210.346 62.1504 209.684 62.5605C209.027 62.9707 208.271 63.1758 207.416 63.1758C206.127 63.1758 205.081 62.7275 204.278 61.8311C203.481 60.9346 203.083 59.748 203.083 58.2715V58.1572ZM204.718 58.3506C204.718 59.4053 204.961 60.252 205.447 60.8906C205.939 61.5293 206.596 61.8486 207.416 61.8486C208.242 61.8486 208.898 61.5264 209.385 60.8818C209.871 60.2314 210.114 59.3232 210.114 58.1572C210.114 57.1143 209.865 56.2705 209.367 55.626C208.875 54.9756 208.219 54.6504 207.398 54.6504C206.596 54.6504 205.948 54.9697 205.456 55.6084C204.964 56.2471 204.718 57.1611 204.718 58.3506ZM213.393 58.166C213.393 56.6836 213.735 55.5059 214.421 54.6328C215.106 53.7539 216.015 53.3145 217.146 53.3145C218.306 53.3145 219.211 53.7246 219.861 54.5449L219.94 53.4902H221.426V62.7715C221.426 64.002 221.06 64.9717 220.327 65.6807C219.601 66.3896 218.622 66.7441 217.392 66.7441C216.706 66.7441 216.035 66.5977 215.379 66.3047C214.723 66.0117 214.222 65.6104 213.876 65.1006L214.72 64.125C215.417 64.9863 216.27 65.417 217.277 65.417C218.068 65.417 218.684 65.1943 219.123 64.749C219.568 64.3037 219.791 63.6768 219.791 62.8682V62.0508C219.141 62.8008 218.253 63.1758 217.128 63.1758C216.015 63.1758 215.112 62.7275 214.421 61.8311C213.735 60.9346 213.393 59.7129 213.393 58.166ZM215.027 58.3506C215.027 59.4229 215.247 60.2666 215.687 60.8818C216.126 61.4912 216.741 61.7959 217.532 61.7959C218.558 61.7959 219.311 61.3301 219.791 60.3984V56.0566C219.293 55.1484 218.546 54.6943 217.55 54.6943C216.759 54.6943 216.141 55.002 215.695 55.6172C215.25 56.2324 215.027 57.1436 215.027 58.3506ZM225.653 63H224.027V49.5H225.653V63ZM232.21 63.1758C230.921 63.1758 229.872 62.7539 229.063 61.9102C228.255 61.0605 227.851 59.9268 227.851 58.5088V58.21C227.851 57.2666 228.029 56.4258 228.387 55.6875C228.75 54.9434 229.254 54.3633 229.898 53.9473C230.549 53.5254 231.252 53.3145 232.008 53.3145C233.244 53.3145 234.205 53.7217 234.891 54.5361C235.576 55.3506 235.919 56.5166 235.919 58.0342V58.7109H229.477C229.5 59.6484 229.772 60.4072 230.294 60.9873C230.821 61.5615 231.489 61.8486 232.298 61.8486C232.872 61.8486 233.358 61.7314 233.757 61.4971C234.155 61.2627 234.504 60.9521 234.803 60.5654L235.796 61.3389C234.999 62.5635 233.804 63.1758 232.21 63.1758ZM232.008 54.6504C231.352 54.6504 230.801 54.8906 230.355 55.3711C229.91 55.8457 229.635 56.5137 229.529 57.375H234.293V57.252C234.246 56.4258 234.023 55.7871 233.625 55.3359C233.227 54.8789 232.688 54.6504 232.008 54.6504ZM249.595 59.6602H244.233L243.029 63H241.289L246.176 50.2031H247.652L252.548 63H250.816L249.595 59.6602ZM244.743 58.2715H249.094L246.914 52.2861L244.743 58.2715ZM253.62 58.166C253.62 56.707 253.966 55.5352 254.657 54.6504C255.349 53.7598 256.254 53.3145 257.373 53.3145C258.486 53.3145 259.368 53.6953 260.019 54.457V49.5H261.645V63H260.15L260.071 61.9805C259.421 62.7773 258.516 63.1758 257.355 63.1758C256.254 63.1758 255.354 62.7246 254.657 61.8223C253.966 60.9199 253.62 59.7422 253.62 58.2891V58.166ZM255.246 58.3506C255.246 59.4287 255.469 60.2725 255.914 60.8818C256.359 61.4912 256.975 61.7959 257.76 61.7959C258.791 61.7959 259.544 61.333 260.019 60.4072V56.0391C259.532 55.1426 258.785 54.6943 257.777 54.6943C256.98 54.6943 256.359 55.002 255.914 55.6172C255.469 56.2324 255.246 57.1436 255.246 58.3506ZM269.713 60.4775C269.713 60.0381 269.546 59.6982 269.212 59.458C268.884 59.2119 268.307 59.001 267.48 58.8252C266.66 58.6494 266.007 58.4385 265.521 58.1924C265.04 57.9463 264.683 57.6533 264.448 57.3135C264.22 56.9736 264.105 56.5693 264.105 56.1006C264.105 55.3213 264.434 54.6621 265.09 54.123C265.752 53.584 266.596 53.3145 267.621 53.3145C268.699 53.3145 269.572 53.5928 270.24 54.1494C270.914 54.7061 271.251 55.418 271.251 56.2852H269.616C269.616 55.8398 269.426 55.4561 269.045 55.1338C268.67 54.8115 268.195 54.6504 267.621 54.6504C267.029 54.6504 266.566 54.7793 266.232 55.0371C265.898 55.2949 265.731 55.6318 265.731 56.0479C265.731 56.4404 265.887 56.7363 266.197 56.9355C266.508 57.1348 267.067 57.3252 267.876 57.5068C268.69 57.6885 269.35 57.9053 269.854 58.1572C270.357 58.4092 270.729 58.7139 270.97 59.0713C271.216 59.4229 271.339 59.8535 271.339 60.3633C271.339 61.2129 270.999 61.8955 270.319 62.4111C269.64 62.9209 268.758 63.1758 267.674 63.1758C266.912 63.1758 266.238 63.041 265.652 62.7715C265.066 62.502 264.606 62.127 264.272 61.6465C263.944 61.1602 263.78 60.6357 263.78 60.0732H265.406C265.436 60.6182 265.652 61.0518 266.057 61.374C266.467 61.6904 267.006 61.8486 267.674 61.8486C268.289 61.8486 268.781 61.7256 269.15 61.4795C269.525 61.2275 269.713 60.8936 269.713 60.4775ZM275.364 59.3965C275.376 58.6992 275.455 58.1484 275.602 57.7441C275.748 57.3398 276.047 56.8916 276.498 56.3994L277.649 55.2129C278.142 54.6562 278.388 54.0586 278.388 53.4199C278.388 52.8047 278.227 52.3242 277.904 51.9785C277.582 51.627 277.113 51.4512 276.498 51.4512C275.9 51.4512 275.42 51.6094 275.057 51.9258C274.693 52.2422 274.512 52.667 274.512 53.2002H272.886C272.897 52.251 273.234 51.4863 273.896 50.9062C274.564 50.3203 275.432 50.0273 276.498 50.0273C277.605 50.0273 278.467 50.3262 279.082 50.9238C279.703 51.5156 280.014 52.3301 280.014 53.3672C280.014 54.3926 279.539 55.4033 278.59 56.3994L277.632 57.3486C277.204 57.8232 276.99 58.5059 276.99 59.3965H275.364ZM275.294 62.1826C275.294 61.9189 275.373 61.6992 275.531 61.5234C275.695 61.3418 275.936 61.251 276.252 61.251C276.568 61.251 276.809 61.3418 276.973 61.5234C277.137 61.6992 277.219 61.9189 277.219 62.1826C277.219 62.4463 277.137 62.666 276.973 62.8418C276.809 63.0117 276.568 63.0967 276.252 63.0967C275.936 63.0967 275.695 63.0117 275.531 62.8418C275.373 62.666 275.294 62.4463 275.294 62.1826Z" fill="white"/>
<circle cx="421" cy="71" r="19" fill="black"/>
<path d="M416.069 67.5074L414.912 77.604C414.885 77.8449 415.015 78.0675 415.221 78.1681L415.009 80.0242C414.974 80.3298 415.193 80.606 415.499 80.641L415.679 80.6617L415.47 82.4863C415.435 82.7919 415.654 83.068 415.96 83.1031L416.523 83.1676L416.702 83.1881L422.973 83.9067L423.086 83.9197L423.72 83.9923C424.026 84.0273 424.302 83.808 424.337 83.5024L424.546 81.6777L424.723 81.6981C425.029 81.7331 425.305 81.5137 425.34 81.2082L425.468 80.0926L425.655 80.114C425.961 80.149 426.237 79.9296 426.272 79.6241L426.4 78.5085L426.58 78.5291C426.885 78.5641 427.161 78.3447 427.196 78.0392L427.324 76.9236L427.509 76.9448C427.814 76.9798 428.09 76.7604 428.125 76.4548L428.158 76.1737L428.341 76.1947C428.647 76.2298 428.923 76.0104 428.958 75.7048L429.15 74.0305C429.185 73.7249 428.966 73.4488 428.66 73.4138L428.477 73.3928L428.497 73.2137C428.532 72.9081 428.313 72.6319 428.007 72.5969L426.529 72.4275C426.465 72.4201 426.402 72.4239 426.343 72.4373L426.976 66.91C427.011 66.6044 426.792 66.3282 426.486 66.2932L426.318 66.274L426.338 66.1047C426.373 65.7991 426.154 65.5229 425.848 65.4879L424.339 65.315C424.033 65.2799 423.757 65.4993 423.722 65.8049L423.702 65.9742L423.535 65.955C423.229 65.92 422.953 66.1394 422.918 66.445L422.616 69.0792L421.655 68.9691C421.35 68.9341 421.074 69.1535 421.039 69.4591L421.018 69.6435L420.986 69.6399L420.872 69.6268L419.95 69.5211L420.127 67.9724C420.162 67.6669 419.943 67.3907 419.637 67.3557L419.47 67.3365L419.491 67.1521C419.526 66.8465 419.307 66.5703 419.001 66.5353L417.498 66.363C417.192 66.328 416.916 66.5474 416.881 66.853L416.86 67.0374L416.686 67.0175C416.381 66.9825 416.104 67.2019 416.069 67.5074Z" fill="white"/>
<path d="M415.466 77.6685L415.835 77.7107L415.563 80.0887L416.296 80.1728L416.024 82.5508L416.587 82.6154L416.766 82.6358L423.037 83.3544L423.15 83.3674L423.784 83.4401L424.056 81.0621L424.787 81.1458L424.979 79.4769L425.719 79.5617L425.91 77.8928L426.644 77.9768L426.835 76.3079L427.573 76.3925L427.668 75.558L428.405 75.6425L428.597 73.9682L427.861 73.8838L427.944 73.1513L426.466 72.9819L426.382 73.712L425.646 73.6277L426.423 66.8477L425.702 66.765L425.785 66.0423L424.276 65.8694L424.193 66.5921L423.472 66.5095L423.107 69.6971L421.593 69.5236L421.508 70.2614L420.923 70.1944L420.809 70.1812L419.334 70.0122L419.574 67.9101L418.854 67.8275L418.938 67.0898L417.435 66.9175L417.35 67.6553L416.623 67.5719L415.466 77.6685ZM416.85 81.898L417.04 80.2446L416.302 80.1601L416.574 77.7862L416.205 77.7439L417.359 67.673L418.835 67.8421L418.137 73.9325L418.875 74.017L419.249 70.7499L420.724 70.919L420.444 73.3689L421.182 73.4534L421.542 70.3034L423.018 70.4725L422.657 73.6225L423.395 73.707L424.208 66.6091L425.684 66.7782L424.763 74.8096L425.501 74.8942L425.562 74.3655L426.299 74.45L426.383 73.7175L427.856 73.8862L427.665 75.5568L426.93 75.4726L426.834 76.3062L426.096 76.2216L425.906 77.8866L425.168 77.802L424.976 79.4744L424.238 79.3899L424.048 81.0511L423.31 80.9666L423.121 82.6167L416.85 81.898Z" fill="black"/>
<path d="M432.041 67.1686L431.089 66.6715C430.92 66.5846 430.853 66.3768 430.94 66.2074L431.945 64.2754C431.974 64.2196 431.907 64.1636 431.857 64.2023L428.8 66.5932C428.595 66.7454 428.621 67.0595 428.848 67.176L429.8 67.6731C429.969 67.76 430.036 67.9678 429.949 68.1372L429.04 69.8793C429.011 69.9344 429.077 69.9904 429.126 69.9533L432.089 67.7513C432.293 67.5992 432.267 67.285 432.041 67.1686Z" fill="white"/>
<path d="M422.076 60.8541L420.819 60.9736C420.596 60.9963 420.397 60.8343 420.374 60.6116L420.128 58.0624C420.121 57.9888 420.019 57.9768 419.995 58.0467L418.512 62.3626C418.407 62.6438 418.634 62.9369 418.933 62.9064L420.189 62.7869C420.412 62.7642 420.611 62.9263 420.634 63.149L420.853 65.4494C420.86 65.5222 420.961 65.5353 420.986 65.4668L422.496 61.3979C422.601 61.1167 422.374 60.8236 422.076 60.8541Z" fill="white"/>
<path d="M412.667 64.5642L411.965 65.3306C411.841 65.4675 411.63 65.4781 411.493 65.3545L409.936 63.9317C409.891 63.8906 409.822 63.9397 409.846 63.9957L411.32 67.453C411.412 67.6825 411.712 67.7366 411.878 67.5533L412.58 66.7868C412.704 66.65 412.915 66.6393 413.052 66.763L414.455 68.0487C414.5 68.0893 414.568 68.0419 414.546 67.986L413.225 64.6645C413.133 64.435 412.833 64.3809 412.667 64.5642Z" fill="white"/>
<path fill-rule="evenodd" clip-rule="evenodd" d="M99.6703 208C88.2544 208 79 217.254 79 228.67V276.941C79 288.357 88.2544 297.611 99.6703 297.611H365.198C370.369 297.611 375.154 295.963 379.058 293.162C380.529 294.324 382.715 295.689 385.744 296.884C389.502 298.367 395.119 298.016 396.998 297.81C389.168 293.485 389 289.162 389 287.308C389.027 286.071 389 273.715 389 273.715V228.67C389 217.254 379.746 208 368.33 208H99.6703Z" fill="black"/>
<circle cx="421" cy="279" r="19" fill="black"/>
<path d="M416.069 275.507L414.912 285.604C414.885 285.845 415.015 286.068 415.221 286.168L415.009 288.024C414.974 288.33 415.193 288.606 415.499 288.641L415.679 288.662L415.47 290.486C415.435 290.792 415.654 291.068 415.96 291.103L416.523 291.168L416.702 291.188L422.973 291.907L423.086 291.92L423.72 291.992C424.026 292.027 424.302 291.808 424.337 291.502L424.546 289.678L424.723 289.698C425.029 289.733 425.305 289.514 425.34 289.208L425.468 288.093L425.655 288.114C425.961 288.149 426.237 287.93 426.272 287.624L426.4 286.508L426.58 286.529C426.885 286.564 427.161 286.345 427.196 286.039L427.324 284.924L427.509 284.945C427.814 284.98 428.09 284.76 428.125 284.455L428.158 284.174L428.341 284.195C428.647 284.23 428.923 284.01 428.958 283.705L429.15 282.031C429.185 281.725 428.966 281.449 428.66 281.414L428.477 281.393L428.497 281.214C428.532 280.908 428.313 280.632 428.007 280.597L426.529 280.427C426.465 280.42 426.402 280.424 426.343 280.437L426.976 274.91C427.011 274.604 426.792 274.328 426.486 274.293L426.318 274.274L426.338 274.105C426.373 273.799 426.154 273.523 425.848 273.488L424.339 273.315C424.033 273.28 423.757 273.499 423.722 273.805L423.702 273.974L423.535 273.955C423.229 273.92 422.953 274.139 422.918 274.445L422.616 277.079L421.655 276.969C421.35 276.934 421.074 277.153 421.039 277.459L421.018 277.644L420.986 277.64L420.872 277.627L419.95 277.521L420.127 275.972C420.162 275.667 419.943 275.391 419.637 275.356L419.47 275.337L419.491 275.152C419.526 274.846 419.307 274.57 419.001 274.535L417.498 274.363C417.192 274.328 416.916 274.547 416.881 274.853L416.86 275.037L416.686 275.018C416.381 274.982 416.104 275.202 416.069 275.507Z" fill="white"/>
<path d="M415.466 285.668L415.835 285.711L415.563 288.089L416.296 288.173L416.024 290.551L416.587 290.615L416.766 290.636L423.037 291.354L423.15 291.367L423.784 291.44L424.056 289.062L424.787 289.146L424.979 287.477L425.719 287.562L425.91 285.893L426.644 285.977L426.835 284.308L427.573 284.393L427.668 283.558L428.405 283.642L428.597 281.968L427.861 281.884L427.944 281.151L426.466 280.982L426.382 281.712L425.646 281.628L426.423 274.848L425.702 274.765L425.785 274.042L424.276 273.869L424.193 274.592L423.472 274.509L423.107 277.697L421.593 277.524L421.508 278.261L420.923 278.194L420.809 278.181L419.334 278.012L419.574 275.91L418.854 275.828L418.938 275.09L417.435 274.917L417.35 275.655L416.623 275.572L415.466 285.668ZM416.85 289.898L417.04 288.245L416.302 288.16L416.574 285.786L416.205 285.744L417.359 275.673L418.835 275.842L418.137 281.932L418.875 282.017L419.249 278.75L420.724 278.919L420.444 281.369L421.182 281.453L421.542 278.303L423.018 278.473L422.657 281.622L423.395 281.707L424.208 274.609L425.684 274.778L424.763 282.81L425.501 282.894L425.562 282.365L426.299 282.45L426.383 281.717L427.856 281.886L427.665 283.557L426.93 283.473L426.834 284.306L426.096 284.222L425.906 285.887L425.168 285.802L424.976 287.474L424.238 287.39L424.048 289.051L423.31 288.967L423.121 290.617L416.85 289.898Z" fill="black"/>
<path d="M432.041 275.169L431.089 274.672C430.92 274.585 430.853 274.377 430.94 274.207L431.945 272.275C431.974 272.22 431.907 272.164 431.857 272.202L428.8 274.593C428.595 274.745 428.621 275.06 428.848 275.176L429.8 275.673C429.969 275.76 430.036 275.968 429.949 276.137L429.04 277.879C429.011 277.934 429.077 277.99 429.126 277.953L432.089 275.751C432.293 275.599 432.267 275.285 432.041 275.169Z" fill="white"/>
<path d="M422.076 268.854L420.819 268.974C420.596 268.996 420.397 268.834 420.374 268.612L420.128 266.062C420.121 265.989 420.019 265.977 419.995 266.047L418.512 270.363C418.407 270.644 418.634 270.937 418.933 270.906L420.189 270.787C420.412 270.764 420.611 270.926 420.634 271.149L420.853 273.449C420.86 273.522 420.961 273.535 420.986 273.467L422.496 269.398C422.601 269.117 422.374 268.824 422.076 268.854Z" fill="white"/>
<path d="M412.667 272.564L411.965 273.331C411.841 273.467 411.63 273.478 411.493 273.355L409.936 271.932C409.891 271.891 409.822 271.94 409.846 271.996L411.32 275.453C411.412 275.682 411.712 275.737 411.878 275.553L412.58 274.787C412.704 274.65 412.915 274.639 413.052 274.763L414.455 276.049C414.5 276.089 414.568 276.042 414.546 275.986L413.225 272.665C413.133 272.435 412.833 272.381 412.667 272.564Z" fill="white"/>
<path d="M121.751 244.62H129.072V246H119.756V244.734L126.77 234.592H119.87V233.203H128.791V234.442L121.751 244.62ZM135.603 237.949C135.356 237.908 135.09 237.888 134.803 237.888C133.736 237.888 133.013 238.342 132.632 239.25V246H131.006V236.49H132.588L132.614 237.589C133.147 236.739 133.903 236.314 134.882 236.314C135.198 236.314 135.438 236.355 135.603 236.438V237.949ZM136.499 241.157C136.499 240.226 136.681 239.388 137.044 238.644C137.413 237.899 137.923 237.325 138.573 236.921C139.229 236.517 139.977 236.314 140.814 236.314C142.109 236.314 143.155 236.763 143.952 237.659C144.755 238.556 145.156 239.748 145.156 241.236V241.351C145.156 242.276 144.978 243.108 144.62 243.847C144.269 244.579 143.762 245.15 143.1 245.561C142.443 245.971 141.688 246.176 140.832 246.176C139.543 246.176 138.497 245.728 137.694 244.831C136.897 243.935 136.499 242.748 136.499 241.271V241.157ZM138.134 241.351C138.134 242.405 138.377 243.252 138.863 243.891C139.355 244.529 140.012 244.849 140.832 244.849C141.658 244.849 142.314 244.526 142.801 243.882C143.287 243.231 143.53 242.323 143.53 241.157C143.53 240.114 143.281 239.271 142.783 238.626C142.291 237.976 141.635 237.65 140.814 237.65C140.012 237.65 139.364 237.97 138.872 238.608C138.38 239.247 138.134 240.161 138.134 241.351ZM155.246 241.351C155.246 242.804 154.912 243.973 154.244 244.857C153.576 245.736 152.68 246.176 151.555 246.176C150.354 246.176 149.425 245.751 148.769 244.901L148.689 246H147.195V232.5H148.821V237.536C149.478 236.722 150.383 236.314 151.537 236.314C152.691 236.314 153.597 236.751 154.253 237.624C154.915 238.497 155.246 239.692 155.246 241.21V241.351ZM153.62 241.166C153.62 240.059 153.406 239.203 152.979 238.6C152.551 237.996 151.936 237.694 151.133 237.694C150.061 237.694 149.29 238.192 148.821 239.188V243.302C149.319 244.298 150.096 244.796 151.15 244.796C151.93 244.796 152.536 244.494 152.97 243.891C153.403 243.287 153.62 242.379 153.62 241.166ZM159.069 246H157.443V236.49H159.069V246ZM157.312 233.968C157.312 233.704 157.391 233.481 157.549 233.3C157.713 233.118 157.953 233.027 158.27 233.027C158.586 233.027 158.826 233.118 158.99 233.3C159.154 233.481 159.236 233.704 159.236 233.968C159.236 234.231 159.154 234.451 158.99 234.627C158.826 234.803 158.586 234.891 158.27 234.891C157.953 234.891 157.713 234.803 157.549 234.627C157.391 234.451 157.312 234.231 157.312 233.968ZM163.209 236.49L163.253 237.545C163.95 236.725 164.891 236.314 166.074 236.314C167.404 236.314 168.31 236.824 168.79 237.844C169.106 237.387 169.517 237.018 170.021 236.736C170.53 236.455 171.131 236.314 171.822 236.314C173.908 236.314 174.969 237.419 175.004 239.628V246H173.378V239.725C173.378 239.045 173.223 238.538 172.912 238.204C172.602 237.864 172.08 237.694 171.348 237.694C170.744 237.694 170.243 237.876 169.845 238.239C169.446 238.597 169.215 239.08 169.15 239.689V246H167.516V239.769C167.516 238.386 166.839 237.694 165.485 237.694C164.419 237.694 163.689 238.148 163.297 239.057V246H161.671V236.49H163.209ZM180.576 243.618L182.791 236.49H184.531L180.708 247.468C180.116 249.05 179.176 249.841 177.887 249.841L177.579 249.814L176.973 249.7V248.382L177.412 248.417C177.963 248.417 178.391 248.306 178.695 248.083C179.006 247.86 179.261 247.453 179.46 246.861L179.82 245.895L176.428 236.49H178.203L180.576 243.618ZM190.06 241.166C190.06 239.707 190.405 238.535 191.097 237.65C191.788 236.76 192.693 236.314 193.812 236.314C194.926 236.314 195.808 236.695 196.458 237.457V232.5H198.084V246H196.59L196.511 244.98C195.86 245.777 194.955 246.176 193.795 246.176C192.693 246.176 191.794 245.725 191.097 244.822C190.405 243.92 190.06 242.742 190.06 241.289V241.166ZM191.686 241.351C191.686 242.429 191.908 243.272 192.354 243.882C192.799 244.491 193.414 244.796 194.199 244.796C195.23 244.796 195.983 244.333 196.458 243.407V239.039C195.972 238.143 195.225 237.694 194.217 237.694C193.42 237.694 192.799 238.002 192.354 238.617C191.908 239.232 191.686 240.144 191.686 241.351ZM202.382 246H200.756V232.5H202.382V246ZM210.863 246C210.77 245.812 210.693 245.479 210.635 244.998C209.879 245.783 208.977 246.176 207.928 246.176C206.99 246.176 206.22 245.912 205.616 245.385C205.019 244.852 204.72 244.178 204.72 243.363C204.72 242.373 205.095 241.605 205.845 241.061C206.601 240.51 207.661 240.234 209.026 240.234H210.608V239.487C210.608 238.919 210.438 238.468 210.099 238.134C209.759 237.794 209.258 237.624 208.596 237.624C208.016 237.624 207.529 237.771 207.137 238.063C206.744 238.356 206.548 238.711 206.548 239.127H204.913C204.913 238.652 205.08 238.195 205.414 237.756C205.754 237.311 206.211 236.959 206.785 236.701C207.365 236.443 208.001 236.314 208.692 236.314C209.788 236.314 210.646 236.59 211.268 237.141C211.889 237.686 212.211 238.438 212.234 239.399V243.776C212.234 244.649 212.346 245.344 212.568 245.859V246H210.863ZM208.165 244.761C208.675 244.761 209.158 244.629 209.615 244.365C210.072 244.102 210.403 243.759 210.608 243.337V241.386H209.334C207.342 241.386 206.346 241.969 206.346 243.135C206.346 243.645 206.516 244.043 206.855 244.33C207.195 244.617 207.632 244.761 208.165 244.761ZM228.916 241.939C228.758 243.293 228.257 244.339 227.413 245.077C226.575 245.81 225.459 246.176 224.064 246.176C222.553 246.176 221.34 245.634 220.426 244.55C219.518 243.466 219.063 242.016 219.063 240.199V238.969C219.063 237.779 219.274 236.733 219.696 235.831C220.124 234.929 220.728 234.237 221.507 233.757C222.286 233.271 223.188 233.027 224.214 233.027C225.573 233.027 226.663 233.408 227.483 234.17C228.304 234.926 228.781 235.975 228.916 237.316H227.22C227.073 236.297 226.754 235.559 226.262 235.102C225.775 234.645 225.093 234.416 224.214 234.416C223.136 234.416 222.289 234.814 221.674 235.611C221.064 236.408 220.76 237.542 220.76 239.013V240.252C220.76 241.641 221.05 242.745 221.63 243.565C222.21 244.386 223.021 244.796 224.064 244.796C225.002 244.796 225.72 244.585 226.218 244.163C226.722 243.735 227.056 242.994 227.22 241.939H228.916ZM232.739 246H231.113V236.49H232.739V246ZM230.981 233.968C230.981 233.704 231.061 233.481 231.219 233.3C231.383 233.118 231.623 233.027 231.939 233.027C232.256 233.027 232.496 233.118 232.66 233.3C232.824 233.481 232.906 233.704 232.906 233.968C232.906 234.231 232.824 234.451 232.66 234.627C232.496 234.803 232.256 234.891 231.939 234.891C231.623 234.891 231.383 234.803 231.219 234.627C231.061 234.451 230.981 234.231 230.981 233.968ZM239.296 246.176C238.007 246.176 236.958 245.754 236.149 244.91C235.341 244.061 234.937 242.927 234.937 241.509V241.21C234.937 240.267 235.115 239.426 235.473 238.688C235.836 237.943 236.34 237.363 236.984 236.947C237.635 236.525 238.338 236.314 239.094 236.314C240.33 236.314 241.291 236.722 241.977 237.536C242.662 238.351 243.005 239.517 243.005 241.034V241.711H236.562C236.586 242.648 236.858 243.407 237.38 243.987C237.907 244.562 238.575 244.849 239.384 244.849C239.958 244.849 240.444 244.731 240.843 244.497C241.241 244.263 241.59 243.952 241.889 243.565L242.882 244.339C242.085 245.563 240.89 246.176 239.296 246.176ZM239.094 237.65C238.438 237.65 237.887 237.891 237.441 238.371C236.996 238.846 236.721 239.514 236.615 240.375H241.379V240.252C241.332 239.426 241.109 238.787 240.711 238.336C240.312 237.879 239.773 237.65 239.094 237.65ZM252.945 241.351C252.945 242.804 252.611 243.973 251.943 244.857C251.275 245.736 250.379 246.176 249.254 246.176C248.053 246.176 247.124 245.751 246.468 244.901L246.389 246H244.895V232.5H246.521V237.536C247.177 236.722 248.082 236.314 249.236 236.314C250.391 236.314 251.296 236.751 251.952 237.624C252.614 238.497 252.945 239.692 252.945 241.21V241.351ZM251.319 241.166C251.319 240.059 251.105 239.203 250.678 238.6C250.25 237.996 249.635 237.694 248.832 237.694C247.76 237.694 246.989 238.192 246.521 239.188V243.302C247.019 244.298 247.795 244.796 248.85 244.796C249.629 244.796 250.235 244.494 250.669 243.891C251.103 243.287 251.319 242.379 251.319 241.166ZM256.769 246H255.143V236.49H256.769V246ZM255.011 233.968C255.011 233.704 255.09 233.481 255.248 233.3C255.412 233.118 255.652 233.027 255.969 233.027C256.285 233.027 256.525 233.118 256.689 233.3C256.854 233.481 256.936 233.704 256.936 233.968C256.936 234.231 256.854 234.451 256.689 234.627C256.525 234.803 256.285 234.891 255.969 234.891C255.652 234.891 255.412 234.803 255.248 234.627C255.09 234.451 255.011 234.231 255.011 233.968ZM263.325 246.176C262.036 246.176 260.987 245.754 260.179 244.91C259.37 244.061 258.966 242.927 258.966 241.509V241.21C258.966 240.267 259.145 239.426 259.502 238.688C259.865 237.943 260.369 237.363 261.014 236.947C261.664 236.525 262.367 236.314 263.123 236.314C264.359 236.314 265.32 236.722 266.006 237.536C266.691 238.351 267.034 239.517 267.034 241.034V241.711H260.592C260.615 242.648 260.888 243.407 261.409 243.987C261.937 244.562 262.604 244.849 263.413 244.849C263.987 244.849 264.474 244.731 264.872 244.497C265.271 244.263 265.619 243.952 265.918 243.565L266.911 244.339C266.114 245.563 264.919 246.176 263.325 246.176ZM263.123 237.65C262.467 237.65 261.916 237.891 261.471 238.371C261.025 238.846 260.75 239.514 260.645 240.375H265.408V240.252C265.361 239.426 265.139 238.787 264.74 238.336C264.342 237.879 263.803 237.65 263.123 237.65ZM281.439 241.351C281.439 242.804 281.105 243.973 280.438 244.857C279.77 245.736 278.873 246.176 277.748 246.176C276.547 246.176 275.618 245.751 274.962 244.901L274.883 246H273.389V232.5H275.015V237.536C275.671 236.722 276.576 236.314 277.73 236.314C278.885 236.314 279.79 236.751 280.446 237.624C281.108 238.497 281.439 239.692 281.439 241.21V241.351ZM279.813 241.166C279.813 240.059 279.6 239.203 279.172 238.6C278.744 237.996 278.129 237.694 277.326 237.694C276.254 237.694 275.483 238.192 275.015 239.188V243.302C275.513 244.298 276.289 244.796 277.344 244.796C278.123 244.796 278.729 244.494 279.163 243.891C279.597 243.287 279.813 242.379 279.813 241.166ZM287.442 246.176C286.153 246.176 285.104 245.754 284.296 244.91C283.487 244.061 283.083 242.927 283.083 241.509V241.21C283.083 240.267 283.262 239.426 283.619 238.688C283.982 237.943 284.486 237.363 285.131 236.947C285.781 236.525 286.484 236.314 287.24 236.314C288.477 236.314 289.438 236.722 290.123 237.536C290.809 238.351 291.151 239.517 291.151 241.034V241.711H284.709C284.732 242.648 285.005 243.407 285.526 243.987C286.054 244.562 286.722 244.849 287.53 244.849C288.104 244.849 288.591 244.731 288.989 244.497C289.388 244.263 289.736 243.952 290.035 243.565L291.028 244.339C290.231 245.563 289.036 246.176 287.442 246.176ZM287.24 237.65C286.584 237.65 286.033 237.891 285.588 238.371C285.143 238.846 284.867 239.514 284.762 240.375H289.525V240.252C289.479 239.426 289.256 238.787 288.857 238.336C288.459 237.879 287.92 237.65 287.24 237.65ZM294.57 244.673H300.134V246H292.584V244.805L297.831 237.835H292.663V236.49H299.87V237.642L294.57 244.673ZM310.004 241.351C310.004 242.798 309.673 243.964 309.011 244.849C308.349 245.733 307.452 246.176 306.321 246.176C305.167 246.176 304.259 245.81 303.597 245.077V249.656H301.971V236.49H303.456L303.535 237.545C304.197 236.725 305.117 236.314 306.295 236.314C307.438 236.314 308.34 236.745 309.002 237.606C309.67 238.468 310.004 239.666 310.004 241.201V241.351ZM308.378 241.166C308.378 240.094 308.149 239.247 307.692 238.626C307.235 238.005 306.608 237.694 305.812 237.694C304.827 237.694 304.089 238.131 303.597 239.004V243.548C304.083 244.415 304.827 244.849 305.829 244.849C306.608 244.849 307.227 244.541 307.684 243.926C308.146 243.305 308.378 242.385 308.378 241.166ZM314.047 238.362L315.436 237.826V238.907L314.047 239.443V246H312.412V240.067L311.146 240.551V239.47L312.412 238.986V232.5H314.047V238.362ZM322.818 246C322.725 245.812 322.648 245.479 322.59 244.998C321.834 245.783 320.932 246.176 319.883 246.176C318.945 246.176 318.175 245.912 317.571 245.385C316.974 244.852 316.675 244.178 316.675 243.363C316.675 242.373 317.05 241.605 317.8 241.061C318.556 240.51 319.616 240.234 320.981 240.234H322.563V239.487C322.563 238.919 322.394 238.468 322.054 238.134C321.714 237.794 321.213 237.624 320.551 237.624C319.971 237.624 319.484 237.771 319.092 238.063C318.699 238.356 318.503 238.711 318.503 239.127H316.868C316.868 238.652 317.035 238.195 317.369 237.756C317.709 237.311 318.166 236.959 318.74 236.701C319.32 236.443 319.956 236.314 320.647 236.314C321.743 236.314 322.602 236.59 323.223 237.141C323.844 237.686 324.166 238.438 324.189 239.399V243.776C324.189 244.649 324.301 245.344 324.523 245.859V246H322.818ZM320.12 244.761C320.63 244.761 321.113 244.629 321.57 244.365C322.027 244.102 322.358 243.759 322.563 243.337V241.386H321.289C319.297 241.386 318.301 241.969 318.301 243.135C318.301 243.645 318.471 244.043 318.811 244.33C319.15 244.617 319.587 244.761 320.12 244.761ZM328.944 234.188V236.49H330.72V237.747H328.944V243.645C328.944 244.025 329.023 244.312 329.182 244.506C329.34 244.693 329.609 244.787 329.99 244.787C330.178 244.787 330.436 244.752 330.764 244.682V246C330.336 246.117 329.92 246.176 329.516 246.176C328.789 246.176 328.241 245.956 327.872 245.517C327.503 245.077 327.318 244.453 327.318 243.645V237.747H325.587V236.49H327.318V234.188H328.944ZM334.165 236.49L334.218 237.686C334.944 236.771 335.894 236.314 337.065 236.314C339.075 236.314 340.089 237.448 340.106 239.716V246H338.48V239.707C338.475 239.021 338.316 238.515 338.006 238.187C337.701 237.858 337.224 237.694 336.573 237.694C336.046 237.694 335.583 237.835 335.185 238.116C334.786 238.397 334.476 238.767 334.253 239.224V246H332.627V236.49H334.165ZM345.67 243.618L347.885 236.49H349.625L345.802 247.468C345.21 249.05 344.27 249.841 342.98 249.841L342.673 249.814L342.066 249.7V248.382L342.506 248.417C343.057 248.417 343.484 248.306 343.789 248.083C344.1 247.86 344.354 247.453 344.554 246.861L344.914 245.895L341.521 236.49H343.297L345.67 243.618ZM126.102 272C126.008 271.812 125.932 271.479 125.873 270.998C125.117 271.783 124.215 272.176 123.166 272.176C122.229 272.176 121.458 271.912 120.854 271.385C120.257 270.852 119.958 270.178 119.958 269.363C119.958 268.373 120.333 267.605 121.083 267.061C121.839 266.51 122.899 266.234 124.265 266.234H125.847V265.487C125.847 264.919 125.677 264.468 125.337 264.134C124.997 263.794 124.496 263.624 123.834 263.624C123.254 263.624 122.768 263.771 122.375 264.063C121.982 264.356 121.786 264.711 121.786 265.127H120.151C120.151 264.652 120.318 264.195 120.652 263.756C120.992 263.311 121.449 262.959 122.023 262.701C122.604 262.443 123.239 262.314 123.931 262.314C125.026 262.314 125.885 262.59 126.506 263.141C127.127 263.686 127.449 264.438 127.473 265.399V269.776C127.473 270.649 127.584 271.344 127.807 271.859V272H126.102ZM123.403 270.761C123.913 270.761 124.396 270.629 124.854 270.365C125.311 270.102 125.642 269.759 125.847 269.337V267.386H124.572C122.58 267.386 121.584 267.969 121.584 269.135C121.584 269.645 121.754 270.043 122.094 270.33C122.434 270.617 122.87 270.761 123.403 270.761ZM135.893 271.06C135.26 271.804 134.331 272.176 133.106 272.176C132.093 272.176 131.319 271.883 130.786 271.297C130.259 270.705 129.992 269.832 129.986 268.678V262.49H131.612V268.634C131.612 270.075 132.198 270.796 133.37 270.796C134.612 270.796 135.438 270.333 135.849 269.407V262.49H137.475V272H135.928L135.893 271.06ZM139.558 267.166C139.558 265.707 139.903 264.535 140.595 263.65C141.286 262.76 142.191 262.314 143.311 262.314C144.424 262.314 145.306 262.695 145.956 263.457V258.5H147.582V272H146.088L146.009 270.98C145.358 271.777 144.453 272.176 143.293 272.176C142.191 272.176 141.292 271.725 140.595 270.822C139.903 269.92 139.558 268.742 139.558 267.289V267.166ZM141.184 267.351C141.184 268.429 141.406 269.272 141.852 269.882C142.297 270.491 142.912 270.796 143.697 270.796C144.729 270.796 145.481 270.333 145.956 269.407V265.039C145.47 264.143 144.723 263.694 143.715 263.694C142.918 263.694 142.297 264.002 141.852 264.617C141.406 265.232 141.184 266.144 141.184 267.351ZM153.225 269.618L155.439 262.49H157.18L153.356 273.468C152.765 275.05 151.824 275.841 150.535 275.841L150.228 275.814L149.621 275.7V274.382L150.061 274.417C150.611 274.417 151.039 274.306 151.344 274.083C151.654 273.86 151.909 273.453 152.108 272.861L152.469 271.895L149.076 262.49H150.852L153.225 269.618ZM160.845 260.188V262.49H162.62V263.747H160.845V269.645C160.845 270.025 160.924 270.312 161.082 270.506C161.24 270.693 161.51 270.787 161.891 270.787C162.078 270.787 162.336 270.752 162.664 270.682V272C162.236 272.117 161.82 272.176 161.416 272.176C160.689 272.176 160.142 271.956 159.772 271.517C159.403 271.077 159.219 270.453 159.219 269.645V263.747H157.487V262.49H159.219V260.188H160.845ZM166.347 268.388H164.879L164.765 259.203H166.47L166.347 268.388ZM164.703 271.183C164.703 270.919 164.782 270.699 164.94 270.523C165.104 270.342 165.345 270.251 165.661 270.251C165.978 270.251 166.218 270.342 166.382 270.523C166.546 270.699 166.628 270.919 166.628 271.183C166.628 271.446 166.546 271.666 166.382 271.842C166.218 272.012 165.978 272.097 165.661 272.097C165.345 272.097 165.104 272.012 164.94 271.842C164.782 271.666 164.703 271.446 164.703 271.183ZM175.153 270.62H182.475V272H173.158V270.734L180.172 260.592H173.272V259.203H182.193V260.442L175.153 270.62ZM190.279 272C190.186 271.812 190.109 271.479 190.051 270.998C189.295 271.783 188.393 272.176 187.344 272.176C186.406 272.176 185.636 271.912 185.032 271.385C184.435 270.852 184.136 270.178 184.136 269.363C184.136 268.373 184.511 267.605 185.261 267.061C186.017 266.51 187.077 266.234 188.442 266.234H190.024V265.487C190.024 264.919 189.854 264.468 189.515 264.134C189.175 263.794 188.674 263.624 188.012 263.624C187.432 263.624 186.945 263.771 186.553 264.063C186.16 264.356 185.964 264.711 185.964 265.127H184.329C184.329 264.652 184.496 264.195 184.83 263.756C185.17 263.311 185.627 262.959 186.201 262.701C186.781 262.443 187.417 262.314 188.108 262.314C189.204 262.314 190.062 262.59 190.684 263.141C191.305 263.686 191.627 264.438 191.65 265.399V269.776C191.65 270.649 191.762 271.344 191.984 271.859V272H190.279ZM187.581 270.761C188.091 270.761 188.574 270.629 189.031 270.365C189.488 270.102 189.819 269.759 190.024 269.337V267.386H188.75C186.758 267.386 185.762 267.969 185.762 269.135C185.762 269.645 185.932 270.043 186.271 270.33C186.611 270.617 187.048 270.761 187.581 270.761ZM195.966 272H194.34V262.49H195.966V272ZM194.208 259.968C194.208 259.704 194.287 259.481 194.445 259.3C194.609 259.118 194.85 259.027 195.166 259.027C195.482 259.027 195.723 259.118 195.887 259.3C196.051 259.481 196.133 259.704 196.133 259.968C196.133 260.231 196.051 260.451 195.887 260.627C195.723 260.803 195.482 260.891 195.166 260.891C194.85 260.891 194.609 260.803 194.445 260.627C194.287 260.451 194.208 260.231 194.208 259.968ZM200.114 262.49L200.167 263.686C200.894 262.771 201.843 262.314 203.015 262.314C205.024 262.314 206.038 263.448 206.056 265.716V272H204.43V265.707C204.424 265.021 204.266 264.515 203.955 264.187C203.65 263.858 203.173 263.694 202.522 263.694C201.995 263.694 201.532 263.835 201.134 264.116C200.735 264.397 200.425 264.767 200.202 265.224V272H198.576V262.49H200.114ZM210.714 260.188V262.49H212.489V263.747H210.714V269.645C210.714 270.025 210.793 270.312 210.951 270.506C211.109 270.693 211.379 270.787 211.76 270.787C211.947 270.787 212.205 270.752 212.533 270.682V272C212.105 272.117 211.689 272.176 211.285 272.176C210.559 272.176 210.011 271.956 209.642 271.517C209.272 271.077 209.088 270.453 209.088 269.645V263.747H207.356V262.49H209.088V260.188H210.714ZM218.343 272.176C217.054 272.176 216.005 271.754 215.196 270.91C214.388 270.061 213.983 268.927 213.983 267.509V267.21C213.983 266.267 214.162 265.426 214.52 264.688C214.883 263.943 215.387 263.363 216.031 262.947C216.682 262.525 217.385 262.314 218.141 262.314C219.377 262.314 220.338 262.722 221.023 263.536C221.709 264.351 222.052 265.517 222.052 267.034V267.711H215.609C215.633 268.648 215.905 269.407 216.427 269.987C216.954 270.562 217.622 270.849 218.431 270.849C219.005 270.849 219.491 270.731 219.89 270.497C220.288 270.263 220.637 269.952 220.936 269.565L221.929 270.339C221.132 271.563 219.937 272.176 218.343 272.176ZM218.141 263.65C217.484 263.65 216.934 263.891 216.488 264.371C216.043 264.846 215.768 265.514 215.662 266.375H220.426V266.252C220.379 265.426 220.156 264.787 219.758 264.336C219.359 263.879 218.82 263.65 218.141 263.65ZM228.538 263.949C228.292 263.908 228.025 263.888 227.738 263.888C226.672 263.888 225.948 264.342 225.567 265.25V272H223.941V262.49H225.523L225.55 263.589C226.083 262.739 226.839 262.314 227.817 262.314C228.134 262.314 228.374 262.355 228.538 262.438V263.949ZM233.812 272.176C232.522 272.176 231.474 271.754 230.665 270.91C229.856 270.061 229.452 268.927 229.452 267.509V267.21C229.452 266.267 229.631 265.426 229.988 264.688C230.352 263.943 230.855 263.363 231.5 262.947C232.15 262.525 232.854 262.314 233.609 262.314C234.846 262.314 235.807 262.722 236.492 263.536C237.178 264.351 237.521 265.517 237.521 267.034V267.711H231.078C231.102 268.648 231.374 269.407 231.896 269.987C232.423 270.562 233.091 270.849 233.899 270.849C234.474 270.849 234.96 270.731 235.358 270.497C235.757 270.263 236.105 269.952 236.404 269.565L237.397 270.339C236.601 271.563 235.405 272.176 233.812 272.176ZM233.609 263.65C232.953 263.65 232.402 263.891 231.957 264.371C231.512 264.846 231.236 265.514 231.131 266.375H235.895V266.252C235.848 265.426 235.625 264.787 235.227 264.336C234.828 263.879 234.289 263.65 233.609 263.65ZM244.947 269.478C244.947 269.038 244.78 268.698 244.446 268.458C244.118 268.212 243.541 268.001 242.715 267.825C241.895 267.649 241.241 267.438 240.755 267.192C240.274 266.946 239.917 266.653 239.683 266.313C239.454 265.974 239.34 265.569 239.34 265.101C239.34 264.321 239.668 263.662 240.324 263.123C240.986 262.584 241.83 262.314 242.855 262.314C243.934 262.314 244.807 262.593 245.475 263.149C246.148 263.706 246.485 264.418 246.485 265.285H244.851C244.851 264.84 244.66 264.456 244.279 264.134C243.904 263.812 243.43 263.65 242.855 263.65C242.264 263.65 241.801 263.779 241.467 264.037C241.133 264.295 240.966 264.632 240.966 265.048C240.966 265.44 241.121 265.736 241.432 265.936C241.742 266.135 242.302 266.325 243.11 266.507C243.925 266.688 244.584 266.905 245.088 267.157C245.592 267.409 245.964 267.714 246.204 268.071C246.45 268.423 246.573 268.854 246.573 269.363C246.573 270.213 246.233 270.896 245.554 271.411C244.874 271.921 243.992 272.176 242.908 272.176C242.146 272.176 241.473 272.041 240.887 271.771C240.301 271.502 239.841 271.127 239.507 270.646C239.179 270.16 239.015 269.636 239.015 269.073H240.641C240.67 269.618 240.887 270.052 241.291 270.374C241.701 270.69 242.24 270.849 242.908 270.849C243.523 270.849 244.016 270.726 244.385 270.479C244.76 270.228 244.947 269.894 244.947 269.478ZM248.261 267.157C248.261 266.226 248.442 265.388 248.806 264.644C249.175 263.899 249.685 263.325 250.335 262.921C250.991 262.517 251.738 262.314 252.576 262.314C253.871 262.314 254.917 262.763 255.714 263.659C256.517 264.556 256.918 265.748 256.918 267.236V267.351C256.918 268.276 256.739 269.108 256.382 269.847C256.03 270.579 255.523 271.15 254.861 271.561C254.205 271.971 253.449 272.176 252.594 272.176C251.305 272.176 250.259 271.728 249.456 270.831C248.659 269.935 248.261 268.748 248.261 267.271V267.157ZM249.896 267.351C249.896 268.405 250.139 269.252 250.625 269.891C251.117 270.529 251.773 270.849 252.594 270.849C253.42 270.849 254.076 270.526 254.562 269.882C255.049 269.231 255.292 268.323 255.292 267.157C255.292 266.114 255.043 265.271 254.545 264.626C254.053 263.976 253.396 263.65 252.576 263.65C251.773 263.65 251.126 263.97 250.634 264.608C250.142 265.247 249.896 266.161 249.896 267.351ZM267.377 269.759L269.205 262.49H270.831L268.062 272H266.744L264.433 264.793L262.183 272H260.864L258.104 262.49H259.722L261.594 269.609L263.809 262.49H265.118L267.377 269.759ZM278.363 272C278.27 271.812 278.193 271.479 278.135 270.998C277.379 271.783 276.477 272.176 275.428 272.176C274.49 272.176 273.72 271.912 273.116 271.385C272.519 270.852 272.22 270.178 272.22 269.363C272.22 268.373 272.595 267.605 273.345 267.061C274.101 266.51 275.161 266.234 276.526 266.234H278.108V265.487C278.108 264.919 277.938 264.468 277.599 264.134C277.259 263.794 276.758 263.624 276.096 263.624C275.516 263.624 275.029 263.771 274.637 264.063C274.244 264.356 274.048 264.711 274.048 265.127H272.413C272.413 264.652 272.58 264.195 272.914 263.756C273.254 263.311 273.711 262.959 274.285 262.701C274.865 262.443 275.501 262.314 276.192 262.314C277.288 262.314 278.146 262.59 278.768 263.141C279.389 263.686 279.711 264.438 279.734 265.399V269.776C279.734 270.649 279.846 271.344 280.068 271.859V272H278.363ZM275.665 270.761C276.175 270.761 276.658 270.629 277.115 270.365C277.572 270.102 277.903 269.759 278.108 269.337V267.386H276.834C274.842 267.386 273.846 267.969 273.846 269.135C273.846 269.645 274.016 270.043 274.355 270.33C274.695 270.617 275.132 270.761 275.665 270.761ZM283.821 262.49L283.874 263.686C284.601 262.771 285.55 262.314 286.722 262.314C288.731 262.314 289.745 263.448 289.763 265.716V272H288.137V265.707C288.131 265.021 287.973 264.515 287.662 264.187C287.357 263.858 286.88 263.694 286.229 263.694C285.702 263.694 285.239 263.835 284.841 264.116C284.442 264.397 284.132 264.767 283.909 265.224V272H282.283V262.49H283.821ZM295.326 269.618L297.541 262.49H299.281L295.458 273.468C294.866 275.05 293.926 275.841 292.637 275.841L292.329 275.814L291.723 275.7V274.382L292.162 274.417C292.713 274.417 293.141 274.306 293.445 274.083C293.756 273.86 294.011 273.453 294.21 272.861L294.57 271.895L291.178 262.49H292.953L295.326 269.618ZM302.647 268.396C302.659 267.699 302.738 267.148 302.885 266.744C303.031 266.34 303.33 265.892 303.781 265.399L304.933 264.213C305.425 263.656 305.671 263.059 305.671 262.42C305.671 261.805 305.51 261.324 305.188 260.979C304.865 260.627 304.396 260.451 303.781 260.451C303.184 260.451 302.703 260.609 302.34 260.926C301.977 261.242 301.795 261.667 301.795 262.2H300.169C300.181 261.251 300.518 260.486 301.18 259.906C301.848 259.32 302.715 259.027 303.781 259.027C304.889 259.027 305.75 259.326 306.365 259.924C306.986 260.516 307.297 261.33 307.297 262.367C307.297 263.393 306.822 264.403 305.873 265.399L304.915 266.349C304.487 266.823 304.273 267.506 304.273 268.396H302.647ZM302.577 271.183C302.577 270.919 302.656 270.699 302.814 270.523C302.979 270.342 303.219 270.251 303.535 270.251C303.852 270.251 304.092 270.342 304.256 270.523C304.42 270.699 304.502 270.919 304.502 271.183C304.502 271.446 304.42 271.666 304.256 271.842C304.092 272.012 303.852 272.097 303.535 272.097C303.219 272.097 302.979 272.012 302.814 271.842C302.656 271.666 302.577 271.446 302.577 271.183Z" fill="white"/>
<circle cx="19" cy="159" r="19" fill="#EAEAEA"/>
<path d="M16 158.75C15.31 158.75 14.75 159.31 14.75 160C14.75 160.69 15.31 161.25 16 161.25C16.69 161.25 17.25 160.69 17.25 160C17.25 159.31 16.69 158.75 16 158.75ZM22 158.75C21.31 158.75 20.75 159.31 20.75 160C20.75 160.69 21.31 161.25 22 161.25C22.69 161.25 23.25 160.69 23.25 160C23.25 159.31 22.69 158.75 22 158.75ZM19 149C13.48 149 9 153.48 9 159C9 164.52 13.48 169 19 169C24.52 169 29 164.52 29 159C29 153.48 24.52 149 19 149ZM19 167C14.59 167 11 163.41 11 159C11 158.71 11.02 158.42 11.05 158.14C13.41 157.09 15.28 155.16 16.26 152.77C18.07 155.33 21.05 157 24.42 157C25.2 157 25.95 156.91 26.67 156.74C26.88 157.45 27 158.21 27 159C27 163.41 23.41 167 19 167Z" fill="black"/>
<path d="M221.33 120C232.745 120 242 129.254 242 140.67V156.942C242 168.358 232.745 177.612 221.33 177.612H74.8021C69.6339 177.612 64.8505 175.965 60.9481 173.167C59.4764 174.328 57.2882 175.693 54.2544 176.887C50.4957 178.366 44.8791 178.016 42.9998 177.81C50.8303 173.496 50.998 169.183 50.998 167.333C50.9713 166.1 50.998 153.773 50.998 153.773L50.9999 153.773V140.67C50.9999 129.254 60.2543 120 71.6702 120H221.33Z" fill="#EAEAEA"/>
<path d="M86.1729 150.09V155.1H84.4854V142.303H89.2051C90.6055 142.303 91.7012 142.661 92.4922 143.375C93.2891 144.09 93.6875 145.037 93.6875 146.214C93.6875 147.457 93.2979 148.415 92.5186 149.088C91.7451 149.756 90.6348 150.09 89.1875 150.09H86.1729ZM86.1729 148.71H89.2051C90.1074 148.71 90.7988 148.5 91.2793 148.078C91.7598 147.65 92 147.035 92 146.232C92 145.47 91.7598 144.861 91.2793 144.404C90.7988 143.947 90.1396 143.709 89.3018 143.692H86.1729V148.71ZM99.4092 155.276C98.1201 155.276 97.0713 154.854 96.2627 154.01C95.4541 153.161 95.0498 152.027 95.0498 150.609V150.31C95.0498 149.367 95.2285 148.526 95.5859 147.788C95.9492 147.043 96.4531 146.463 97.0977 146.047C97.748 145.625 98.4512 145.415 99.207 145.415C100.443 145.415 101.404 145.822 102.09 146.636C102.775 147.451 103.118 148.617 103.118 150.134V150.811H96.6758C96.6992 151.749 96.9717 152.507 97.4932 153.087C98.0205 153.662 98.6885 153.949 99.4971 153.949C100.071 153.949 100.558 153.832 100.956 153.597C101.354 153.363 101.703 153.052 102.002 152.666L102.995 153.439C102.198 154.664 101.003 155.276 99.4092 155.276ZM99.207 146.75C98.5508 146.75 98 146.991 97.5547 147.471C97.1094 147.946 96.834 148.614 96.7285 149.475H101.492V149.352C101.445 148.526 101.223 147.887 100.824 147.436C100.426 146.979 99.8867 146.75 99.207 146.75ZM113.428 152.859L115.256 145.59H116.882L114.113 155.1H112.795L110.483 147.893L108.233 155.1H106.915L104.155 145.59H105.772L107.645 152.709L109.859 145.59H111.169L113.428 152.859ZM120.081 145.59L120.134 146.786C120.86 145.872 121.81 145.415 122.981 145.415C124.991 145.415 126.005 146.548 126.022 148.816V155.1H124.396V148.807C124.391 148.122 124.232 147.615 123.922 147.287C123.617 146.958 123.14 146.794 122.489 146.794C121.962 146.794 121.499 146.935 121.101 147.216C120.702 147.498 120.392 147.867 120.169 148.324V155.1H118.543V145.59H120.081ZM130.241 155.1H128.615V145.59H130.241V155.1ZM128.483 143.068C128.483 142.804 128.562 142.582 128.721 142.4C128.885 142.218 129.125 142.127 129.441 142.127C129.758 142.127 129.998 142.218 130.162 142.4C130.326 142.582 130.408 142.804 130.408 143.068C130.408 143.332 130.326 143.551 130.162 143.727C129.998 143.903 129.758 143.991 129.441 143.991C129.125 143.991 128.885 143.903 128.721 143.727C128.562 143.551 128.483 143.332 128.483 143.068ZM136.798 155.276C135.509 155.276 134.46 154.854 133.651 154.01C132.843 153.161 132.438 152.027 132.438 150.609V150.31C132.438 149.367 132.617 148.526 132.975 147.788C133.338 147.043 133.842 146.463 134.486 146.047C135.137 145.625 135.84 145.415 136.596 145.415C137.832 145.415 138.793 145.822 139.479 146.636C140.164 147.451 140.507 148.617 140.507 150.134V150.811H134.064C134.088 151.749 134.36 152.507 134.882 153.087C135.409 153.662 136.077 153.949 136.886 153.949C137.46 153.949 137.946 153.832 138.345 153.597C138.743 153.363 139.092 153.052 139.391 152.666L140.384 153.439C139.587 154.664 138.392 155.276 136.798 155.276ZM136.596 146.75C135.939 146.75 135.389 146.991 134.943 147.471C134.498 147.946 134.223 148.614 134.117 149.475H138.881V149.352C138.834 148.526 138.611 147.887 138.213 147.436C137.814 146.979 137.275 146.75 136.596 146.75ZM142.344 157.649L141.421 157.016C141.972 156.249 142.259 155.458 142.282 154.643V153.175H143.873V154.45C143.873 155.042 143.727 155.633 143.434 156.225C143.146 156.817 142.783 157.292 142.344 157.649ZM151.924 153.773H157.487V155.1H149.938V153.905L155.185 146.935H150.017V145.59H157.224V146.742L151.924 153.773ZM163.13 155.276C161.841 155.276 160.792 154.854 159.983 154.01C159.175 153.161 158.771 152.027 158.771 150.609V150.31C158.771 149.367 158.949 148.526 159.307 147.788C159.67 147.043 160.174 146.463 160.818 146.047C161.469 145.625 162.172 145.415 162.928 145.415C164.164 145.415 165.125 145.822 165.811 146.636C166.496 147.451 166.839 148.617 166.839 150.134V150.811H160.396C160.42 151.749 160.692 152.507 161.214 153.087C161.741 153.662 162.409 153.949 163.218 153.949C163.792 153.949 164.278 153.832 164.677 153.597C165.075 153.363 165.424 153.052 165.723 152.666L166.716 153.439C165.919 154.664 164.724 155.276 163.13 155.276ZM162.928 146.75C162.271 146.75 161.721 146.991 161.275 147.471C160.83 147.946 160.555 148.614 160.449 149.475H165.213V149.352C165.166 148.526 164.943 147.887 164.545 147.436C164.146 146.979 163.607 146.75 162.928 146.75ZM175.399 143.288V145.59H177.175V146.847H175.399V152.745C175.399 153.125 175.479 153.413 175.637 153.606C175.795 153.793 176.064 153.887 176.445 153.887C176.633 153.887 176.891 153.852 177.219 153.782V155.1C176.791 155.217 176.375 155.276 175.971 155.276C175.244 155.276 174.696 155.056 174.327 154.617C173.958 154.177 173.773 153.553 173.773 152.745V146.847H172.042V145.59H173.773V143.288H175.399ZM184.953 155.1C184.859 154.913 184.783 154.579 184.725 154.098C183.969 154.883 183.066 155.276 182.018 155.276C181.08 155.276 180.31 155.012 179.706 154.485C179.108 153.952 178.81 153.278 178.81 152.463C178.81 151.473 179.185 150.706 179.935 150.161C180.69 149.61 181.751 149.334 183.116 149.334H184.698V148.587C184.698 148.019 184.528 147.568 184.188 147.234C183.849 146.894 183.348 146.724 182.686 146.724C182.105 146.724 181.619 146.871 181.227 147.164C180.834 147.457 180.638 147.811 180.638 148.227H179.003C179.003 147.752 179.17 147.295 179.504 146.856C179.844 146.411 180.301 146.059 180.875 145.801C181.455 145.543 182.091 145.415 182.782 145.415C183.878 145.415 184.736 145.69 185.357 146.241C185.979 146.786 186.301 147.539 186.324 148.5V152.876C186.324 153.75 186.436 154.444 186.658 154.959V155.1H184.953ZM182.255 153.861C182.765 153.861 183.248 153.729 183.705 153.465C184.162 153.202 184.493 152.859 184.698 152.437V150.486H183.424C181.432 150.486 180.436 151.069 180.436 152.235C180.436 152.745 180.605 153.143 180.945 153.43C181.285 153.717 181.722 153.861 182.255 153.861ZM191.527 150.697L190.508 151.76V155.1H188.882V141.6H190.508V149.765L191.378 148.719L194.34 145.59H196.317L192.617 149.563L196.748 155.1H194.841L191.527 150.697ZM199.815 151.488H198.348L198.233 142.303H199.938L199.815 151.488ZM198.172 154.283C198.172 154.019 198.251 153.799 198.409 153.624C198.573 153.442 198.813 153.351 199.13 153.351C199.446 153.351 199.687 153.442 199.851 153.624C200.015 153.799 200.097 154.019 200.097 154.283C200.097 154.546 200.015 154.766 199.851 154.942C199.687 155.112 199.446 155.197 199.13 155.197C198.813 155.197 198.573 155.112 198.409 154.942C198.251 154.766 198.172 154.546 198.172 154.283Z" fill="black"/>
</svg>
