<svg width="778" height="345" viewBox="0 0 778 345" fill="none" xmlns="http://www.w3.org/2000/svg">
<path d="M1 214.002C37.6357 255.88 121.966 325.471 254.443 325.471C369.827 325.471 404.269 260.548 379.394 203.841C365.985 173.275 332.407 162.271 310.216 180.747C284.424 202.221 345.012 261.629 425.381 251.421C496.361 242.406 589.834 196.329 665.813 119.199" stroke="black" stroke-width="2" stroke-linecap="round" stroke-dasharray="8 16"/>
<path d="M776.645 1C717.58 18.4342 598.526 53.3737 594.833 53.6584L645.257 73.2273L776.645 1Z" fill="white" stroke="black" stroke-width="2" stroke-linecap="round" stroke-linejoin="round"/>
<path d="M665.498 119.126L644.902 72.8715L775.934 1L671.889 82.4781L665.498 119.126Z" fill="black"/>
<path d="M666.208 118.77L683.963 99.5566L671.535 82.834L666.208 118.77Z" fill="white" stroke="black" stroke-width="2" stroke-linecap="round" stroke-linejoin="round"/>
<path d="M714.502 142.608L671.535 82.8339L777 1L714.502 142.608Z" fill="white" stroke="black" stroke-width="2" stroke-linecap="round" stroke-linejoin="round"/>
<path d="M610.35 77.7785L588.985 87.6195" stroke="black" stroke-width="2" stroke-linecap="round"/>
<path d="M627.042 82.1928L579.837 106.714" stroke="black" stroke-width="2" stroke-linecap="round"/>
<path d="M599.831 345C644.002 345 679.809 340.645 679.809 335.272C679.809 329.9 644.002 325.545 599.831 325.545C555.661 325.545 519.854 329.9 519.854 335.272C519.854 340.645 555.661 345 599.831 345Z" fill="#F6F6F6"/>
</svg>
