<svg width="454" height="399" viewBox="0 0 454 399" fill="none" xmlns="http://www.w3.org/2000/svg">
<path d="M345.942 398.25C405.621 398.25 454 388.837 454 377.226C454 365.614 405.621 356.201 345.942 356.201C286.263 356.201 237.884 365.614 237.884 377.226C237.884 388.837 286.263 398.25 345.942 398.25Z" fill="#F6F6F6"/>
<path d="M309.006 108.145H192.086V236.275H309.006V108.145Z" fill="#F6F6F6"/>
<path d="M317.382 100.768H200.462V228.899H317.382V100.768Z" stroke="black" stroke-width="2" stroke-miterlimit="10"/>
<path d="M211.7 108.928V206.847H306.635" stroke="black" stroke-width="2" stroke-miterlimit="10"/>
<path d="M238.376 173.163H222.685V206.847H238.376V173.163Z" fill="white" stroke="black" stroke-width="2"/>
<path d="M265.837 150.445H250.146V206.847H265.837V150.445Z" fill="white" stroke="black" stroke-width="2"/>
<path d="M293.298 123.028H277.606V206.847H293.298V123.028Z" fill="white" stroke="black" stroke-width="2"/>
<path d="M216.665 214.444H210.361V220.743H216.665V214.444Z" fill="white" stroke="black" stroke-width="2"/>
<path d="M225.772 214.444H219.468V220.743H225.772V214.444Z" fill="white" stroke="black" stroke-width="2"/>
<path d="M234.877 214.444H228.573V220.743H234.877V214.444Z" fill="white" stroke="black" stroke-width="2"/>
<path d="M373.358 344.266V359.642H360.992L362.916 344.266H373.358Z" fill="white" stroke="black" stroke-width="2"/>
<path d="M405.512 323.672L414.581 329.164L407.985 344.266L401.115 343.442L394.52 334.106L405.512 323.672Z" fill="white" stroke="black" stroke-width="2"/>
<path d="M359.893 354.227C359.893 354.227 367.587 345.166 374.183 354.227C374.183 354.227 374.732 364.936 379.404 367.132C386.841 372.44 381.877 378.116 375.282 378.39C368.687 378.665 362.519 379.184 360.558 374.875C359.381 371.435 359.773 370.567 358.519 369.329C354.673 367.132 358.519 361.915 358.519 361.915L359.893 354.227Z" fill="white" stroke="black" stroke-width="2"/>
<path d="M408.259 322.574C408.259 322.574 425.297 323.123 425.572 327.242C425.847 331.36 418.427 355.798 419.526 361.565C420.626 367.331 411.007 380.511 404.687 377.765C398.366 375.019 403.313 360.741 403.313 360.741C403.313 360.741 396.992 341.245 398.091 340.971C399.191 340.696 410.183 337.401 409.633 334.106C409.084 330.811 408.259 322.574 408.259 322.574Z" fill="white" stroke="black" stroke-width="2"/>
<path d="M359.841 343.583C357.095 341.233 370.331 293.901 370.724 274.317L380.698 282.616L387.348 294.235C384.837 327.136 380.566 332.183 377.887 343.583C377.446 345.461 371.767 347.03 369.257 346.716C366.118 346.325 362.588 345.933 359.841 343.583Z" fill="black"/>
<path d="M329.145 241.43C326.948 216.676 330.061 192.471 331.891 183.462C333.143 175.629 372.717 177.21 389.98 178.254C392.595 188.568 396.603 224.286 387.347 294.788C384.015 291.384 379.173 280.666 370.722 275.977C371.115 256.393 364.059 229.288 360.529 237.514C357.704 244.094 357.783 263.495 358.175 272.373C358.204 273.432 358.388 274.756 369.159 281.381C387.626 292.74 400.543 313.107 409.566 322.899C411.164 324.633 409.801 329.244 407.604 331.124C404.858 333.474 397.797 339.35 395.051 336.216C392.305 333.083 338.168 284.123 335.03 281.381C331.891 278.64 331.891 272.373 329.145 241.43Z" fill="black"/>
<path d="M402.926 357.642C403.71 357.511 406.064 355.37 406.064 352.55C406.064 349.73 402.403 351.245 400.964 351.767C402.141 351.506 405.123 349.182 404.495 346.675C403.867 344.168 400.311 346.022 399.003 346.675" stroke="black" stroke-width="2"/>
<path d="M368.404 359.601C365.58 359.601 364.089 358.034 362.912 358.034C361.343 358.034 361.735 361.559 362.912 362.734C364.089 363.909 365.658 364.301 369.189 364.301C372.013 364.301 374.681 362.995 375.465 362.343L374.288 358.034C373.504 358.556 371.229 359.601 368.404 359.601Z" stroke="black" stroke-width="2"/>
<path d="M368.796 364.301C365.972 364.301 364.339 363.517 363.162 363.517C361.593 363.517 362.519 366.651 363.696 367.826C364.873 369.001 366.835 369.392 370.365 369.001C373.172 368.689 376.642 366.912 377.426 366.259L375.465 362.342C374.68 362.865 371.621 364.301 368.796 364.301Z" stroke="black" stroke-width="2"/>
<path d="M408.026 378.01C410.38 374.876 415.166 367.904 415.479 365.084C415.872 361.559 415.479 359.601 417.049 353.334C418.618 347.067 424.894 326.7 422.541 325.133M357.42 365.868C358.989 366.259 360.166 367.826 361.343 369.784C362.798 372.206 362.52 374.093 365.266 374.876C368.012 375.66 372.719 376.443 378.212 374.876C380.475 374.231 381.742 371.743 382.527 370.959" stroke="black" stroke-width="2"/>
<path d="M352.757 77.3948C353.521 75.1552 352.227 70.6189 351.484 68.6307C357.32 67.1436 362.943 72.5269 369.787 66.5225C372.739 63.9322 375.357 79.8723 376.312 83.3212C373.871 84.7478 367.399 87.5806 361.033 87.4987C354.667 87.4169 350.423 84.7588 349.097 83.44C349.999 82.3581 351.993 79.6345 352.757 77.3948Z" fill="white" stroke="black" stroke-width="2"/>
<path d="M354.628 70.3487C365.736 70.3487 377.623 67.3273 381.71 55.3447C385.798 43.3621 380.299 30.6521 369.43 26.956C358.56 23.2599 346.435 29.9775 342.347 41.96C341.496 44.4551 342.965 47.7537 342.347 50.7947C342.135 52.268 341.114 52.6378 340.799 53.5611C339.137 55.3447 341.605 56.1322 343.127 56.1346C344.724 55.6474 343.771 67.9731 345.786 70.3487C348.004 72.9628 351.328 70.3487 354.628 70.3487Z" fill="white" stroke="black" stroke-width="2"/>
<path d="M348.374 39.2554C346.125 39.1751 344.435 39.6218 343.164 39.8009C342.453 39.901 342.047 38.1263 342.276 37.4464C342.67 36.277 342.979 34.8371 343.285 34.0335C343.417 33.6893 343.434 33.2413 343.234 32.9324C342.476 31.7646 341.723 30.2315 343 30.6658C344.86 31.2983 347.356 30.0664 350.477 28.5265C353.597 26.9866 354.833 27.9275 357.023 26.0713C359.213 24.2152 364.341 24.3982 370.386 26.4539C376.432 28.5096 380.435 33.5119 381.5 36.4749C382.565 39.438 381.53 38.8473 382.914 40.8782C384.297 42.9091 386.079 47.3947 384.048 48.7849C382.801 49.6385 382.739 50.1212 383.09 50.8002C383.62 51.8265 383.538 53.0158 382.889 53.9723C381.755 55.6444 380.393 58.14 379.432 60.915C379.102 61.8657 375.391 62.9748 375.399 61.9691C375.411 60.4126 374.799 59.1641 372.95 56.9751C371.102 54.7861 369.707 54.3117 370.82 51.049C371.933 47.7862 370.243 45.1312 368.848 44.6568C367.732 44.2773 365.561 43.3993 364.627 43.6018C364.166 42.9249 362.773 42.383 360.795 40.8782C358.323 38.9972 353.502 39.4384 348.374 39.2554Z" fill="black" stroke="black" stroke-width="1.41585"/>
<path d="M255.487 104.301C256.038 103.664 256.647 103.079 257.306 102.552C259.481 100.942 261.663 102.272 263.953 101.803C266.042 101.38 266.779 97.6208 267.473 95.9834C267.777 95.4445 267.9 94.8202 267.824 94.1992C262.287 94.8566 260.57 93.5756 255.008 92.8527C250.043 92.2069 240.517 95.5735 236.594 95.9841C234.93 96.1583 231.844 97.5322 230.279 98.092C229.362 98.4095 228.365 98.986 228.335 99.9386C228.296 101.132 235.405 100.442 236.594 100.703L239.732 100.703C241.925 101.009 246.538 99.9731 247.929 101.687C248.172 101.957 248.348 102.279 248.443 102.625C248.632 103.518 247.938 104.298 247.381 105.013C246.836 105.628 246.512 106.406 246.459 107.231C246.451 107.642 246.592 108.045 246.859 108.368C247.125 108.69 247.498 108.909 247.909 108.984C248.41 108.974 248.893 108.819 249.3 108.54L249.358 108.508C251.541 107.298 253.751 106.072 255.487 104.301Z" fill="white" stroke="black" stroke-width="2"/>
<path d="M305.637 107.361C297.788 106.966 282.099 103.836 261.7 103.836C259.738 101.704 255.907 90.6269 260.915 90.1269C280.53 88.1685 286.414 87.7768 295.045 87.7768C308.775 87.7768 331.455 88.0787 333.907 85.6103C335.87 83.6356 345.517 82.1546 348.624 81.6609C349.605 82.9774 350.488 85.6103 357.944 85.6103C365.401 85.6103 373.806 78.6989 377.076 75.2432C382.799 75.5723 395.521 76.7242 400.623 78.6989C407 81.1673 427.113 122.142 422.698 140.408C419.166 155.021 410.107 175.13 406.019 183.358C405.038 183.522 402.192 183.457 398.66 181.877C395.128 180.297 394.245 177.598 394.245 176.446C398.17 167.56 406.019 148.208 406.019 141.889C406.019 135.57 401.113 126.092 398.66 122.142C396.698 126.256 392.479 136.557 391.302 144.851C389.83 155.218 394.736 191.257 394.245 193.231C393.755 195.206 378.414 194.297 361.735 196.271C345.056 198.246 329.959 198.168 329.959 193.231C329.959 188.295 332.436 162.599 333.907 149.27C335.085 138.607 337.315 113.7 335.843 108.927C327.579 108.927 313.485 107.756 305.637 107.361Z" fill="white" stroke="black" stroke-width="2"/>
<path d="M382.319 179.314C380.254 179.802 376.559 183.428 374.97 185.18C372.381 187.778 375.922 188.802 377.529 188.047C379.136 187.292 381.593 184.178 383.468 184.954C385.344 185.73 383.105 187.386 384.545 191.08C385.697 194.036 389.625 199.294 391.446 201.554C393.108 199.316 396.909 194.313 398.816 192.211C401.201 189.583 404.886 185.4 403.788 182.751C397.877 181.276 396.871 178.124 394.923 177.834C393.406 179.099 392.704 180.463 391.087 180.62C389.066 180.816 384.9 178.704 382.319 179.314Z" fill="white" stroke="black" stroke-width="2"/>
<path d="M165.684 166.109H48.7637V294.24H165.684V166.109Z" fill="#F6F6F6"/>
<path d="M174.333 158.129H57.4121V286.26H174.333V158.129Z" stroke="black" stroke-width="2" stroke-miterlimit="10"/>
<path d="M69.844 271.805H63.54V278.104H69.844V271.805Z" fill="white" stroke="black" stroke-width="2"/>
<path d="M78.9505 271.805H72.6465V278.104H78.9505V271.805Z" fill="white" stroke="black" stroke-width="2"/>
<path d="M88.056 271.805H81.752V278.104H88.056V271.805Z" fill="white" stroke="black" stroke-width="2"/>
<path d="M141.204 246.794C146.141 241.917 149.504 235.703 150.866 228.938C152.229 222.173 151.529 215.161 148.857 208.788C146.185 202.416 141.66 196.969 135.853 193.137C130.047 189.305 123.221 187.259 116.238 187.259V222.134L141.204 246.794Z" fill="white" stroke="black" stroke-width="2"/>
<path d="M116.238 187.259C108.565 187.26 101.111 189.855 95.0525 194.634C88.9944 199.412 84.6776 206.103 82.7839 213.648C80.8901 221.194 81.5273 229.164 84.5948 236.302C87.6622 243.439 92.9852 249.336 99.723 253.061L116.238 222.291V187.259Z" fill="white" stroke="black" stroke-width="2"/>
<path d="M141.345 246.882L116.542 222.51L99.7617 252.785C106.413 256.341 114.057 257.687 121.551 256.624C129.046 255.56 135.989 252.143 141.345 246.882Z" fill="white" stroke="black" stroke-width="2"/>
<path d="M168.686 8.05029H0V136.52H168.686V8.05029Z" fill="#F6F6F6"/>
<path d="M174.179 1H5.49219V129.47H174.179V1Z" stroke="black" stroke-width="2" stroke-miterlimit="10"/>
<path d="M11.7695 8.83301V120.853H168.687" stroke="black" stroke-width="2"/>
<path d="M19.6143 113.803L30.1634 98.1994H45.6768L62.1211 77.5253H88.1837L107.11 56.071L138.137 47.0992L156.133 18.2334" stroke="black" stroke-width="2"/>
<ellipse cx="87.8737" cy="77.7687" rx="3.13835" ry="3.13341" fill="black"/>
<ellipse cx="107.488" cy="56.6183" rx="3.13835" ry="3.13341" fill="black"/>
<ellipse cx="138.088" cy="47.2179" rx="3.13835" ry="3.13341" fill="black"/>
<ellipse cx="155.348" cy="19.0172" rx="3.13835" ry="3.13341" fill="black"/>
<ellipse cx="61.9831" cy="77.7687" rx="3.13835" ry="3.13341" fill="black"/>
<ellipse cx="45.5055" cy="98.1359" rx="3.13835" ry="3.13341" fill="black"/>
<ellipse cx="30.5993" cy="98.1359" rx="3.13835" ry="3.13341" fill="black"/>
<ellipse cx="19.6149" cy="113.803" rx="3.13835" ry="3.13341" fill="black"/>
</svg>
