<svg width="360" height="412" viewBox="0 0 360 412" fill="none" xmlns="http://www.w3.org/2000/svg">
<path d="M153.5 412C238.276 412 307 403.941 307 394C307 384.059 238.276 376 153.5 376C68.7243 376 0 384.059 0 394C0 403.941 68.7243 412 153.5 412Z" fill="#F6F6F6"/>
<path d="M186.152 198.386L193.798 162.34H261.521L251.69 202.755H199.806L197.075 200.57L186.152 198.386Z" fill="#F6F6F6"/>
<path d="M109.692 365.508C109.255 364.197 112.786 361.32 114.061 360.046C115.699 360.41 117.993 361.248 118.43 361.684C118.976 362.231 119.522 364.961 122.799 367.146C126.076 369.331 127.714 372.607 127.168 373.154C126.622 373.7 124.984 373.154 119.522 371.515C114.061 369.877 110.238 367.146 109.692 365.508Z" fill="white" stroke="black" stroke-width="2"/>
<path d="M117.885 305.977C117.011 297.676 112.059 263.559 109.692 247.539L108.054 242.077H133.723C133.723 251.18 134.051 273.536 135.362 290.139C137 310.892 121.162 362.777 117.885 362.777C115.263 362.777 113.88 361.32 113.515 360.592C115.336 345.846 118.759 314.279 117.885 305.977Z" fill="black"/>
<path d="M110.238 104.448C109.364 111.876 109.874 117.01 110.238 118.648L152.838 176.54L162.122 184.732C163.943 182.73 167.037 176.758 164.853 168.894C162.122 159.063 154.476 150.871 151.199 140.494C147.922 130.117 152.838 120.286 155.568 112.64C158.299 104.994 160.484 94.6173 158.845 88.0634C157.207 81.5096 152.291 76.5943 145.191 75.502C138.091 74.4097 135.907 78.2328 132.084 79.3251C128.261 80.4174 128.807 79.3251 124.984 80.9635C116.245 86.9712 111.33 95.1635 110.238 104.448Z" fill="black"/>
<path d="M122.799 103.901L117.338 117.555L127.169 120.286C127.897 117.737 129.681 112.639 130.992 112.639C132.63 112.639 134.269 114.278 136.453 115.37C138.638 116.463 140.276 116.463 141.369 115.917C142.461 115.37 143.493 113.548 144.099 112.639C146.284 109.363 146.83 109.363 147.922 109.363H147.922C149.467 109.363 149.79 109.68 150.653 108.817C151.745 107.724 151.199 104.993 151.199 102.263C151.199 99.5318 153.384 96.2549 150.107 92.978C146.83 89.7011 142.461 90.7933 139.184 92.978C135.907 95.1627 135.907 95.7087 134.269 95.7087C132.63 95.7087 132.084 93.5242 130.992 91.8857C129.899 90.2473 128.807 89.1552 127.715 89.1552H127.714C126.622 89.1552 126.076 89.1552 124.984 90.7933C123.892 92.4318 124.438 95.1628 124.984 97.3474C125.53 99.532 123.892 101.17 122.799 103.901Z" fill="white"/>
<rect x="66" y="235.524" width="75.3688" height="10.923" rx="5.46151" fill="white" stroke="black" stroke-width="2"/>
<rect x="151.199" y="209.309" width="131.076" height="10.923" rx="5.46151" fill="white" stroke="black" stroke-width="2"/>
<rect x="306.3" y="126.713" width="45.0591" height="34.9558" transform="rotate(7.79701 306.3 126.713)" fill="#F6F6F6"/>
<line x1="300.782" y1="167.012" x2="337.546" y2="172.046" stroke="#F6F6F6" stroke-width="2"/>
<line x1="300.213" y1="171.168" x2="336.977" y2="176.202" stroke="#F6F6F6" stroke-width="2"/>
<line x1="299.644" y1="175.324" x2="318.026" y2="177.841" stroke="#F6F6F6" stroke-width="2"/>
<path d="M342.53 145.97C342.259 148.189 341.38 150.289 339.989 152.039C338.599 153.789 336.752 155.121 334.652 155.886C332.552 156.652 330.282 156.822 328.091 156.378C325.901 155.934 323.876 154.892 322.24 153.369C320.605 151.846 319.422 149.9 318.823 147.746C318.225 145.593 318.233 143.316 318.848 141.167C319.463 139.018 320.66 137.081 322.307 135.57C323.954 134.059 325.987 133.033 328.181 132.605L329.108 137.363C327.792 137.62 326.573 138.236 325.584 139.142C324.596 140.049 323.878 141.211 323.509 142.5C323.14 143.79 323.135 145.156 323.494 146.448C323.853 147.74 324.563 148.907 325.544 149.821C326.525 150.735 327.74 151.36 329.055 151.627C330.369 151.893 331.731 151.791 332.991 151.332C334.251 150.873 335.36 150.074 336.194 149.024C337.028 147.974 337.556 146.713 337.718 145.382L342.53 145.97Z" fill="black"/>
<path d="M342.168 141.224C342.453 142.237 342.604 143.282 342.618 144.334L337.771 144.4C337.762 143.769 337.672 143.142 337.501 142.535L342.168 141.224Z" fill="black"/>
<path d="M341.653 139.758C340.652 137.403 338.931 135.425 336.736 134.108C334.541 132.791 331.986 132.203 329.437 132.428L329.862 137.257C331.392 137.122 332.925 137.475 334.242 138.265C335.558 139.055 336.591 140.242 337.192 141.655L341.653 139.758Z" fill="black"/>
<rect x="310.061" y="123.859" width="45.0591" height="34.9558" transform="rotate(7.79701 310.061 123.859)" stroke="black" stroke-width="2"/>
<line x1="304.316" y1="165.812" x2="341.08" y2="170.846" stroke="black" stroke-width="2"/>
<line x1="303.746" y1="169.968" x2="340.51" y2="175.002" stroke="black" stroke-width="2"/>
<line x1="303.177" y1="174.124" x2="321.559" y2="176.641" stroke="black" stroke-width="2"/>
<path d="M86.2078 236.616C82.7124 232.247 84.7514 226.057 86.2078 223.509L135.907 215.863C137.364 217.319 141.587 221.215 146.83 225.147C153.384 230.063 171.953 261.739 165.946 279.762C161.139 294.181 140.641 314.898 130.992 323.454C130.446 324.365 128.589 325.639 125.53 323.454C121.707 320.724 122.8 320.177 122.8 318.539C122.8 316.901 149.015 282.493 146.83 275.939C144.646 269.385 133.723 248.632 125.53 246.447C117.338 244.262 90.577 242.078 86.2078 236.616Z" fill="black"/>
<path d="M120.068 115.917C113.951 115.48 109.771 115.917 106.96 118.648C87.8451 137.216 85.6605 174.355 82.9297 196.201C80.199 218.047 79.6528 218.593 79.6528 222.963C79.6528 227.332 95.4912 229.516 110.783 230.063C123.017 230.5 135.542 220.414 140.276 215.317C139.183 212.04 137.108 208.544 135.36 201.117C133.176 191.832 135.36 182.001 135.36 182.001C135.36 182.001 123.891 172.171 120.068 164.524C122.617 163.978 129.134 162.34 134.814 160.155C140.494 157.971 142.642 154.876 143.006 153.601C142.096 150.689 139.183 142.788 134.814 134.486C129.353 124.109 127.714 116.463 120.068 115.917Z" fill="white"/>
<path d="M120.068 164.524C122.617 163.978 129.134 162.34 134.814 160.155C140.494 157.971 142.642 154.876 143.006 153.601C142.096 150.689 139.183 142.788 134.814 134.486C129.353 124.109 127.714 116.463 120.068 115.917C113.951 115.48 109.771 115.917 106.96 118.648C87.8451 137.216 85.6605 174.355 82.9297 196.201C80.199 218.047 79.6528 218.593 79.6528 222.963C79.6528 227.332 95.4912 229.516 110.783 230.063C123.017 230.5 135.542 220.414 140.276 215.317C139.183 212.04 137.108 208.544 135.36 201.117C133.176 191.832 135.36 182.001 135.36 182.001C135.36 182.001 123.891 172.171 120.068 164.524ZM120.068 164.524C118.976 162.34 116.463 156.551 115.153 150.871" stroke="black" stroke-width="2"/>
<path d="M68.6732 389.085L73.5202 247.447H76.4145L68.8748 389.085H68.6732Z" stroke="black" stroke-width="2"/>
<path d="M130.504 391.27L125.657 249.632H122.763L130.302 391.27H130.504Z" stroke="black" stroke-width="2"/>
<path d="M70.6841 330.647L70.763 329.37H128.352V330.647H70.6841Z" stroke="black" stroke-width="2"/>
<path d="M154.412 391.816L159.271 221.232H162.169L154.611 391.816H154.412Z" stroke="black" stroke-width="2"/>
<path d="M274.692 394.001L269.833 221.232H266.935L274.493 394.001H274.692Z" stroke="black" stroke-width="2"/>
<path d="M156.697 320.816L156.853 319.539H272.536V320.816H156.697Z" stroke="black" stroke-width="2"/>
<path d="M116.233 324.439C116.117 322.907 120.706 320.764 122.426 319.736C124.094 320.574 126.341 322.1 126.693 322.69C127.134 323.427 126.981 326.52 129.922 329.766C132.862 333.012 133.739 336.99 133.001 337.431C132.264 337.871 130.646 336.837 125.202 333.587C119.757 330.337 116.377 326.355 116.233 324.439Z" fill="white" stroke="black" stroke-width="2"/>
<rect x="162.03" y="205.94" width="91.938" height="2.36921" stroke="black" stroke-width="2"/>
<path d="M183.037 203.94L193.505 157.879H264.638L254.17 203.94H183.037Z" stroke="black" stroke-width="2"/>
<path d="M209.67 186.605C210.498 186.605 211.021 187.26 210.838 188.068C210.654 188.876 209.834 189.531 209.006 189.531C208.177 189.531 207.654 188.876 207.838 188.068C208.021 187.26 208.841 186.605 209.67 186.605Z" fill="black"/>
<path d="M221.67 178C222.498 178 223.021 178.655 222.838 179.463C222.654 180.27 221.834 180.925 221.006 180.925C220.177 180.925 219.654 180.27 219.838 179.463C220.021 178.655 220.841 178 221.67 178Z" fill="black"/>
<path d="M227.67 180C228.498 180 229.021 180.655 228.838 181.463C228.654 182.27 227.834 182.925 227.006 182.925C226.177 182.925 225.654 182.27 225.838 181.463C226.021 180.655 226.841 180 227.67 180Z" fill="black"/>
<path d="M233.932 174.759C234.76 174.759 235.283 175.413 235.1 176.221C234.916 177.029 234.096 177.684 233.267 177.684C232.439 177.684 231.916 177.029 232.1 176.221C232.283 175.413 233.103 174.759 233.932 174.759Z" fill="black"/>
<path d="M241.09 171.886C241.919 171.886 242.441 172.541 242.258 173.349C242.075 174.157 241.254 174.812 240.426 174.812C239.598 174.812 239.075 174.157 239.258 173.349C239.441 172.541 240.262 171.886 241.09 171.886Z" fill="black"/>
<path d="M239.67 165.688C240.498 165.688 241.021 166.343 240.838 167.151C240.654 167.959 239.834 168.614 239.006 168.614C238.177 168.614 237.654 167.959 237.838 167.151C238.021 166.343 238.841 165.688 239.67 165.688Z" fill="black"/>
<path d="M234.67 183C235.498 183 236.021 183.655 235.838 184.463C235.654 185.27 234.834 185.925 234.006 185.925C233.177 185.925 232.654 185.27 232.838 184.463C233.021 183.655 233.841 183 234.67 183Z" fill="black"/>
<path d="M224.67 173C225.498 173 226.021 173.655 225.838 174.463C225.654 175.27 224.834 175.925 224.006 175.925C223.177 175.925 222.654 175.27 222.838 174.463C223.021 173.655 223.841 173 224.67 173Z" fill="black"/>
<path d="M214.67 176C215.498 176 216.021 176.655 215.838 177.463C215.654 178.27 214.834 178.925 214.006 178.925C213.177 178.925 212.654 178.27 212.838 177.463C213.021 176.655 213.841 176 214.67 176Z" fill="black"/>
<path d="M208.559 188.612L221.121 179.837L227.32 181.663L232.698 176.946L240.721 173.446" stroke="black"/>
<path d="M213.976 177.435L224.407 174.56L234.126 184.246L239.315 167.446" stroke="black"/>
<path d="M208.909 164L201.398 197.088" stroke="black"/>
<path d="M238.559 193.003H197.927" stroke="black"/>
<path d="M188.501 200.662L197.547 161.155H259.175L250.129 200.662H188.501Z" stroke="black" stroke-width="2"/>
<path d="M156.115 179.816C152.62 176.758 144.828 162.886 141.369 156.332C140.277 157.242 137.218 159.39 133.723 160.701C130.227 162.012 124.256 163.432 121.708 163.978C121.708 164.888 122.472 167.473 125.531 170.532C129.354 174.355 141.369 185.278 145.738 187.462C150.107 189.647 177.961 200.024 180.146 201.662C182.33 203.301 180.692 203.847 183.423 204.393C186.153 204.939 199.261 205.485 200.353 204.939C201.446 204.393 200.899 203.301 198.715 201.662C196.53 200.024 185.061 198.385 183.969 197.839C182.876 197.293 160.484 183.639 156.115 179.816Z" fill="white" stroke="black" stroke-width="2"/>
<circle cx="325.032" cy="49.8831" r="13.7806" transform="rotate(-22.3375 325.032 49.8831)" fill="#F6F6F6"/>
<circle cx="324.834" cy="46.9841" r="12.7806" transform="rotate(-22.3375 324.834 46.9841)" stroke="black" stroke-width="2"/>
<path d="M324.073 46.1518C323.755 46.8924 323.196 47.4269 322.397 47.7553C321.598 48.0836 320.817 48.0932 320.054 47.7839C319.302 47.47 318.769 46.9302 318.454 46.1643C318.14 45.3984 318.139 44.6396 318.453 43.8879C318.778 43.1317 319.34 42.5894 320.139 42.261C320.939 41.9326 321.714 41.9254 322.466 42.2392C323.213 42.542 323.746 43.0819 324.065 43.8588C324.385 44.6358 324.387 45.4001 324.073 46.1518ZM322.667 53.0542L326.791 41.4935L328.039 41.6422L323.906 53.2265L322.667 53.0542ZM320.817 46.0887C321.099 46.2064 321.39 46.2037 321.689 46.0805C321.989 45.9574 322.198 45.7549 322.315 45.473C322.429 45.18 322.424 44.8837 322.3 44.584C322.177 44.2843 321.975 44.0756 321.693 43.9579C321.411 43.8402 321.12 43.8429 320.821 43.9661C320.521 44.0892 320.312 44.2917 320.195 44.5736C320.088 44.8509 320.096 45.1394 320.219 45.4391C320.342 45.7388 320.542 45.9553 320.817 46.0887ZM332.403 50.416C332.089 51.1677 331.533 51.7077 330.734 52.0361C329.934 52.3645 329.159 52.3717 328.407 52.0579C327.656 51.744 327.122 51.2041 326.808 50.4383C326.493 49.6724 326.493 48.9136 326.806 48.1619C327.12 47.4102 327.677 46.8702 328.476 46.5418C329.275 46.2135 330.051 46.2062 330.802 46.5201C331.554 46.8339 332.087 47.3738 332.402 48.1397C332.717 48.9055 332.717 49.6643 332.403 50.416ZM329.17 50.3627C329.452 50.4804 329.743 50.4777 330.043 50.3545C330.342 50.2314 330.543 50.0256 330.645 49.7372C330.758 49.4442 330.756 49.1534 330.637 48.8648C330.514 48.5651 330.311 48.3564 330.029 48.2387C329.754 48.1054 329.467 48.1003 329.167 48.2234C328.867 48.3465 328.661 48.5546 328.548 48.8476C328.441 49.1249 328.449 49.4134 328.573 49.7131C328.696 50.0128 328.895 50.2293 329.17 50.3627Z" fill="black"/>
<path d="M36.642 99.6637L28.8422 58.8372L61.7221 50.7437L73.7645 90.5259L36.642 99.6637Z" fill="#F6F6F6"/>
<path d="M35.3357 51.8204L37.1807 59.3156M47.5154 48.8223L49.3604 56.3175" stroke="black" stroke-width="2"/>
<path d="M34.7498 103.599L26.6373 62.9401L59.445 54.8643L71.1324 94.6428L34.7498 103.599Z" stroke="black" stroke-width="2"/>
<path d="M35.2851 51.8321C34.8842 50.2034 35.1467 48.4822 36.0149 47.0471C36.883 45.6119 38.2857 44.5805 39.9144 44.1796C41.5431 43.7787 43.2643 44.0412 44.6994 44.9093C46.1345 45.7775 47.166 47.1802 47.5669 48.8089" stroke="black" stroke-width="2"/>
<rect x="128.932" y="0.3181" width="48.0613" height="30.5845" rx="7" transform="rotate(8.37047 128.932 0.3181)" fill="#F6F6F6"/>
<rect x="127.297" y="3.29552" width="46.0613" height="28.5845" rx="6" transform="rotate(8.37047 127.297 3.29552)" stroke="black" stroke-width="2"/>
<rect x="125.339" y="9.72517" width="48.0613" height="6.55381" transform="rotate(8.37047 125.339 9.72517)" fill="black"/>
<path fill-rule="evenodd" clip-rule="evenodd" d="M246.82 46.3713C245.864 44.1232 242.426 39.8841 236.323 40.9017C230.218 41.9194 227.777 47.1406 227.319 49.624C226.803 53.4927 228.071 62.4969 237.282 67.5636C246.489 72.6283 250.599 74.2821 251.505 74.4764L251.505 74.4781C252.298 74.0021 255.649 71.1051 262.718 63.3243C269.786 55.5434 268.065 46.6146 266.321 43.1228C265.083 40.9222 261.08 36.7754 254.975 37.7932C248.873 38.8106 246.996 43.934 246.82 46.3713Z" fill="#F6F6F6"/>
<path fill-rule="evenodd" clip-rule="evenodd" d="M245.252 56.3844C245.31 55.5723 245.936 53.8634 247.971 53.5241C250.006 53.1848 251.34 54.5671 251.753 55.3007C252.334 56.4646 252.908 59.4409 250.551 62.0345C248.195 64.6281 247.078 65.5938 246.814 65.7524L245.252 56.3844ZM245.252 56.3848C244.933 55.6355 243.787 54.2218 241.752 54.5611C239.717 54.9004 238.904 56.6408 238.751 57.4685C238.579 58.7581 239.002 61.7595 242.072 63.4484C245.142 65.1374 246.512 65.6884 246.814 65.7528L245.252 56.3848Z" fill="black"/>
<rect x="225.05" y="49.2554" width="37.5106" height="26.3372" transform="rotate(-9.46531 225.05 49.2554)" stroke="black" stroke-width="2"/>
<circle cx="38.7564" cy="178.023" r="18.023" fill="#F6F6F6"/>
<circle cx="30.2904" cy="176.59" r="14.2904" stroke="black" stroke-width="2"/>
<path d="M20.1383 176.693C19.5438 176.693 19.0566 176.21 19.113 175.618C19.3216 173.428 20.1645 171.338 21.5497 169.609C22.9348 167.88 24.7911 166.601 26.8827 165.92C27.448 165.736 28.0257 166.106 28.1553 166.686C28.285 167.266 27.9168 167.836 27.3558 168.032C25.7407 168.598 24.3087 169.608 23.2297 170.955C22.1507 172.302 21.4779 173.919 21.2777 175.619C21.2081 176.209 20.7327 176.693 20.1383 176.693Z" fill="black"/>
<line x1="40.5921" y1="186.703" x2="52.0245" y2="198.136" stroke="black" stroke-width="2"/>
<path d="M36.2634 74.8518L41.2663 73.6388L45.1138 82.963L55.1196 80.5372L56.2441 72.059L47.2389 74.2422" stroke="black" stroke-width="1.63925"/>
<circle r="2.05914" transform="matrix(0.971846 -0.235616 -0.0150449 0.999887 46.0373 87.8672)" fill="black"/>
<circle r="2.05914" transform="matrix(0.971846 -0.235616 -0.0150449 0.999887 54.042 85.9262)" fill="black"/>
</svg>
