<svg width="38" height="38" viewBox="0 0 38 38" fill="none" xmlns="http://www.w3.org/2000/svg">
<circle cx="19" cy="19" r="19" fill="white"/>
<path d="M16.7314 25.5973V12.6047C16.7314 11.3208 17.8569 10.2603 19.0827 10.2603C20.3043 10.2603 21.4339 11.1783 21.4339 12.764V25.5973C21.4339 26.6254 21.0883 27.266 20.6735 27.6541C20.2416 28.0582 19.6574 28.2603 19.0827 28.2603C17.9092 28.2603 16.7314 27.3966 16.7314 25.5973Z" stroke="black" stroke-width="2"/>
<path d="M21.4339 19.2183C21.4339 20.4902 20.3902 21.5376 19.0827 21.5376C17.7751 21.5376 16.7314 20.4902 16.7314 19.2183C16.7314 17.9463 17.7751 16.8989 19.0827 16.8989C20.3902 16.8989 21.4339 17.9463 21.4339 19.2183Z" stroke="black" stroke-width="2"/>
<path d="M24.9863 25.5973V12.6047C24.9863 11.3208 26.1118 10.2603 27.3375 10.2603C28.5592 10.2603 29.6888 11.1783 29.6888 12.764V25.5973C29.6888 26.6254 29.3432 27.266 28.9284 27.6541C28.4965 28.0582 27.9123 28.2603 27.3375 28.2603C26.1641 28.2603 24.9863 27.3966 24.9863 25.5973Z" stroke="black" stroke-width="2"/>
<path d="M29.6888 12.5795C29.6888 13.8514 28.6451 14.8988 27.3375 14.8988C26.03 14.8988 24.9863 13.8514 24.9863 12.5795C24.9863 11.3076 26.03 10.2603 27.3375 10.2603C28.6451 10.2603 29.6888 11.3076 29.6888 12.5795Z" stroke="black" stroke-width="2"/>
<path d="M8.67676 25.5973V12.6047C8.67676 11.3208 9.80222 10.2603 11.028 10.2603C12.2497 10.2603 13.3792 11.1783 13.3792 12.764V25.5973C13.3792 26.6254 13.0336 27.266 12.6188 27.6541C12.1869 28.0582 11.6027 28.2603 11.028 28.2603C9.85448 28.2603 8.67676 27.3966 8.67676 25.5973Z" stroke="black" stroke-width="2"/>
<path d="M13.3792 25.9404C13.3792 27.2124 12.3356 28.2598 11.028 28.2598C9.7204 28.2598 8.67676 27.2124 8.67676 25.9404C8.67676 24.6685 9.7204 23.6211 11.028 23.6211C12.3356 23.6211 13.3792 24.6685 13.3792 25.9404Z" stroke="black" stroke-width="2"/>
</svg>
