<svg width="160" height="172" viewBox="0 0 160 172" fill="none" xmlns="http://www.w3.org/2000/svg">
<ellipse cx="69.334" cy="159.497" rx="69.334" ry="12.5" fill="#E2E2E2"/>
<ellipse rx="32.65" ry="49.4586" transform="matrix(0.966572 -0.256397 0.297793 0.95463 67.8674 75.8508)" fill="#E2E2E2"/>
<path d="M115.684 63.6269C121 80.668 120.654 97.4231 115.845 110.725C111.036 124.027 101.797 133.81 89.3472 137.113C76.8974 140.415 63.4333 136.654 51.6943 127.742C39.9558 118.83 30.0083 104.805 24.6923 87.7638C19.3764 70.7226 19.7223 53.9675 24.5314 40.6659C29.3406 27.3638 38.5797 17.5805 51.0294 14.278C63.4792 10.9756 76.9433 14.7365 88.6823 23.649C100.421 32.5611 110.368 46.5857 115.684 63.6269Z" stroke="black" stroke-width="2"/>
<path d="M115.218 63.7563C120.463 80.5681 120.382 97.0247 116.062 110.027C111.74 123.034 103.217 132.496 91.6222 135.572C80.0272 138.648 67.355 134.808 56.1993 125.907C45.0469 117.008 35.496 103.107 30.2516 86.295C25.0072 69.4832 25.088 53.0266 29.4085 40.0238C33.7302 27.0173 42.2528 17.5551 53.8478 14.4793C65.4428 11.4036 78.115 15.2436 89.2707 24.1445C100.423 33.0428 109.974 46.9445 115.218 63.7563Z" stroke="black" stroke-width="2"/>
<path d="M105.434 66.3454C109.205 78.4341 109.22 90.2341 106.247 99.5258C103.272 108.823 97.3484 115.509 89.2985 117.645C81.2487 119.78 72.3782 117.018 64.5004 110.6C56.6275 104.185 49.8412 94.1812 46.0701 82.0926C42.2991 70.0039 42.2838 58.2038 45.2573 48.9122C48.2326 39.6149 54.1557 32.9287 62.2056 30.7933C70.2555 28.658 79.126 31.42 87.0037 37.8384C94.8767 44.2528 101.663 54.2568 105.434 66.3454Z" stroke="black" stroke-width="2"/>
<path d="M93.307 69.561C95.2214 75.698 95.2714 81.6535 93.855 86.3062C92.436 90.9675 89.5941 94.2063 85.798 95.2132C82.002 96.2202 77.7282 94.869 73.8402 91.6154C69.9594 88.3678 66.5701 83.2982 64.6557 77.1611C62.7412 71.0241 62.6913 65.0686 64.1077 60.4159C65.5267 55.7546 68.3685 52.5158 72.1646 51.5089C75.9607 50.5019 80.2344 51.8531 84.1224 55.1067C88.0033 58.3542 91.3926 63.4239 93.307 69.561Z" stroke="black" stroke-width="2"/>
<path d="M83.7725 72.1302C84.4381 74.2637 84.5332 76.2787 84.1968 77.7944C83.8526 79.3453 83.1253 80.1523 82.3461 80.359C81.567 80.5657 80.4858 80.2384 79.3005 79.0932C78.1422 77.9741 77.0617 76.2204 76.3962 74.0869C75.7306 71.9534 75.6354 69.9383 75.9718 68.4226C76.3161 66.8717 77.0434 66.0647 77.8226 65.858C78.6017 65.6513 79.6829 65.9786 80.8682 67.1238C82.0265 68.243 83.107 69.9967 83.7725 72.1302Z" stroke="black" stroke-width="2"/>
<path d="M80 72.9973L137.121 49.1923" stroke="black" stroke-width="2" stroke-linecap="round"/>
<path d="M137.77 42.0278L154.63 34.9963L153.1 42.497L160 46.482L143.14 53.5135L136.24 49.5285L137.77 42.0278Z" fill="black"/>
<path d="M66 136L54 166" stroke="black" stroke-width="2" stroke-linecap="round"/>
<path d="M45 122L27 153" stroke="black" stroke-width="2" stroke-linecap="round"/>
<path d="M96.7686 134.997L108.74 159.997" stroke="black" stroke-width="2" stroke-linecap="round"/>
</svg>
