<svg width="163" height="161" viewBox="0 0 163 161" fill="none" xmlns="http://www.w3.org/2000/svg">
<path d="M94.3032 57.8504L54.445 97.4595V100.587H59.6895L86.9609 113.095H123.672V120.391L149.895 109.446V35.4399H142.028L106.89 70.3585L94.3032 57.8504Z" fill="#E2E2E2"/>
<ellipse cx="16.1606" cy="82.8666" rx="6.81786" ry="6.77524" fill="#E2E2E2"/>
<ellipse cx="23.5024" cy="42.2152" rx="6.81786" ry="6.77524" fill="#E2E2E2"/>
<ellipse cx="53.921" cy="14.0716" rx="6.81786" ry="6.77524" fill="#E2E2E2"/>
<ellipse cx="93.7785" cy="6.77524" rx="6.81786" ry="6.77524" fill="#E2E2E2"/>
<ellipse cx="131.539" cy="16.1566" rx="6.81786" ry="6.77524" fill="#E2E2E2"/>
<path d="M14.5866 157.394L8.29324 102.15H41.8581V157.394H14.5866Z" fill="#E2E2E2"/>
<path d="M37.6626 98.5017H2L8.81786 153.225H37.6626V98.5017Z" stroke="black" stroke-width="2"/>
<path d="M37.6624 105.277H55.9301C57.4596 105.277 58.9723 105.596 60.3716 106.213L84.156 116.711C85.1737 117.16 86.2667 117.392 87.379 117.392C92.8422 117.392 109.881 117.392 112.093 117.392C114.733 117.392 118.428 118.493 118.428 123.449C118.428 128.405 114.733 130.057 112.093 130.057H80.9484C78.6609 129.874 74.6138 130.498 74.6138 134.463" stroke="black" stroke-width="2"/>
<path d="M37.2201 147.613H52.4372L85.4075 158.968C86.4219 159.312 89.161 160 92.0015 160C94.8421 160 96.9048 159.312 97.5811 158.968L157.655 126.203C159.74 125.066 161.132 122.976 161.376 120.614V120.614C161.737 117.126 159.537 113.885 156.163 112.931L155.652 112.786C153.856 112.279 151.938 112.428 150.243 113.207L113.698 130" stroke="black" stroke-width="2"/>
<path d="M26.1732 141.238C26.1732 143.27 24.5136 144.928 22.4531 144.928C20.3927 144.928 18.7331 143.27 18.7331 141.238C18.7331 139.206 20.3927 137.547 22.4531 137.547C24.5136 137.547 26.1732 139.206 26.1732 141.238Z" stroke="black" stroke-width="2"/>
<path d="M18.8314 81.8243C18.8314 83.8567 17.1718 85.5149 15.1114 85.5149C13.0509 85.5149 11.3913 83.8567 11.3913 81.8243C11.3913 79.792 13.0509 78.1338 15.1114 78.1338C17.1718 78.1338 18.8314 79.792 18.8314 81.8243Z" stroke="black" stroke-width="2"/>
<path d="M28.2713 43.2574C28.2713 45.2898 26.6117 46.948 24.5512 46.948C22.4908 46.948 20.8312 45.2898 20.8312 43.2574C20.8312 41.2251 22.4908 39.5669 24.5512 39.5669C26.6117 39.5669 28.2713 41.2251 28.2713 43.2574Z" stroke="black" stroke-width="2"/>
<path d="M57.6404 15.1139C57.6404 17.1462 55.9808 18.8044 53.9203 18.8044C51.8599 18.8044 50.2003 17.1462 50.2003 15.1139C50.2003 13.0816 51.8599 11.4233 53.9203 11.4233C55.9808 11.4233 57.6404 13.0816 57.6404 15.1139Z" stroke="black" stroke-width="2"/>
<path d="M96.4503 5.73303C96.4503 7.76537 94.7907 9.42359 92.7303 9.42359C90.6698 9.42359 89.0102 7.76537 89.0102 5.73303C89.0102 3.7007 90.6698 2.04248 92.7303 2.04248C94.7907 2.04248 96.4503 3.7007 96.4503 5.73303Z" stroke="black" stroke-width="2"/>
<path d="M136.308 15.1139C136.308 17.1462 134.648 18.8044 132.588 18.8044C130.527 18.8044 128.868 17.1462 128.868 15.1139C128.868 13.0816 130.527 11.4233 132.588 11.4233C134.648 11.4233 136.308 13.0816 136.308 15.1139Z" stroke="black" stroke-width="2"/>
<path d="M53.3964 93.2897L88.5346 59.4135L107.415 78.1757L155.14 30.749" stroke="black" stroke-width="2"/>
<path d="M144.126 30.228H155.664V41.6938" stroke="black" stroke-width="2"/>
<line x1="64.8848" y1="82.3452" x2="64.8848" y2="108.404" stroke="black" stroke-width="2"/>
<path d="M83.8141 63.583L83.8141 116.743" stroke="black" stroke-width="2"/>
<path d="M103.743 75.0488L103.743 116.743" stroke="black" stroke-width="2"/>
<path d="M123.673 62.5405L123.673 126.124" stroke="black" stroke-width="2"/>
<path d="M144.608 41.6938L144.608 116" stroke="black" stroke-width="2"/>
</svg>
