<svg width="160" height="40" viewBox="0 0 160 40" fill="none" xmlns="http://www.w3.org/2000/svg">
<path d="M15.3017 14.187V34.0964H11.0355V32.7594C10.0968 33.8402 8.70315 34.4944 6.79762 34.4944C3.0718 34.4944 0 31.2238 0 26.9857C0 22.748 3.0718 19.4774 6.79762 19.4774C8.70315 19.4774 10.0968 20.1312 11.0355 21.212V14.187H15.3017ZM11.0355 26.9857C11.0355 24.8526 9.61349 23.516 7.65086 23.516C5.68844 23.516 4.26623 24.8526 4.26623 26.9857C4.26623 29.1188 5.68844 30.4558 7.65086 30.4558C9.61349 30.4558 11.0355 29.1188 11.0355 26.9857Z" fill="black"/>
<path d="M33.0197 19.8756V34.0965H28.7535V32.7596C27.8146 33.8404 26.4213 34.4946 24.5154 34.4946C20.7896 34.4946 17.7178 31.2239 17.7178 26.9859C17.7178 22.7482 20.7896 19.4775 24.5154 19.4775C26.4213 19.4775 27.8146 20.1314 28.7535 21.2122V19.8756H33.0197ZM28.7535 26.9859C28.7535 24.8528 27.3309 23.5162 25.3686 23.5162C23.4064 23.5162 21.9838 24.8528 21.9838 26.9859C21.9838 29.119 23.4064 30.456 25.3686 30.456C27.3309 30.456 28.7535 29.119 28.7535 26.9859Z" fill="black"/>
<path d="M41.5495 23.9717V29.006C41.5495 30.2287 42.6018 30.3425 44.4792 30.2287V34.0969C38.9045 34.6659 37.2833 32.9875 37.2833 29.006V23.9717H35.0078V19.876H37.2833V17.1739L41.5495 15.894V19.876H44.4792V23.9717H41.5495Z" fill="black"/>
<path d="M61.2017 19.8756V34.0965H56.9355V32.7596C55.997 33.8404 54.6033 34.4946 52.6978 34.4946C48.972 34.4946 45.9004 31.2239 45.9004 26.9859C45.9004 22.7482 48.972 19.4775 52.6978 19.4775C54.6033 19.4775 55.997 20.1314 56.9355 21.2122V19.8756H61.2017ZM56.9355 26.9859C56.9355 24.8528 55.5137 23.5162 53.5511 23.5162C51.5884 23.5162 50.1666 24.8528 50.1666 26.9859C50.1666 29.119 51.5884 30.456 53.5511 30.456C55.5137 30.456 56.9355 29.119 56.9355 26.9859Z" fill="black"/>
<path d="M101.301 19.5908V24.426C99.5378 24.1417 97.0348 24.8526 97.0348 27.6685V34.0964H92.7686V19.8755H97.0348V22.4067C97.6037 20.5012 99.5097 19.5908 101.301 19.5908Z" fill="black"/>
<path d="M102.153 26.9859C102.153 22.7482 105.51 19.4775 109.691 19.4775C113.872 19.4775 117.228 22.7482 117.228 26.9859C117.228 31.2239 113.872 34.4946 109.691 34.4946C105.51 34.4946 102.153 31.2239 102.153 26.9859ZM112.962 26.9859C112.962 24.9666 111.539 23.63 109.691 23.63C107.842 23.63 106.42 24.9666 106.42 26.9859C106.42 29.0056 107.842 30.3422 109.691 30.3422C111.539 30.3422 112.962 29.0056 112.962 26.9859Z" fill="black"/>
<path d="M118.933 26.9859C118.933 22.7482 122.147 19.4775 126.47 19.4775C129.229 19.4775 131.674 20.9279 132.898 23.1181L129.172 25.2794C128.688 24.2842 127.664 23.6867 126.413 23.6867C124.564 23.6867 123.199 25.0236 123.199 26.9859C123.199 28.9485 124.564 30.2855 126.413 30.2855C127.664 30.2855 128.717 29.688 129.172 28.6924L132.898 30.8259C131.674 33.0442 129.257 34.4946 126.47 34.4946C122.147 34.4946 118.933 31.2239 118.933 26.9859Z" fill="black"/>
<path d="M143.42 34.0959L138.869 27.8103V34.0959H134.603V14.1865H138.869V26.1038L143.135 19.875H148.113L142.936 26.9852L148.255 34.0959H143.42Z" fill="black"/>
<path d="M160 29.8303C160 33.1009 157.156 34.4946 154.084 34.4946C151.24 34.4946 149.078 33.4138 147.969 31.1102L151.666 29.0056C152.036 30.086 152.833 30.6835 154.084 30.6835C155.108 30.6835 155.62 30.3707 155.62 29.8017C155.62 28.2376 148.623 29.0623 148.623 24.1418C148.623 21.0417 151.24 19.4775 154.198 19.4775C156.502 19.4775 158.549 20.5013 159.744 22.5206L156.103 24.4832C155.705 23.7438 155.136 23.2315 154.198 23.2315C153.458 23.2315 153.003 23.5162 153.003 24.0281C153.003 25.6493 160 24.5685 160 29.8303Z" fill="black"/>
<path d="M68.4563 14.3221L66.7133 29.532C66.6717 29.895 66.8683 30.2303 67.1789 30.3819L66.8585 33.1781C66.8058 33.6384 67.1362 34.0544 67.5966 34.1072L67.8682 34.1383L67.5532 36.8871C67.5004 37.3474 67.8309 37.7634 68.2912 37.8162L69.14 37.9134L69.4089 37.9442L78.8557 39.0268L79.0262 39.0463L79.9815 39.1558C80.4418 39.2086 80.8578 38.8781 80.9106 38.4177L81.2256 35.669L81.4932 35.6997C81.9535 35.7524 82.3695 35.4219 82.4223 34.9616L82.6149 33.281L82.8966 33.3133C83.3569 33.366 83.7729 33.0356 83.8257 32.5752L84.0183 30.8946L84.2893 30.9257C84.7497 30.9784 85.1657 30.648 85.2184 30.1876L85.411 28.5071L85.6891 28.539C86.1495 28.5917 86.5655 28.2613 86.6182 27.8009L86.6667 27.3774L86.9433 27.4091C87.4037 27.4618 87.8196 27.1314 87.8724 26.671L88.1614 24.1488C88.2142 23.6884 87.8837 23.2724 87.4234 23.2197L87.1473 23.188L87.1782 22.9183C87.231 22.4579 86.9005 22.0419 86.4402 21.9891L84.2125 21.7339C84.1162 21.7228 84.0218 21.7286 83.9323 21.7488L84.8865 13.422C84.9392 12.9617 84.6088 12.5457 84.1484 12.4929L83.8961 12.464L83.9253 12.2089C83.9781 11.7485 83.6476 11.3325 83.1872 11.2798L80.9135 11.0192C80.4531 10.9664 80.0371 11.2969 79.9844 11.7573L79.9551 12.0124L79.7028 11.9835C79.2424 11.9307 78.8264 12.2612 78.7737 12.7215L78.3189 16.6899L76.8714 16.5241C76.4111 16.4713 75.9951 16.8018 75.9423 17.2621L75.9105 17.54L75.8633 17.5346L75.6909 17.5148L74.3017 17.3556L74.5691 15.0226C74.6219 14.5622 74.2914 14.1462 73.831 14.0935L73.5791 14.0646L73.6109 13.7867C73.6637 13.3264 73.3332 12.9104 72.8728 12.8576L70.6082 12.5981C70.1478 12.5454 69.7319 12.8758 69.6791 13.3362L69.6473 13.614L69.3854 13.584C68.925 13.5313 68.509 13.8617 68.4563 14.3221Z" fill="white"/>
<path d="M67.5469 29.6278L68.1026 29.6915L67.6921 33.2738L68.7973 33.4005L68.3867 36.9828L69.2356 37.0801L69.5044 37.1109L78.9512 38.1935L79.1217 38.213L80.077 38.3225L80.4875 34.7401L81.5887 34.8663L81.8768 32.3521L82.9921 32.4799L83.2802 29.9658L84.3848 30.0923L84.6729 27.5782L85.7846 27.7056L85.9287 26.4485L87.0388 26.5757L87.3278 24.0535L86.2182 23.9263L86.3446 22.823L84.117 22.5677L83.9909 23.6676L82.8824 23.5406L84.0529 13.3267L82.9669 13.2023L83.0917 12.1136L80.818 11.853L80.6932 12.9417L79.6072 12.8173L79.057 17.6193L76.7759 17.3579L76.6485 18.4693L75.7677 18.3684L75.5954 18.3486L73.3726 18.0939L73.7355 14.9273L72.65 14.8029L72.7773 13.6915L70.5127 13.4319L70.3853 14.5434L69.2899 14.4178L67.5469 29.6278ZM69.6318 35.9995L69.9172 33.5086L68.8058 33.3813L69.2156 29.8051L68.6599 29.7414L70.3984 14.5701L72.6212 14.8248L71.5698 23.9997L72.6813 24.1271L73.2453 19.2054L75.468 19.4601L75.0451 23.1506L76.1566 23.278L76.7003 18.5327L78.9231 18.7874L78.3793 23.5327L79.4908 23.6601L80.7161 12.9674L82.9388 13.2221L81.5524 25.3211L82.6638 25.4484L82.7551 24.652L83.8665 24.7794L83.9929 23.6758L86.2113 23.93L85.9229 26.4467L84.816 26.3199L84.6721 27.5756L83.5607 27.4482L83.2733 29.9564L82.1618 29.829L81.8731 32.3484L80.7617 32.221L80.4749 34.7236L79.3635 34.5963L79.0786 37.082L69.6318 35.9995Z" fill="black"/>
<path d="M92.516 13.8116L91.0824 13.0628C90.8273 12.9319 90.7266 12.6188 90.8576 12.3637L92.3721 9.45314C92.4158 9.36912 92.3143 9.28473 92.2397 9.34308L87.6344 12.9449C87.326 13.1742 87.3651 13.6474 87.707 13.8229L89.1405 14.5716C89.3956 14.7026 89.4963 15.0156 89.3653 15.2708L87.9953 17.8953C87.952 17.9783 88.0508 18.0626 88.1259 18.0068L92.5885 14.6895C92.8969 14.4603 92.8578 13.9871 92.516 13.8116Z" fill="black"/>
<path d="M77.5047 4.29922L75.6115 4.47919C75.276 4.51349 74.9762 4.26932 74.9419 3.93381L74.5708 0.0936688C74.5601 -0.0171823 74.406 -0.0353489 74.3698 0.0699759L72.136 6.57172C71.9788 6.99528 72.3205 7.43686 72.77 7.39091L74.6632 7.21094C74.9987 7.17664 75.2984 7.42081 75.3327 7.75632L75.6631 11.2219C75.6735 11.3314 75.825 11.3513 75.8633 11.2481L78.1387 5.11842C78.2959 4.69485 77.9542 4.25327 77.5047 4.29922Z" fill="black"/>
<path d="M63.3315 9.88734L62.2732 11.042C62.087 11.2481 61.7689 11.2642 61.5628 11.0779L59.2171 8.93454C59.1494 8.87267 59.0451 8.94663 59.0811 9.031L61.3026 14.2391C61.4401 14.5849 61.8927 14.6664 62.1422 14.3903L63.2006 13.2356C63.3868 13.0295 63.7048 13.0134 63.9109 13.1997L66.025 15.1365C66.0918 15.1977 66.1954 15.1263 66.1619 15.0421L64.1712 10.0385C64.0336 9.69271 63.581 9.61124 63.3315 9.88734Z" fill="black"/>
</svg>
