<svg width="366" height="433" viewBox="0 0 366 433" fill="none" xmlns="http://www.w3.org/2000/svg">
<path d="M280.418 432.993C327.245 432.993 365.205 420.145 365.205 404.296C365.205 388.447 327.245 375.599 280.418 375.599C233.592 375.599 195.632 388.447 195.632 404.296C195.632 420.145 233.592 432.993 280.418 432.993Z" fill="#F6F6F6"/>
<path d="M284.982 56.5817L52.259 143.895L49.0362 336.122L281.759 248.809L284.982 56.5817Z" fill="#F6F6F6"/>
<path d="M292.734 43.2357L60.0112 130.549L56.7884 322.775L289.512 235.462L292.734 43.2357Z" stroke="black" stroke-width="2" stroke-miterlimit="10"/>
<path d="M68.4714 138.989L65.662 306.694L282.154 225.447" stroke="black" stroke-width="2"/>
<path d="M76.6626 292.101L91.6081 263.275L113.011 255.242L136.217 215.77L172.175 202.274L198.825 160.348L241.856 130.848L267.408 78.3065" stroke="black" stroke-width="2"/>
<path d="M96.7286 284.701L106.32 237.474L135.434 244.59L159.381 174.687L209.795 175.094L248.466 191.318" stroke="black" stroke-width="2"/>
<ellipse rx="3.47771" ry="3.50789" transform="matrix(0.933393 -0.349807 -0.0168164 0.999956 171.343 201.853)" fill="black"/>
<ellipse rx="3.47771" ry="3.50789" transform="matrix(0.933393 -0.349807 -0.0168164 0.999956 199.171 160.153)" fill="black"/>
<ellipse rx="3.47771" ry="3.50789" transform="matrix(0.933393 -0.349807 -0.0168164 0.999956 210.512 174.558)" fill="black"/>
<ellipse rx="3.47764" ry="3.50789" transform="matrix(0.933393 -0.349814 -0.0168161 0.999956 159.168 174.52)" fill="black"/>
<ellipse rx="3.47771" ry="3.50799" transform="matrix(0.933393 -0.349815 -0.0168159 0.999955 134.857 243.219)" fill="black"/>
<ellipse rx="3.47771" ry="3.50789" transform="matrix(0.933393 -0.349807 -0.0168164 0.999956 106.16 238.039)" fill="black"/>
<ellipse rx="3.47771" ry="3.50789" transform="matrix(0.933393 -0.349807 -0.0168164 0.999956 97.4251 284.128)" fill="black"/>
<ellipse rx="3.47771" ry="3.50789" transform="matrix(0.933393 -0.349807 -0.0168164 0.999956 241.781 130.208)" fill="black"/>
<ellipse rx="3.47771" ry="3.50789" transform="matrix(0.933393 -0.349807 -0.0168164 0.999956 266.998 79.7711)" fill="black"/>
<ellipse rx="3.47771" ry="3.50789" transform="matrix(0.933393 -0.349807 -0.0168164 0.999956 136.559 216.299)" fill="black"/>
<ellipse rx="3.47771" ry="3.50789" transform="matrix(0.933393 -0.349807 -0.0168164 0.999956 113.079 254.448)" fill="black"/>
<ellipse rx="3.47771" ry="3.50789" transform="matrix(0.933393 -0.349807 -0.0168164 0.999956 91.3389 264.127)" fill="black"/>
<ellipse rx="3.47771" ry="3.50789" transform="matrix(0.933393 -0.349807 -0.0168164 0.999956 76.5562 291.357)" fill="black"/>
<path d="M104.102 81.8789L5.07935 118.978L3.10341 236.365L102.126 199.266L104.102 81.8789Z" fill="#F6F6F6"/>
<path d="M109.309 74.0188L10.2852 109.238L10.5551 226.228L109.573 189.143L109.309 74.0188Z" stroke="black" stroke-width="2" stroke-miterlimit="10"/>
<path d="M21.3029 209.117L15.9636 211.118L15.8665 216.893L21.2058 214.892L21.3029 209.117Z" fill="white" stroke="black" stroke-width="2"/>
<path d="M29.019 206.156L23.6797 208.157L23.5826 213.932L28.9219 211.931L29.019 206.156Z" fill="white" stroke="black" stroke-width="2"/>
<path d="M36.7341 203.194L31.3948 205.195L31.2977 210.97L36.6369 208.969L36.7341 203.194Z" fill="white" stroke="black" stroke-width="2"/>
<path d="M82.1268 163.385C86.3828 157.363 89.3259 150.619 90.5838 144.005C91.8416 137.391 91.3579 131.204 89.1936 126.227C87.0294 121.25 83.2819 117.706 78.4251 116.044C73.5682 114.382 67.8201 114.675 61.9077 116.888L61.3694 148.759L82.1268 163.385Z" fill="white" stroke="black" stroke-width="2"/>
<path d="M61.8867 117.185C55.3906 119.616 49.0398 124.347 43.8372 130.63C38.6347 136.914 34.8768 144.392 33.157 151.883C31.4372 159.375 31.8536 166.453 34.3404 172C36.8271 177.548 41.2426 181.248 46.8894 182.516L61.3459 149.181L61.8867 117.185Z" fill="white" stroke="black" stroke-width="2"/>
<path d="M82.254 163.433L61.6205 148.937L46.9408 182.061C52.5201 183.212 58.9737 182.021 65.3382 178.663C71.7027 175.306 77.6366 169.963 82.254 163.433Z" fill="white" stroke="black" stroke-width="2"/>
<path d="M211.726 211.443L154.099 233.033L152.949 301.348L210.576 279.758L211.726 211.443Z" fill="#F6F6F6"/>
<path d="M215.92 205.955L158.293 227.545L157.143 295.859L214.77 274.269L215.92 205.955Z" stroke="black" stroke-width="2" stroke-miterlimit="10"/>
<path d="M163.757 229.84L162.878 282.068L209.671 264.534" stroke="black" stroke-width="2" stroke-miterlimit="10"/>
<path d="M176.328 259.202L168.598 262.094L168.295 279.988L176.026 277.097L176.328 259.202Z" fill="white" stroke="black" stroke-width="2"/>
<path d="M190.067 241.988L182.342 244.876L181.835 274.791L189.561 271.903L190.067 241.988Z" fill="white" stroke="black" stroke-width="2"/>
<path d="M203.849 222.289L196.129 225.175L195.376 269.594L203.097 266.708L203.849 222.289Z" fill="white" stroke="black" stroke-width="2"/>
<path d="M165.261 285.147L162.154 286.312L162.097 289.671L165.205 288.506L165.261 285.147Z" fill="white" stroke="black" stroke-width="2"/>
<path d="M169.75 283.423L166.643 284.588L166.586 287.947L169.693 286.783L169.75 283.423Z" fill="white" stroke="black" stroke-width="2"/>
<path d="M174.241 281.7L171.134 282.865L171.078 286.224L174.185 285.06L174.241 281.7Z" fill="white" stroke="black" stroke-width="2"/>
<path d="M268.754 175.817L265.82 173.348L253.231 171.507L254.32 174.891L267.132 178.363L268.754 175.817Z" fill="#573711"/>
<path d="M269.275 170.381L264.16 166.238H258.376V169.101L267.131 172.114L269.275 170.381Z" fill="#D1D1D1"/>
<path d="M268.74 170.88C269.077 170.567 269.543 170.432 269.994 170.519L274.852 171.448C275.053 171.487 275.26 171.482 275.46 171.434L284.056 169.367C285.045 169.129 285.483 167.97 284.9 167.138C284.644 166.772 284.233 166.545 283.786 166.524L280.367 166.364C279.22 166.31 278.593 165.004 279.268 164.076L281.182 161.441C281.454 161.068 281.887 160.847 282.349 160.847H287.724L288.824 160.801C289.596 160.769 290.206 160.133 290.206 159.36V157.621C290.206 156.926 289.711 156.33 289.028 156.203L282.343 154.96C282.234 154.94 282.123 154.932 282.012 154.938L274.86 155.274C274.649 155.284 274.443 155.34 274.256 155.439L262.204 161.793C261.946 161.929 261.735 162.141 261.599 162.399L259.406 166.581C259.297 166.788 259.24 167.018 259.24 167.251V168.845C259.24 169.461 259.632 170.009 260.215 170.209L266.16 172.243C266.663 172.416 267.221 172.297 267.61 171.934L268.74 170.88Z" fill="white" stroke="black" stroke-width="2"/>
<path d="M266.575 178.31C266.974 178.436 267.396 178.198 267.494 177.791L269.083 171.181C269.185 170.757 268.891 170.341 268.457 170.295L265.801 170.018C265.736 170.012 265.673 169.996 265.613 169.973L260.922 168.136C260.861 168.112 260.802 168.08 260.749 168.039L259.126 166.807C258.748 166.52 258.201 166.67 258.022 167.11L255.259 173.909C255.1 174.299 255.308 174.741 255.709 174.868L266.575 178.31Z" fill="black"/>
<path d="M320.551 390.451C321.528 392.058 321.987 393.927 321.865 395.804L321.655 399.04C321.497 401.485 319.645 403.485 317.219 403.829C315.429 404.083 313.635 403.385 312.489 401.986L309.233 398.014C308.595 397.236 308.143 396.322 307.911 395.343C307.542 393.781 306.617 392.407 305.309 391.476L304.384 390.818C302.441 389.435 301.331 387.163 301.434 384.78C301.618 380.534 305.496 377.42 309.682 378.156L310.158 378.24C312.272 378.612 314.124 379.877 315.239 381.712L320.551 390.451Z" fill="white" stroke="black" stroke-width="2"/>
<path d="M281.405 396.832C280.653 396.832 279.902 396.905 279.164 397.051L263.785 400.097C261.588 400.532 260.006 402.459 260.006 404.699C260.006 406.043 260.582 407.322 261.588 408.212L263.144 409.588C264.584 410.862 266.382 411.658 268.292 411.868L282.231 413.397L294.902 416.204C296.568 416.573 298.31 416.106 299.569 414.953C300.65 413.962 301.266 412.562 301.266 411.095V409.522C301.266 406.777 299.987 404.19 297.807 402.523L293.461 399.202C291.45 397.664 288.988 396.832 286.456 396.832H281.405Z" fill="white" stroke="black" stroke-width="2"/>
<path d="M326.473 269.685C327.009 270.539 327.278 271.534 327.243 272.542L325.46 325.042C325.449 325.364 325.469 325.687 325.52 326.005L328.385 344.052C328.449 344.458 328.464 344.871 328.428 345.28L324.611 389.24C324.385 391.848 322.202 393.85 319.584 393.85H314.869C313.597 393.85 312.372 393.369 311.439 392.505L306.911 388.31C306.279 387.724 305.808 386.987 305.541 386.167L304.148 381.879C303.974 381.343 303.891 380.78 303.902 380.216L304.831 335.107C304.839 334.713 304.8 334.319 304.717 333.933L299.82 311.371C299.755 311.068 299.717 310.76 299.708 310.451L298.61 273.491C298.539 271.082 300.18 268.959 302.529 268.422L319.277 264.591C321.369 264.113 323.534 265.009 324.676 266.826L326.473 269.685Z" fill="black"/>
<path d="M322.386 270.204C322.241 271.972 321.179 273.533 319.59 274.318L308.531 279.775C306.902 280.579 305.831 282.196 305.726 284.01L302.646 337.351C302.618 337.833 302.659 338.318 302.769 338.788L305.322 349.731C305.43 350.192 305.472 350.667 305.447 351.141L302.813 401.562C302.691 403.912 300.96 405.865 298.643 406.27L293.797 407.117C293.089 407.241 292.362 407.212 291.666 407.032L285.267 405.38C283.742 404.986 282.489 403.903 281.878 402.451L279.951 397.874C279.69 397.254 279.556 396.588 279.556 395.916V332.118C279.556 331.84 279.533 331.562 279.487 331.288L270.005 274.402C269.857 273.518 269.948 272.612 270.267 271.775L279.622 247.233C280.433 245.103 282.572 243.782 284.84 244.009L319.279 247.453C322.017 247.726 324.031 250.144 323.806 252.887L322.386 270.204Z" fill="black"/>
<path d="M277.085 183.688L290.745 172.391L292.52 170.363L312.496 165.012L315.673 163.882L322.552 165.153C325.502 165.698 327.958 167.731 329.045 170.527L333.664 182.415C334.212 183.823 334.381 185.351 334.154 186.845L327.915 228.01C327.823 228.617 327.796 229.232 327.834 229.845L330.179 267.393C330.371 270.467 328.914 273.411 326.353 275.123L320.325 279.154C319.491 279.713 318.355 279.268 318.122 278.291L313.212 257.768V280.962C313.212 281.649 312.727 282.24 312.054 282.375L301.51 284.493C300.566 284.683 299.597 284.713 298.643 284.584L282.9 282.447C281.254 282.224 279.707 281.531 278.444 280.452L271.402 274.435C269.322 272.658 268.205 270.002 268.39 267.272L270.707 233.128L269.276 206.839L277.085 183.688Z" fill="white" stroke="black" stroke-width="2"/>
<path d="M288.736 158.135L291.328 165.475V167.637L297.614 169.335L310.503 165.631L312.496 160.498L311.327 150.738L308.882 146.801L288.623 151.432L288.736 158.135Z" fill="white" stroke="black" stroke-width="2"/>
<path d="M285.053 122.871C284.496 122.976 284.002 123.295 283.678 123.76L278.708 130.888C278.455 131.25 278.32 131.682 278.32 132.125V137.232C278.32 137.463 278.357 137.692 278.429 137.912L278.78 138.97C278.883 139.282 278.914 139.613 278.87 139.939L278.38 143.579C278.34 143.872 278.361 144.17 278.441 144.454L281.749 156.211C281.877 156.665 282.151 157.065 282.527 157.35L284.423 158.783C285.039 159.248 285.857 159.35 286.568 159.05L295.165 155.421C295.883 155.117 296.383 154.451 296.472 153.676L298.833 133.246C298.892 132.731 298.765 132.212 298.474 131.783L292.388 122.816C291.905 122.104 291.045 121.746 290.199 121.905L285.053 122.871Z" fill="white" stroke="black" stroke-width="2"/>
<path d="M313.462 146.541C312.626 148.911 311.023 150.934 308.908 152.292C307.468 153.216 305.836 153.801 304.136 154.003L301.777 154.283C298.354 154.689 294.943 153.432 292.603 150.901L292.412 150.695C291.666 149.888 291.071 148.954 290.653 147.938L289.907 146.118C289.731 145.69 289.437 145.32 289.059 145.052L288.543 144.688C287.773 144.142 286.709 144.295 286.123 145.036C285.596 145.703 284.669 145.903 283.913 145.511L283.445 145.269C282.691 144.879 282.198 144.121 282.145 143.273L281.763 137.074C281.668 135.539 282.237 134.036 283.324 132.948C283.824 132.447 284.418 132.051 285.072 131.781L286.879 131.034C288.056 130.548 288.837 129.414 288.872 128.14C288.901 127.07 288.397 126.055 287.527 125.431L287.415 125.35C285.703 124.123 285.462 121.67 286.901 120.132L287.465 119.53C288.261 118.679 289.374 118.197 290.54 118.197H295.45C298.569 118.197 301.616 119.136 304.194 120.892L305.885 122.043C308.529 123.844 310.704 126.253 312.227 129.067C313.811 131.995 314.641 135.271 314.641 138.601V140.73C314.641 142.365 314.363 143.988 313.819 145.53L313.462 146.541Z" fill="black"/>
<path d="M314.681 165.092C315.287 164.354 315.413 163.332 315.004 162.469C314.306 160.993 312.394 160.588 311.157 161.653L309.367 163.196C308.844 163.647 308.218 163.964 307.545 164.121L298.675 166.18C297.602 166.429 296.489 166.451 295.406 166.246L290.963 165.405C290.138 165.249 289.354 165.828 289.262 166.663L288.478 173.747L293.059 173.395C297.533 173.051 301.97 172.324 306.32 171.223L307.997 170.798C309.641 170.382 311.108 169.45 312.183 168.139L314.681 165.092Z" fill="white" stroke="black" stroke-width="2"/>
<path d="M287.315 203.123C289.48 200.305 290.233 196.649 289.358 193.204C288.345 189.222 285.3 186.073 281.354 184.927L277.404 183.781C277.201 183.722 276.983 183.755 276.807 183.871L266.834 190.434C266.295 190.789 265.596 190.309 265.734 189.678L268.57 176.663C268.666 176.223 268.339 175.803 267.889 175.789L264.133 175.668C264.073 175.666 264.014 175.656 263.956 175.64L257.179 173.679C257.127 173.664 257.076 173.643 257.029 173.617L254.089 171.984C253.664 171.747 253.131 171.992 253.033 172.469L246.54 204.007C245.859 207.313 246.905 210.738 249.315 213.101C251.715 215.453 255.142 216.432 258.423 215.703L275.354 211.936C279.398 211.036 282.997 208.743 285.521 205.458L287.315 203.123Z" fill="white" stroke="black" stroke-width="2"/>
</svg>
