<svg width="544" height="496" viewBox="0 0 544 496" fill="none" xmlns="http://www.w3.org/2000/svg">
<path d="M428.359 238.338C428.524 241.18 428.617 244.042 428.636 246.921L427.783 246.926C427.785 247.284 427.787 247.642 427.787 248C427.787 248.358 427.785 248.716 427.783 249.073L428.636 249.079C428.617 251.958 428.524 254.82 428.359 257.662L427.508 257.612C427.466 258.326 427.42 259.038 427.369 259.749L428.22 259.809C428.015 262.679 427.737 265.528 427.386 268.355L426.54 268.25C426.453 268.957 426.36 269.663 426.264 270.367L427.108 270.483C426.717 273.331 426.253 276.156 425.717 278.956L424.88 278.795C424.746 279.493 424.608 280.19 424.466 280.885L425.301 281.056C424.724 283.871 424.074 286.66 423.354 289.421L422.53 289.206C422.35 289.897 422.165 290.586 421.976 291.273L422.798 291.499C422.037 294.268 421.205 297.008 420.304 299.716L419.495 299.447C419.271 300.123 419.041 300.797 418.808 301.469L419.613 301.749C418.672 304.46 417.661 307.139 416.583 309.783L415.793 309.461C415.525 310.12 415.252 310.776 414.975 311.43L415.76 311.762C414.642 314.405 413.457 317.012 412.206 319.581L411.44 319.208C411.128 319.849 410.812 320.488 410.492 321.124L411.253 321.507C409.964 324.068 408.61 326.591 407.193 329.074L406.453 328.651C406.1 329.27 405.743 329.886 405.382 330.499L406.117 330.931C404.664 333.401 403.147 335.83 401.57 338.215L400.859 337.745C400.467 338.339 400.07 338.93 399.67 339.518L400.375 339.998C398.764 342.367 397.092 344.692 395.361 346.97L394.683 346.455C394.252 347.022 393.817 347.586 393.379 348.148L394.051 348.672C392.29 350.93 390.47 353.141 388.595 355.302L387.951 354.744C387.484 355.282 387.014 355.816 386.541 356.348L387.177 356.915C385.273 359.053 383.313 361.141 381.3 363.176L380.694 362.577C380.194 363.083 379.69 363.586 379.183 364.086L379.781 364.693C377.742 366.702 375.651 368.658 373.51 370.559L372.944 369.922C372.412 370.394 371.876 370.864 371.337 371.329L371.895 371.974C369.731 373.846 367.517 375.662 365.256 377.42L364.732 376.747C364.17 377.184 363.605 377.618 363.037 378.048L363.552 378.727C361.271 380.454 358.943 382.122 356.571 383.73L356.093 383.024C355.504 383.423 354.912 383.819 354.318 384.21L354.787 384.922C352.4 386.495 349.969 388.008 347.496 389.458L347.065 388.722C346.451 389.082 345.835 389.438 345.216 389.791L345.637 390.532C343.153 391.945 340.628 393.295 338.065 394.581L337.682 393.819C337.046 394.138 336.406 394.453 335.765 394.764L336.137 395.531C333.566 396.779 330.958 397.961 328.314 399.075L327.983 398.29C327.328 398.566 326.672 398.838 326.013 399.106L326.334 399.895C323.688 400.97 321.008 401.978 318.296 402.917L318.018 402.111C317.345 402.344 316.671 402.573 315.995 402.797L316.263 403.606C313.554 404.504 310.813 405.333 308.044 406.092L307.818 405.27C307.131 405.458 306.442 405.642 305.751 405.822L305.965 406.647C303.204 407.364 300.414 408.011 297.598 408.587L297.428 407.752C296.733 407.894 296.036 408.031 295.338 408.164L295.498 409.002C292.698 409.535 289.873 409.998 287.025 410.388L286.909 409.544C286.205 409.64 285.499 409.732 284.792 409.819L284.897 410.665C282.07 411.015 279.22 411.292 276.35 411.496L276.29 410.646C275.579 410.696 274.867 410.742 274.153 410.784L274.203 411.635C271.361 411.799 268.499 411.892 265.62 411.911L265.614 411.058C265.257 411.06 264.899 411.062 264.541 411.062C264.183 411.062 263.825 411.06 263.467 411.058L263.462 411.911C260.583 411.892 257.721 411.799 254.879 411.635L254.928 410.784C254.215 410.742 253.502 410.696 252.792 410.646L252.731 411.496C249.861 411.292 247.012 411.015 244.185 410.665L244.289 409.819C243.582 409.732 242.877 409.64 242.173 409.544L242.057 410.388C239.209 409.998 236.383 409.535 233.584 409.002L233.743 408.164C233.045 408.031 232.349 407.894 231.654 407.752L231.483 408.587C228.667 408.011 225.878 407.364 223.116 406.647L223.331 405.822C222.64 405.642 221.951 405.458 221.263 405.27L221.038 406.092C218.268 405.333 215.528 404.504 212.818 403.606L213.087 402.797C212.41 402.573 211.736 402.344 211.064 402.111L210.785 402.917C208.073 401.978 205.393 400.97 202.748 399.895L203.069 399.106C202.41 398.838 201.753 398.566 201.098 398.29L200.767 399.075C198.124 397.961 195.515 396.779 192.944 395.531L193.317 394.765C192.675 394.453 192.036 394.138 191.399 393.819L191.017 394.581C188.454 393.295 185.929 391.945 183.444 390.532L183.866 389.791C183.247 389.438 182.631 389.082 182.017 388.722L181.585 389.458C179.113 388.008 176.682 386.495 174.294 384.922L174.763 384.21C174.169 383.819 173.577 383.423 172.988 383.024L172.51 383.73C170.138 382.122 167.811 380.454 165.53 378.727L166.044 378.048C165.476 377.618 164.911 377.184 164.349 376.747L163.826 377.42C161.565 375.662 159.351 373.846 157.186 371.974L157.744 371.329C157.205 370.864 156.67 370.394 156.138 369.922L155.572 370.559C153.43 368.658 151.339 366.702 149.3 364.693L149.899 364.086C149.392 363.586 148.888 363.083 148.387 362.577L147.781 363.176C145.768 361.141 143.809 359.053 141.904 356.915L142.541 356.348C142.067 355.816 141.597 355.282 141.131 354.744L140.487 355.302C138.611 353.141 136.792 350.93 135.03 348.672L135.702 348.148C135.264 347.586 134.83 347.022 134.399 346.455L133.72 346.97C131.99 344.692 130.318 342.367 128.707 339.998L129.411 339.518C129.011 338.93 128.615 338.339 128.222 337.745L127.511 338.215C125.934 335.83 124.418 333.401 122.965 330.931L123.699 330.499C123.338 329.886 122.981 329.27 122.628 328.651L121.888 329.074C120.471 326.591 119.117 324.068 117.828 321.507L118.59 321.124C118.27 320.488 117.954 319.849 117.642 319.208L116.875 319.581C115.624 317.012 114.439 314.405 113.321 311.762L114.106 311.43C113.829 310.776 113.557 310.12 113.288 309.461L112.499 309.783C111.421 307.139 110.41 304.46 109.468 301.749L110.274 301.469C110.04 300.797 109.811 300.123 109.586 299.447L108.777 299.716C107.876 297.008 107.044 294.268 106.283 291.499L107.105 291.273C106.916 290.586 106.732 289.897 106.552 289.206L105.727 289.421C105.007 286.661 104.358 283.871 103.781 281.056L104.616 280.885C104.473 280.19 104.335 279.493 104.202 278.796L103.365 278.956C102.829 276.156 102.364 273.331 101.973 270.483L102.818 270.367C102.721 269.663 102.629 268.958 102.541 268.251L101.695 268.355C101.345 265.528 101.066 262.679 100.862 259.809L101.712 259.749C101.661 259.038 101.615 258.326 101.574 257.612L100.723 257.662C100.557 254.82 100.464 251.958 100.446 249.079L101.298 249.073C101.296 248.716 101.295 248.358 101.295 248C101.295 247.642 101.296 247.284 101.298 246.927L100.446 246.921C100.464 244.042 100.557 241.18 100.723 238.338L101.574 238.387C101.615 237.674 101.661 236.962 101.712 236.251L100.862 236.19C101.066 233.321 101.345 230.471 101.695 227.644L102.541 227.749C102.629 227.042 102.721 226.337 102.818 225.633L101.973 225.517C102.364 222.668 102.829 219.844 103.365 217.044L104.202 217.204C104.335 216.506 104.473 215.81 104.616 215.115L103.781 214.944C104.358 212.128 105.007 209.339 105.727 206.578L106.552 206.793C106.732 206.103 106.916 205.414 107.105 204.726L106.283 204.5C107.044 201.731 107.876 198.992 108.777 196.283L109.586 196.552C109.811 195.876 110.04 195.202 110.273 194.53L109.468 194.251C110.41 191.54 111.421 188.861 112.499 186.217L113.288 186.539C113.557 185.88 113.829 185.224 114.106 184.569L113.321 184.237C114.439 181.595 115.624 178.988 116.875 176.419L117.641 176.792C117.954 176.151 118.27 175.512 118.59 174.876L117.828 174.493C119.117 171.931 120.471 169.408 121.888 166.926L122.628 167.348C122.981 166.73 123.338 166.114 123.699 165.501L122.965 165.068C124.418 162.598 125.934 160.169 127.511 157.784L128.222 158.254C128.615 157.661 129.011 157.07 129.411 156.481L128.707 156.002C130.318 153.633 131.99 151.308 133.72 149.029L134.399 149.545C134.83 148.978 135.264 148.413 135.702 147.852L135.03 147.328C136.792 145.069 138.611 142.859 140.487 140.697L141.131 141.256C141.597 140.718 142.067 140.183 142.541 139.652L141.904 139.085C143.809 136.947 145.768 134.859 147.781 132.823L148.387 133.423C148.888 132.917 149.392 132.413 149.899 131.914L149.3 131.307C151.339 129.298 153.43 127.341 155.572 125.44L156.138 126.078C156.67 125.605 157.205 125.136 157.744 124.67L157.186 124.026C159.351 122.154 161.565 120.338 163.826 118.58L164.349 119.253C164.911 118.816 165.476 118.382 166.044 117.952L165.53 117.272C167.811 115.546 170.138 113.878 172.51 112.27L172.988 112.976C173.577 112.577 174.169 112.181 174.763 111.789L174.294 111.078C176.682 109.504 179.113 107.992 181.585 106.542L182.017 107.277C182.63 106.917 183.247 106.561 183.866 106.209L183.444 105.468C185.929 104.055 188.454 102.704 191.017 101.419L191.399 102.181C192.036 101.862 192.675 101.546 193.316 101.235L192.944 100.468C195.515 99.2211 198.124 98.0391 200.767 96.9243L201.098 97.7097C201.753 97.4337 202.41 97.1618 203.069 96.894L202.748 96.1043C205.393 95.0295 208.073 94.0216 210.785 93.0828L211.064 93.8883C211.736 93.6556 212.41 93.4272 213.087 93.203L212.818 92.3938C215.528 91.4958 218.268 90.6664 221.038 89.9077L221.263 90.7298C221.951 90.5415 222.64 90.3576 223.331 90.1781L223.116 89.353C225.878 88.6356 228.667 87.9883 231.483 87.413L231.654 88.2482C232.349 88.1062 233.045 87.9687 233.743 87.8355L233.584 86.9982C236.383 86.4642 239.209 86.0014 242.057 85.6115L242.173 86.4561C242.877 86.3597 243.582 86.2679 244.289 86.1805L244.185 85.3345C247.012 84.9851 249.861 84.7075 252.731 84.5036L252.792 85.354C253.502 85.3035 254.215 85.2575 254.928 85.2161L254.879 84.3651C257.721 84.2003 260.583 84.1077 263.462 84.0892L263.467 84.9416C263.825 84.9393 264.183 84.9382 264.541 84.9382C264.899 84.9382 265.257 84.9393 265.614 84.9416L265.62 84.0892C268.499 84.1077 271.361 84.2003 274.203 84.3651L274.153 85.2161C274.867 85.2575 275.579 85.3035 276.29 85.354L276.35 84.5036C279.22 84.7075 282.07 84.9851 284.897 85.3344L284.792 86.1805C285.499 86.2678 286.205 86.3597 286.909 86.4561L287.024 85.6115C289.873 86.0014 292.698 86.4642 295.498 86.9982L295.338 87.8355C296.036 87.9686 296.733 88.1062 297.428 88.2482L297.598 87.413C300.414 87.9883 303.204 88.6356 305.965 89.353L305.751 90.1781C306.442 90.3576 307.131 90.5415 307.818 90.7298L308.044 89.9077C310.813 90.6664 313.554 91.4958 316.263 92.3938L315.995 93.203C316.671 93.4271 317.345 93.6556 318.017 93.8883L318.296 93.0827C321.008 94.0216 323.688 95.0294 326.334 96.1043L326.013 96.894C326.672 97.1618 327.328 97.4337 327.983 97.7097L328.314 96.9243C330.958 98.0391 333.566 99.2211 336.137 100.468L335.765 101.235C336.406 101.546 337.046 101.862 337.682 102.181L338.064 101.419C340.628 102.704 343.153 104.055 345.637 105.468L345.216 106.209C345.835 106.561 346.451 106.917 347.065 107.277L347.496 106.542C349.969 107.992 352.4 109.504 354.787 111.078L354.318 111.789C354.912 112.181 355.504 112.577 356.093 112.976L356.571 112.27C358.943 113.878 361.271 115.546 363.552 117.272L363.037 117.952C363.605 118.382 364.17 118.816 364.732 119.253L365.256 118.58C367.517 120.338 369.731 122.154 371.895 124.026L371.337 124.67C371.876 125.136 372.412 125.605 372.944 126.078L373.51 125.44C375.651 127.341 377.742 129.298 379.781 131.307L379.183 131.914C379.69 132.413 380.194 132.917 380.694 133.423L381.3 132.823C383.313 134.859 385.273 136.947 387.177 139.085L386.541 139.652C387.014 140.183 387.484 140.718 387.951 141.256L388.595 140.697C390.47 142.859 392.29 145.069 394.051 147.328L393.379 147.852C393.817 148.413 394.252 148.978 394.683 149.545L395.361 149.029C397.092 151.308 398.763 153.633 400.375 156.002L399.67 156.481C400.07 157.07 400.467 157.661 400.859 158.254L401.57 157.784C403.147 160.169 404.664 162.598 406.117 165.068L405.382 165.501C405.743 166.114 406.1 166.73 406.453 167.348L407.193 166.926C408.61 169.408 409.964 171.931 411.253 174.493L410.492 174.876C410.812 175.512 411.128 176.151 411.44 176.792L412.206 176.419C413.457 178.988 414.642 181.595 415.76 184.237L414.975 184.569C415.252 185.224 415.525 185.88 415.793 186.539L416.583 186.217C417.661 188.861 418.672 191.54 419.613 194.251L418.808 194.53C419.041 195.202 419.271 195.876 419.495 196.552L420.304 196.283C421.205 198.992 422.037 201.731 422.798 204.5L421.976 204.726C422.165 205.414 422.35 206.103 422.53 206.793L423.354 206.578C424.074 209.339 424.724 212.128 425.301 214.944L424.466 215.115C424.608 215.81 424.746 216.506 424.88 217.204L425.717 217.044C426.253 219.844 426.717 222.668 427.108 225.517L426.264 225.633C426.36 226.337 426.453 227.042 426.54 227.749L427.386 227.644C427.737 230.471 428.015 233.321 428.22 236.19L427.369 236.251C427.42 236.962 427.466 237.674 427.508 238.387L428.359 238.338Z" stroke="#8C9096" stroke-width="1.70492" stroke-dasharray="2.13 8.52"/>
<path d="M468.907 238.312C469.039 241.166 469.114 244.035 469.129 246.918L468.596 246.921C468.598 247.28 468.599 247.64 468.599 248C468.599 248.36 468.598 248.72 468.596 249.079L469.129 249.082C469.114 251.965 469.039 254.834 468.907 257.688L468.374 257.664C468.341 258.38 468.304 259.095 468.264 259.809L468.795 259.839C468.632 262.716 468.409 265.577 468.128 268.421L467.598 268.368C467.527 269.083 467.453 269.795 467.375 270.507L467.905 270.565C467.592 273.428 467.22 276.272 466.79 279.098L466.263 279.018C466.155 279.728 466.044 280.437 465.929 281.144L466.454 281.23C465.992 284.071 465.471 286.892 464.893 289.692L464.371 289.584C464.226 290.288 464.077 290.989 463.925 291.69L464.446 291.803C463.834 294.615 463.165 297.405 462.44 300.172L461.925 300.037C461.743 300.731 461.557 301.424 461.368 302.115L461.882 302.256C461.124 305.031 460.308 307.782 459.437 310.508L458.93 310.346C458.711 311.029 458.49 311.711 458.265 312.391L458.77 312.558C457.866 315.288 456.907 317.993 455.892 320.671L455.394 320.482C455.14 321.152 454.883 321.821 454.623 322.487L455.119 322.681C454.072 325.359 452.971 328.01 451.816 330.631L451.329 330.417C451.04 331.072 450.748 331.726 450.453 332.378L450.938 332.598C449.752 335.216 448.513 337.805 447.221 340.363L446.746 340.123C446.423 340.762 446.097 341.399 445.768 342.035L446.241 342.28C444.919 344.831 443.545 347.352 442.121 349.84L441.659 349.575C441.303 350.196 440.944 350.815 440.582 351.432L441.042 351.702C439.588 354.18 438.084 356.625 436.531 359.035L436.083 358.747C435.695 359.348 435.304 359.948 434.911 360.545L435.355 360.838C433.774 363.236 432.144 365.599 430.467 367.926L430.035 367.614C429.616 368.195 429.195 368.773 428.77 369.349L429.199 369.665C427.495 371.976 425.744 374.251 423.947 376.488L423.532 376.154C423.084 376.712 422.633 377.267 422.179 377.82L422.591 378.158C420.769 380.377 418.902 382.558 416.99 384.698L416.593 384.343C416.116 384.877 415.637 385.408 415.154 385.937L415.548 386.296C413.614 388.417 411.636 390.497 409.615 392.536L409.237 392.161C408.733 392.669 408.226 393.175 407.717 393.678L408.092 394.057C406.05 396.074 403.966 398.048 401.842 399.979L401.484 399.585C400.954 400.066 400.422 400.545 399.888 401.021L400.242 401.419C398.098 403.326 395.915 405.19 393.692 407.008L393.355 406.596C392.801 407.049 392.245 407.499 391.687 407.946L392.02 408.362C389.78 410.155 387.503 411.903 385.188 413.603L384.873 413.173C384.296 413.597 383.717 414.017 383.136 414.435L383.447 414.868C381.118 416.541 378.753 418.168 376.352 419.745L376.059 419.3C375.461 419.693 374.861 420.083 374.259 420.469L374.547 420.918C372.135 422.467 369.687 423.968 367.207 425.418L366.938 424.958C366.32 425.319 365.701 425.677 365.079 426.031L365.343 426.494C362.853 427.915 360.331 429.285 357.778 430.604L357.533 430.13C356.897 430.458 356.26 430.784 355.62 431.105L355.86 431.581C353.3 432.869 350.709 434.105 348.089 435.288L347.87 434.802C347.218 435.097 346.564 435.388 345.908 435.676L346.122 436.164C343.499 437.315 340.847 438.413 338.168 439.457L337.975 438.96C337.307 439.22 336.639 439.477 335.968 439.73L336.156 440.228C333.477 441.239 330.772 442.196 328.041 443.097L327.874 442.591C327.194 442.816 326.512 443.037 325.829 443.254L325.99 443.762C323.263 444.63 320.511 445.443 317.736 446.2L317.595 445.686C316.904 445.874 316.211 446.059 315.517 446.24L315.652 446.756C312.884 447.479 310.093 448.146 307.281 448.755L307.168 448.234C306.467 448.386 305.765 448.534 305.062 448.679L305.169 449.201C302.369 449.777 299.547 450.296 296.706 450.757L296.621 450.231C295.913 450.346 295.204 450.457 294.494 450.565L294.574 451.092C291.748 451.52 288.903 451.89 286.041 452.203L285.983 451.673C285.271 451.75 284.558 451.824 283.844 451.895L283.897 452.425C281.053 452.705 278.192 452.927 275.315 453.09L275.285 452.558C274.571 452.599 273.855 452.636 273.139 452.669L273.164 453.201C270.31 453.333 267.441 453.407 264.557 453.422L264.555 452.889C264.195 452.891 263.835 452.892 263.476 452.892C263.116 452.892 262.756 452.891 262.396 452.889L262.394 453.422C259.51 453.407 256.641 453.333 253.787 453.201L253.812 452.669C253.096 452.636 252.38 452.599 251.666 452.558L251.636 453.09C248.759 452.927 245.898 452.705 243.054 452.425L243.107 451.895C242.393 451.824 241.68 451.75 240.968 451.673L240.91 452.202C238.048 451.89 235.203 451.52 232.377 451.092L232.457 450.565C231.747 450.457 231.038 450.346 230.33 450.231L230.245 450.757C227.404 450.296 224.583 449.777 221.782 449.201L221.889 448.679C221.186 448.534 220.484 448.386 219.783 448.234L219.67 448.755C216.858 448.146 214.067 447.479 211.3 446.756L211.434 446.24C210.74 446.059 210.047 445.874 209.356 445.686L209.216 446.2C206.44 445.443 203.688 444.63 200.961 443.762L201.123 443.254C200.439 443.037 199.758 442.816 199.077 442.591L198.91 443.097C196.179 442.196 193.474 441.239 190.795 440.228L190.983 439.73C190.312 439.477 189.644 439.22 188.977 438.96L188.783 439.457C186.104 438.413 183.452 437.315 180.829 436.164L181.043 435.676C180.387 435.388 179.733 435.097 179.081 434.802L178.862 435.288C176.242 434.105 173.651 432.869 171.092 431.581L171.331 431.105C170.691 430.784 170.054 430.458 169.418 430.13L169.173 430.604C166.62 429.285 164.098 427.915 161.608 426.494L161.872 426.031C161.25 425.677 160.631 425.319 160.013 424.958L159.744 425.418C157.264 423.968 154.817 422.467 152.404 420.918L152.692 420.469C152.09 420.083 151.49 419.693 150.892 419.3L150.599 419.745C148.199 418.168 145.833 416.541 143.504 414.868L143.815 414.435C143.234 414.017 142.655 413.597 142.078 413.173L141.763 413.603C139.448 411.903 137.171 410.155 134.931 408.362L135.264 407.946C134.706 407.499 134.15 407.049 133.596 406.596L133.259 407.008C131.036 405.19 128.853 403.326 126.709 401.418L127.064 401.021C126.529 400.545 125.997 400.066 125.468 399.585L125.109 399.979C122.985 398.048 120.901 396.074 118.859 394.057L119.234 393.678C118.725 393.175 118.218 392.669 117.714 392.161L117.336 392.536C115.315 390.497 113.337 388.417 111.403 386.296L111.797 385.937C111.314 385.408 110.835 384.877 110.358 384.343L109.961 384.698C108.05 382.558 106.182 380.377 104.361 378.158L104.772 377.82C104.319 377.267 103.867 376.712 103.419 376.154L103.004 376.488C101.207 374.251 99.4558 371.976 97.7519 369.665L98.1808 369.349C97.7564 368.773 97.3349 368.195 96.9164 367.614L96.4843 367.926C94.8067 365.599 93.1767 363.236 91.5956 360.838L92.0405 360.545C91.6467 359.948 91.256 359.348 90.8684 358.747L90.4205 359.035C88.8672 356.625 87.3631 354.18 85.9094 351.702L86.369 351.432C86.007 350.815 85.6482 350.196 85.2925 349.575L84.8302 349.839C83.4057 347.352 82.0319 344.831 80.71 342.28L81.1831 342.035C80.854 341.399 80.5281 340.762 80.2054 340.123L79.7298 340.363C78.4384 337.805 77.199 335.216 76.0129 332.598L76.4982 332.378C76.2029 331.726 75.9109 331.072 75.6223 330.417L75.1347 330.631C73.9801 328.01 72.8789 325.359 71.8323 322.681L72.3285 322.487C72.0679 321.821 71.8107 321.152 71.5569 320.482L71.0586 320.671C70.0444 317.993 69.0847 315.288 68.1807 312.558L68.6864 312.391C68.4613 311.711 68.2396 311.029 68.0215 310.346L67.514 310.508C66.643 307.782 65.8275 305.031 65.0688 302.256L65.5827 302.115C65.3937 301.424 65.2083 300.731 65.0264 300.037L64.511 300.172C63.7857 297.405 63.1167 294.615 62.5054 291.803L63.026 291.69C62.8737 290.989 62.7249 290.288 62.5798 289.584L62.058 289.692C61.48 286.892 60.9592 284.071 60.4966 281.23L61.0225 281.144C60.9073 280.437 60.7957 279.728 60.6877 279.018L60.161 279.098C59.7314 276.272 59.3595 273.428 59.0464 270.565L59.576 270.507C59.4982 269.795 59.4239 269.083 59.3534 268.368L58.8232 268.421C58.5422 265.577 58.3193 262.716 58.1557 259.839L58.6876 259.809C58.647 259.095 58.61 258.38 58.5767 257.664L58.0445 257.688C57.9119 254.834 57.8375 251.965 57.8226 249.082L58.3554 249.079C58.3535 248.72 58.3526 248.36 58.3526 248C58.3526 247.64 58.3535 247.28 58.3554 246.921L57.8226 246.918C57.8375 244.035 57.9119 241.166 58.0445 238.312L58.5767 238.336C58.61 237.62 58.647 236.905 58.6876 236.191L58.1557 236.161C58.3193 233.284 58.5422 230.423 58.8232 227.579L59.3534 227.632C59.4239 226.918 59.4982 226.205 59.576 225.493L59.0464 225.435C59.3595 222.573 59.7314 219.728 60.161 216.902L60.6877 216.982C60.7957 216.272 60.9073 215.564 61.0225 214.856L60.4966 214.77C60.9592 211.93 61.48 209.109 62.058 206.308L62.5798 206.416C62.7249 205.713 62.8737 205.011 63.026 204.31L62.5054 204.197C63.1167 201.385 63.7857 198.595 64.511 195.828L65.0264 195.963C65.2083 195.269 65.3937 194.576 65.5827 193.885L65.0688 193.744C65.8275 190.97 66.643 188.218 67.5139 185.492L68.0215 185.654C68.2396 184.971 68.4613 184.289 68.6864 183.61L68.1807 183.442C69.0847 180.712 70.0444 178.007 71.0586 175.329L71.5569 175.518C71.8107 174.848 72.0679 174.18 72.3285 173.513L71.8323 173.319C72.8789 170.641 73.9801 167.991 75.1347 165.369L75.6223 165.583C75.9109 164.928 76.2029 164.274 76.4982 163.622L76.0129 163.403C77.199 160.784 78.4384 158.195 79.7298 155.637L80.2054 155.877C80.5281 155.238 80.854 154.601 81.1831 153.965L80.71 153.72C82.0319 151.169 83.4057 148.648 84.8302 146.161L85.2925 146.425C85.6482 145.804 86.007 145.185 86.369 144.568L85.9094 144.298C87.3631 141.82 88.8673 139.375 90.4205 136.965L90.8684 137.254C91.256 136.652 91.6467 136.053 92.0405 135.455L91.5956 135.162C93.1767 132.764 94.8067 130.401 96.4843 128.074L96.9164 128.386C97.3349 127.806 97.7564 127.227 98.1808 126.652L97.752 126.335C99.4558 124.024 101.207 121.749 103.004 119.512L103.419 119.846C103.867 119.288 104.319 118.733 104.772 118.18L104.361 117.842C106.182 115.623 108.05 113.442 109.961 111.302L110.358 111.657C110.835 111.123 111.314 110.592 111.797 110.063L111.403 109.704C113.337 107.583 115.315 105.503 117.336 103.464L117.714 103.839C118.218 103.331 118.725 102.826 119.234 102.323L118.859 101.944C120.901 99.9265 122.985 97.9518 125.109 96.0209L125.468 96.4152C125.997 95.9339 126.529 95.4554 127.064 94.9796L126.709 94.5816C128.853 92.6738 131.036 90.8102 133.259 88.9921L133.596 89.4045C134.15 88.9515 134.706 88.5014 135.264 88.0541L134.931 87.6382C137.171 85.8449 139.448 84.0975 141.763 82.3973L142.078 82.8267C142.655 82.4032 143.234 81.9827 143.815 81.5651L143.504 81.1324C145.833 79.4587 148.199 77.8324 150.599 76.2549L150.892 76.7002C151.49 76.3074 152.09 75.9176 152.692 75.5309L152.404 75.0826C154.817 73.5331 157.264 72.0326 159.744 70.5825L160.013 71.0425C160.631 70.6814 161.25 70.3235 161.872 69.9687L161.608 69.506C164.098 68.0852 166.62 66.7149 169.173 65.3965L169.418 65.8699C170.054 65.5417 170.691 65.2166 171.331 64.8948L171.092 64.4189C173.651 63.131 176.242 61.895 178.862 60.7122L179.081 61.1978C179.733 60.9033 180.387 60.6121 181.043 60.3243L180.829 59.8364C183.452 58.6852 186.104 57.5871 188.783 56.5435L188.977 57.04C189.644 56.7801 190.312 56.5236 190.983 56.2706L190.795 55.7721C193.474 54.761 196.179 53.8041 198.91 52.9028L199.077 53.4088C199.758 53.1843 200.439 52.9633 201.123 52.7458L200.961 52.2381C203.688 51.3698 206.44 50.5569 209.216 49.8006L209.356 50.3146C210.047 50.1262 210.74 49.9413 211.434 49.76L211.3 49.2445C214.067 48.5215 216.858 47.8546 219.67 47.2453L219.783 47.766C220.484 47.6141 221.186 47.4658 221.889 47.3212L221.782 46.7993C224.583 46.2233 227.404 45.7041 230.245 45.2431L230.33 45.769C231.038 45.6542 231.747 45.5429 232.457 45.4354L232.377 44.9086C235.203 44.4804 238.048 44.1097 240.91 43.7977L240.968 44.3273C241.68 44.2497 242.393 44.1757 243.107 44.1054L243.054 43.5752C245.898 43.2952 248.759 43.073 251.636 42.9099L251.666 43.4418C252.381 43.4014 253.096 43.3645 253.812 43.3313L253.787 42.7991C256.641 42.6669 259.51 42.5928 262.394 42.578L262.396 43.1108C262.756 43.1089 263.116 43.108 263.476 43.108C263.836 43.108 264.195 43.1089 264.555 43.1108L264.558 42.578C267.441 42.5928 270.31 42.6669 273.164 42.7991L273.139 43.3313C273.855 43.3645 274.571 43.4014 275.285 43.4418L275.315 42.9099C278.192 43.073 281.053 43.2952 283.897 43.5752L283.844 44.1054C284.558 44.1757 285.271 44.2497 285.983 44.3273L286.041 43.7977C288.903 44.1097 291.748 44.4804 294.574 44.9086L294.494 45.4354C295.204 45.543 295.913 45.6542 296.621 45.769L296.706 45.2431C299.547 45.7041 302.369 46.2233 305.169 46.7993L305.062 47.3212C305.765 47.4658 306.467 47.6141 307.168 47.766L307.281 47.2453C310.093 47.8546 312.884 48.5215 315.652 49.2445L315.517 49.76C316.211 49.9413 316.904 50.1262 317.595 50.3146L317.735 49.8006C320.511 50.5569 323.263 51.3698 325.99 52.2381L325.829 52.7458C326.512 52.9633 327.194 53.1843 327.874 53.4087L328.041 52.9028C330.772 53.8041 333.477 54.7609 336.156 55.7721L335.968 56.2706C336.639 56.5236 337.307 56.7801 337.975 57.04L338.168 56.5435C340.847 57.5871 343.499 58.6852 346.122 59.8364L345.908 60.3243C346.564 60.6121 347.218 60.9033 347.87 61.1978L348.089 60.7122C350.709 61.895 353.3 63.131 355.86 64.4189L355.62 64.8948C356.26 65.2166 356.897 65.5417 357.533 65.8699L357.778 65.3965C360.331 66.7149 362.853 68.0852 365.343 69.506L365.079 69.9687C365.701 70.3235 366.32 70.6814 366.938 71.0425L367.207 70.5825C369.687 72.0326 372.135 73.5331 374.547 75.0826L374.259 75.5309C374.861 75.9176 375.461 76.3074 376.059 76.7002L376.352 76.255C378.753 77.8324 381.118 79.4587 383.447 81.1324L383.136 81.5651C383.717 81.9827 384.296 82.4032 384.873 82.8267L385.188 82.3973C387.503 84.0975 389.78 85.845 392.02 87.6382L391.687 88.0541C392.245 88.5014 392.801 88.9515 393.355 89.4045L393.692 88.9921C395.915 90.8102 398.098 92.6738 400.242 94.5816L399.888 94.9796C400.422 95.4554 400.954 95.9339 401.484 96.4152L401.842 96.0209C403.966 97.9518 406.05 99.9265 408.092 101.944L407.717 102.323C408.226 102.826 408.733 103.331 409.237 103.839L409.615 103.464C411.636 105.503 413.614 107.583 415.548 109.704L415.154 110.063C415.637 110.592 416.116 111.123 416.593 111.657L416.99 111.302C418.902 113.442 420.769 115.623 422.591 117.842L422.179 118.18C422.633 118.733 423.084 119.288 423.532 119.846L423.947 119.513C425.744 121.749 427.495 124.024 429.199 126.335L428.77 126.652C429.195 127.227 429.616 127.806 430.035 128.386L430.467 128.074C432.144 130.401 433.774 132.764 435.355 135.162L434.911 135.455C435.304 136.053 435.695 136.652 436.083 137.254L436.531 136.965C438.084 139.375 439.588 141.82 441.042 144.298L440.582 144.568C440.944 145.185 441.303 145.804 441.659 146.425L442.121 146.161C443.545 148.648 444.919 151.169 446.241 153.72L445.768 153.965C446.097 154.601 446.423 155.238 446.746 155.877L447.221 155.637C448.513 158.195 449.752 160.784 450.938 163.403L450.453 163.622C450.748 164.274 451.04 164.928 451.329 165.583L451.816 165.369C452.971 167.991 454.072 170.641 455.119 173.319L454.623 173.513C454.883 174.18 455.14 174.848 455.394 175.518L455.892 175.329C456.907 178.007 457.866 180.712 458.77 183.442L458.265 183.61C458.49 184.289 458.711 184.971 458.93 185.654L459.437 185.492C460.308 188.218 461.124 190.97 461.882 193.744L461.368 193.885C461.557 194.576 461.743 195.269 461.925 195.963L462.44 195.828C463.165 198.595 463.834 201.385 464.446 204.197L463.925 204.31C464.077 205.011 464.226 205.713 464.371 206.416L464.893 206.308C465.471 209.109 465.992 211.93 466.454 214.77L465.929 214.856C466.044 215.564 466.155 216.272 466.263 216.982L466.79 216.902C467.22 219.728 467.592 222.573 467.905 225.435L467.375 225.493C467.453 226.205 467.527 226.918 467.598 227.632L468.128 227.579C468.409 230.423 468.632 233.284 468.795 236.161L468.264 236.191C468.304 236.905 468.341 237.62 468.374 238.337L468.907 238.312Z" stroke="#8C9096" stroke-width="1.06557" stroke-dasharray="2.13 8.52"/>
<path d="M511.576 238.506C511.681 241.306 511.74 244.118 511.752 246.941L511.219 246.943C511.221 247.295 511.221 247.648 511.221 248L511.221 248.282C511.221 248.54 511.22 248.799 511.219 249.057L511.752 249.059C511.74 251.882 511.681 254.694 511.576 257.494L511.043 257.474C511.03 257.818 511.017 258.162 511.002 258.506C510.987 258.86 510.972 259.214 510.956 259.567L511.488 259.592C511.358 262.411 511.181 265.219 510.957 268.013L510.426 267.97C510.408 268.202 510.389 268.434 510.37 268.665C510.331 269.131 510.291 269.597 510.25 270.062L510.781 270.109C510.533 272.917 510.237 275.712 509.896 278.493L509.367 278.428C509.282 279.124 509.193 279.819 509.102 280.514L509.63 280.583C509.264 283.375 508.85 286.153 508.391 288.916L507.866 288.828C507.811 289.154 507.757 289.48 507.701 289.805C507.639 290.172 507.576 290.538 507.512 290.904L508.036 290.995C507.551 293.768 507.02 296.524 506.444 299.264L505.922 299.154C505.777 299.842 505.63 300.529 505.479 301.214L506 301.328C505.397 304.077 504.748 306.808 504.055 309.522L503.539 309.39C503.365 310.07 503.188 310.75 503.009 311.428L503.524 311.564C502.803 314.286 502.038 316.99 501.228 319.675L500.717 319.521C500.515 320.19 500.311 320.859 500.103 321.526L500.612 321.685C499.775 324.374 498.893 327.045 497.968 329.695L497.465 329.519C497.234 330.18 497.001 330.84 496.765 331.498L497.266 331.678C496.316 334.328 495.321 336.957 494.283 339.564L493.788 339.367C493.614 339.805 493.439 340.241 493.263 340.678C493.176 340.891 493.09 341.103 493.003 341.316L493.497 341.517C492.434 344.123 491.328 346.706 490.18 349.266L489.694 349.048C489.407 349.688 489.118 350.326 488.826 350.963L489.31 351.185C488.137 353.742 486.922 356.275 485.666 358.784L485.19 358.545C484.876 359.172 484.559 359.798 484.24 360.422L484.714 360.664C483.434 363.168 482.113 365.647 480.751 368.1L480.285 367.841C479.944 368.454 479.601 369.066 479.256 369.676L479.719 369.939C478.334 372.385 476.908 374.805 475.443 377.198L474.989 376.92C474.622 377.519 474.254 378.115 473.882 378.71L474.334 378.992C472.846 381.377 471.319 383.735 469.753 386.065L469.311 385.767C468.92 386.349 468.526 386.929 468.13 387.508L468.57 387.809C466.982 390.129 465.355 392.42 463.692 394.682L463.262 394.367C463.09 394.6 462.918 394.834 462.745 395.067C462.501 395.397 462.256 395.726 462.01 396.054L462.437 396.373C460.752 398.624 459.03 400.845 457.271 403.035L456.856 402.702C456.417 403.248 455.976 403.792 455.533 404.335L455.946 404.672C454.168 406.849 452.354 408.995 450.504 411.109L450.103 410.758C449.642 411.285 449.178 411.811 448.712 412.335L449.11 412.689C447.242 414.788 445.339 416.855 443.402 418.89L443.016 418.522C442.533 419.03 442.048 419.535 441.56 420.039L441.943 420.409C439.988 422.427 438 424.413 435.978 426.364L435.608 425.98C435.104 426.467 434.598 426.952 434.089 427.434L434.456 427.821C432.419 429.754 430.348 431.654 428.246 433.518L427.892 433.12C427.368 433.585 426.842 434.047 426.313 434.508L426.664 434.909C424.546 436.755 422.397 438.566 420.218 440.34L419.882 439.927C419.338 440.369 418.793 440.81 418.246 441.247L418.579 441.663C416.385 443.418 414.162 445.137 411.909 446.818L411.59 446.391C411.029 446.81 410.465 447.226 409.9 447.64L410.215 448.07C407.951 449.73 405.656 451.353 403.334 452.937L403.034 452.497C402.455 452.892 401.874 453.285 401.292 453.675L401.588 454.118C399.256 455.68 396.896 457.204 394.509 458.688L394.227 458.236C393.632 458.606 393.034 458.974 392.436 459.34L392.713 459.794C390.318 461.256 387.895 462.678 385.447 464.06L385.185 463.596C384.575 463.941 383.963 464.283 383.349 464.622L383.607 465.089C381.152 466.447 378.671 467.765 376.166 469.042L375.924 468.567C375.3 468.886 374.673 469.201 374.046 469.514L374.284 469.991C371.773 471.244 369.239 472.455 366.681 473.625L366.459 473.14C366.126 473.292 365.793 473.444 365.459 473.595C365.154 473.732 364.849 473.87 364.543 474.006L364.761 474.493C362.199 475.637 359.614 476.74 357.008 477.799L356.807 477.306C356.159 477.57 355.509 477.831 354.857 478.089L355.054 478.584C352.445 479.619 349.815 480.61 347.164 481.558L346.985 481.056C346.326 481.292 345.666 481.525 345.005 481.755L345.18 482.258C342.529 483.18 339.858 484.059 337.167 484.893L337.01 484.385C336.342 484.591 335.673 484.796 335.003 484.997L335.157 485.507C332.471 486.315 329.767 487.078 327.044 487.797L326.908 487.281C326.23 487.46 325.551 487.636 324.87 487.81L325.002 488.326C322.288 489.017 319.556 489.664 316.807 490.265L316.693 489.744C316.007 489.894 315.32 490.041 314.632 490.186L314.742 490.707C312.001 491.282 309.245 491.811 306.472 492.295L306.381 491.77C305.69 491.89 304.998 492.008 304.305 492.123L304.392 492.648C301.63 493.106 298.852 493.518 296.059 493.883L295.99 493.355C295.67 493.397 295.35 493.438 295.029 493.479C294.654 493.527 294.279 493.573 293.904 493.619L293.969 494.148C291.188 494.488 288.393 494.783 285.585 495.03L285.538 494.499C284.842 494.561 284.144 494.619 283.446 494.675L283.488 495.206C280.694 495.429 277.887 495.605 275.067 495.734L275.043 495.202C274.346 495.234 273.648 495.263 272.949 495.29L272.969 495.822C270.169 495.927 267.358 495.986 264.535 495.998L264.532 495.465C264.18 495.466 263.828 495.467 263.475 495.467C263.123 495.467 262.771 495.466 262.418 495.465L262.416 495.998C259.593 495.986 256.781 495.927 253.982 495.822L254.002 495.29C253.303 495.263 252.605 495.234 251.908 495.202L251.884 495.734C249.064 495.605 246.257 495.429 243.462 495.206L243.505 494.675C242.807 494.619 242.109 494.561 241.413 494.499L241.366 495.03C238.558 494.783 235.763 494.488 232.982 494.148L233.047 493.619C232.351 493.534 231.655 493.446 230.961 493.355L230.892 493.883C228.099 493.518 225.321 493.106 222.559 492.648L222.646 492.123C221.953 492.008 221.261 491.89 220.57 491.77L220.479 492.295C217.706 491.811 214.949 491.282 212.209 490.707L212.319 490.186C211.631 490.041 210.944 489.894 210.258 489.744L210.144 490.265C207.395 489.664 204.663 489.017 201.949 488.326L202.08 487.81C201.4 487.636 200.721 487.46 200.043 487.281L199.907 487.797C197.184 487.078 194.479 486.315 191.794 485.507L191.947 484.997C191.277 484.796 190.609 484.591 189.941 484.385L189.783 484.893C187.093 484.059 184.422 483.18 181.771 482.258L181.946 481.755C181.285 481.525 180.625 481.292 179.966 481.056L179.786 481.558C177.136 480.61 174.506 479.619 171.897 478.584L172.094 478.089C171.442 477.831 170.792 477.57 170.144 477.306L169.943 477.799C167.336 476.74 164.752 475.637 162.19 474.493L162.408 474.006C161.768 473.72 161.129 473.431 160.492 473.14L160.27 473.625C157.712 472.455 155.177 471.244 152.667 469.991L152.905 469.514C152.277 469.201 151.651 468.885 151.027 468.567L150.785 469.042C148.28 467.765 145.799 466.447 143.344 465.089L143.602 464.622C142.988 464.283 142.376 463.941 141.765 463.596L141.504 464.06C139.055 462.678 136.633 461.256 134.238 459.794L134.515 459.339C133.916 458.974 133.319 458.606 132.724 458.236L132.442 458.688C130.055 457.204 127.695 455.68 125.363 454.118L125.659 453.675C125.077 453.285 124.496 452.892 123.917 452.497L123.617 452.937C121.294 451.353 119 449.73 116.735 448.07L117.05 447.64C116.485 447.226 115.922 446.81 115.361 446.391L115.042 446.818C112.789 445.137 110.565 443.418 108.372 441.663L108.705 441.247C108.158 440.809 107.613 440.369 107.069 439.927L106.733 440.34C104.553 438.566 102.405 436.755 100.287 434.909L100.637 434.508C100.109 434.047 99.5829 433.584 99.0586 433.12L98.7051 433.518C96.6027 431.654 94.5323 429.754 92.4947 427.821L92.8615 427.434C92.3531 426.952 91.8467 426.467 91.3424 425.98L90.9724 426.364C88.9509 424.413 86.9625 422.427 85.0081 420.409L85.3908 420.039C84.9032 419.535 84.4178 419.03 83.9344 418.522L83.5486 418.889C81.6114 416.855 79.7084 414.788 77.8406 412.689L78.2386 412.334C77.7728 411.811 77.3091 411.285 76.8477 410.758L76.4467 411.109C74.5972 408.994 72.7831 406.849 71.0052 404.672L71.4178 404.335C70.9746 403.792 70.5336 403.248 70.0949 402.701L69.6795 403.035C67.921 400.845 66.1989 398.624 64.5142 396.373L64.9407 396.054C64.521 395.493 64.1036 394.931 63.6885 394.366L63.2593 394.682C61.5954 392.42 59.969 390.128 58.381 387.809L58.8207 387.508C58.4248 386.929 58.0313 386.349 57.6402 385.767L57.198 386.065C55.632 383.735 54.1045 381.377 52.6165 378.992L53.0685 378.71C52.6973 378.115 52.3285 377.518 51.9623 376.92L51.5079 377.198C50.0426 374.805 48.6168 372.385 47.2315 369.939L47.6951 369.676C47.3495 369.066 47.0065 368.454 46.666 367.841L46.2002 368.1C44.8382 365.646 43.5167 363.168 42.2364 360.664L42.7108 360.422C42.3916 359.798 42.0751 359.172 41.7611 358.545L41.2847 358.784C40.0285 356.275 38.8137 353.742 37.641 351.185L38.1253 350.963C37.8332 350.326 37.5438 349.688 37.2569 349.048L36.7708 349.266C35.6228 346.706 34.5171 344.123 33.4544 341.517L33.9477 341.316C33.6833 340.668 33.4215 340.018 33.1624 339.367L32.6674 339.564C31.6299 336.957 30.6353 334.328 29.6847 331.678L30.1862 331.498C29.9499 330.84 29.7164 330.18 29.4856 329.519L28.9826 329.694C28.0574 327.045 27.176 324.374 26.3392 321.684L26.848 321.526C26.6404 320.859 26.4356 320.19 26.2335 319.521L25.7234 319.675C24.9134 316.99 24.1477 314.286 23.4271 311.564L23.9422 311.428C23.7627 310.75 23.586 310.07 23.4122 309.39L22.896 309.522C22.2026 306.808 21.554 304.077 20.951 301.328L21.4714 301.214C21.321 300.529 21.1734 299.842 21.0287 299.154L20.5073 299.264C19.9309 296.524 19.3997 293.768 18.9146 290.995L19.4394 290.903C19.3185 290.213 19.2005 289.521 19.0854 288.828L18.5598 288.916C18.1007 286.153 17.6873 283.375 17.3204 280.583L17.8487 280.514C17.7574 279.819 17.6691 279.124 17.5836 278.428L17.0548 278.493C16.7135 275.712 16.4183 272.917 16.1699 270.109L16.7007 270.062C16.6391 269.366 16.5804 268.668 16.5245 267.97L15.9935 268.013C15.7701 265.219 15.5931 262.411 15.4632 259.591L15.9954 259.567C15.9633 258.87 15.9341 258.172 15.9078 257.474L15.3753 257.494C15.2698 254.694 15.2108 251.882 15.199 249.059L15.7318 249.057C15.7303 248.705 15.7296 248.352 15.7296 248C15.7296 247.648 15.7303 247.295 15.7318 246.943L15.199 246.941C15.2108 244.118 15.2698 241.306 15.3753 238.506L15.9078 238.526C15.9341 237.828 15.9633 237.13 15.9954 236.433L15.4632 236.408C15.5931 233.589 15.7701 230.781 15.9935 227.987L16.5246 228.03C16.5804 227.331 16.6391 226.634 16.7007 225.938L16.17 225.891C16.4183 223.083 16.7135 220.288 17.0548 217.507L17.5837 217.572C17.6691 216.876 17.7575 216.181 17.8487 215.486L17.3204 215.417C17.6873 212.625 18.1007 209.847 18.5598 207.084L19.0854 207.172C19.2005 206.479 19.3185 205.787 19.4394 205.096L18.9146 205.005C19.3997 202.232 19.9309 199.476 20.5074 196.736L21.0287 196.846C21.1734 196.158 21.321 195.471 21.4714 194.786L20.951 194.672C21.554 191.923 22.2026 189.192 22.896 186.478L23.4122 186.61C23.586 185.93 23.7627 185.25 23.9422 184.572L23.4272 184.436C24.1477 181.714 24.9134 179.01 25.7234 176.325L26.2335 176.479C26.4356 175.81 26.6404 175.141 26.848 174.474L26.3393 174.315C27.1761 171.626 28.0575 168.955 28.9826 166.305L29.4856 166.481C29.7164 165.82 29.9499 165.16 30.1862 164.502L29.6847 164.322C30.6354 161.672 31.6299 159.043 32.6674 156.436L33.1625 156.633C33.4216 155.982 33.6833 155.332 33.9477 154.684L33.4544 154.483C34.5171 151.877 35.6229 149.294 36.7708 146.734L37.257 146.952C37.5438 146.312 37.8333 145.674 38.1253 145.037L37.6411 144.815C38.8137 142.258 40.0285 139.725 41.2847 137.216L41.7611 137.455C42.0751 136.828 42.3917 136.202 42.7108 135.578L42.2365 135.336C43.5167 132.832 44.8383 130.353 46.2003 127.9L46.6661 128.159C47.0066 127.546 47.3496 126.934 47.6951 126.324L47.2315 126.061C48.6169 123.615 50.0427 121.195 51.5079 118.802L51.9623 119.08C52.3286 118.481 52.6973 117.885 53.0686 117.29L52.6165 117.008C54.1046 114.623 55.6321 112.265 57.198 109.935L57.6402 110.233C58.0313 109.651 58.4248 109.071 58.8208 108.492L58.3811 108.191C59.9691 105.871 61.5954 103.58 63.2593 101.318L63.6885 101.633C64.1036 101.069 64.521 100.507 64.9408 99.9459L64.5143 99.6266C66.199 97.3762 67.921 95.1553 69.6795 92.9649L70.095 93.2985C70.5337 92.7521 70.9747 92.2075 71.4179 91.6649L71.0052 91.3279C72.7831 89.1513 74.5973 87.0054 76.4468 84.8912L76.8478 85.242C77.3092 84.7145 77.7729 84.189 78.2387 83.6655L77.8407 83.3113C79.7085 81.2122 81.6115 79.1449 83.5487 77.1105L83.9345 77.4779C84.4178 76.9703 84.9033 76.4648 85.3909 75.9613L85.0081 75.5907C86.9626 73.5725 88.951 71.5874 90.9725 69.6363L91.3425 70.0197C91.8468 69.5329 92.3531 69.0483 92.8615 68.5659L92.4948 68.1794C94.5324 66.2457 96.6028 64.3462 98.7051 62.4818L99.0586 62.8804C99.5829 62.4155 100.109 61.9527 100.637 61.4921L100.287 61.0905C102.405 59.2446 104.553 57.434 106.733 55.6597L107.069 56.0728C107.613 55.6305 108.158 55.1905 108.705 54.7527L108.372 54.3367C110.565 52.5818 112.789 50.8634 115.042 49.1822L115.361 49.6092C115.922 49.1904 116.485 48.7739 117.051 48.3597L116.736 47.93C119 46.2698 121.294 44.647 123.617 43.0626L123.917 43.5027C124.496 43.1078 125.077 42.7152 125.659 42.325L125.363 41.8824C127.695 40.3201 130.055 38.7962 132.442 37.3117L132.724 37.7641C133.319 37.3938 133.916 37.0259 134.515 36.6605L134.238 36.2057C136.633 34.7441 139.056 33.3219 141.504 31.9401L141.766 32.404C142.376 32.0594 142.988 31.7172 143.602 31.3776L143.344 30.9114C145.799 29.553 148.28 28.2349 150.785 26.9581L151.027 27.4328C151.651 27.1145 152.277 26.7987 152.905 26.4856L152.667 26.0089C155.178 24.7561 157.712 23.5446 160.27 22.3753L160.492 22.8598C161.129 22.5685 161.768 22.2799 162.408 21.9938L162.19 21.5074C164.752 20.3627 167.336 19.2601 169.943 18.2005L170.144 18.6941C170.792 18.4304 171.442 18.1694 172.094 17.911L171.897 17.4158C174.506 16.3813 177.136 15.3897 179.787 14.4419L179.966 14.9435C180.625 14.708 181.285 14.4752 181.946 14.2451L181.771 13.7419C184.422 12.8195 187.093 11.9408 189.784 11.1066L189.941 11.6155C190.609 11.4085 191.278 11.2043 191.947 11.0029L191.794 10.4926C194.479 9.6851 197.184 8.92175 199.907 8.20346L200.043 8.71862C200.721 8.53973 201.4 8.36365 202.081 8.19037L201.949 7.67407C204.663 6.98285 207.395 6.33629 210.144 5.73524L210.258 6.25573C210.944 6.10579 211.631 5.95869 212.319 5.81444L212.209 5.29299C214.949 4.7184 217.706 4.18895 220.479 3.70543L220.57 4.2303C221.261 4.10981 221.953 3.99218 222.646 3.87743L222.559 3.3518C225.321 2.89423 228.099 2.48222 230.892 2.11656L230.961 2.64484C231.655 2.55391 232.351 2.46585 233.047 2.38068L232.982 1.85183C235.763 1.51168 238.558 1.21745 241.366 0.969912L241.413 1.50064C242.109 1.43925 242.807 1.38073 243.505 1.32511L243.462 0.794005C246.257 0.571368 249.064 0.394946 251.884 0.265506L251.908 0.797732C252.605 0.765735 253.303 0.736614 254.002 0.710383L253.982 0.177971C256.782 0.0728208 259.593 0.0139852 262.416 0.0022088L262.419 0.534991C262.771 0.533522 263.123 0.532787 263.475 0.532787C263.828 0.532787 264.18 0.533522 264.532 0.534992L264.535 0.00220922C267.358 0.0139867 270.169 0.0728231 272.969 0.177974L272.949 0.710385C273.648 0.736618 274.346 0.765739 275.043 0.797737L275.067 0.26551C277.887 0.394951 280.694 0.571373 283.489 0.794009L283.446 1.32511C284.144 1.38074 284.842 1.43925 285.538 1.50065L285.585 0.96992C288.393 1.21745 291.188 1.51169 293.969 1.85184L293.904 2.38069C294.6 2.46586 295.296 2.55392 295.99 2.64485L296.059 2.11657C298.852 2.48223 301.63 2.89425 304.392 3.35182L304.305 3.87744C304.998 3.9922 305.69 4.10983 306.381 4.23031L306.472 3.70545C309.245 4.18896 312.002 4.71842 314.742 5.29301L314.632 5.81445C315.32 5.95871 316.007 6.10581 316.693 6.25575L316.807 5.73526C319.556 6.33631 322.288 6.98287 325.002 7.67409L324.87 8.1904C325.551 8.36367 326.23 8.53976 326.908 8.71865L327.044 8.20349C329.767 8.92178 332.472 9.68513 335.157 10.4927L335.004 11.0029C335.673 11.2043 336.342 11.4085 337.01 11.6155L337.167 11.1066C339.858 11.9408 342.529 12.8196 345.18 13.7419L345.005 14.2451C345.666 14.4752 346.326 14.708 346.985 14.9436L347.164 14.4419C349.815 15.3897 352.445 16.3813 355.054 17.4158L354.857 17.9111C355.509 18.1694 356.159 18.4304 356.807 18.6941L357.008 18.2005C359.615 19.2602 362.199 20.3628 364.761 21.5074L364.543 21.9939C365.183 22.2799 365.822 22.5686 366.459 22.8599L366.681 22.3753C369.239 23.5447 371.773 24.7562 374.284 26.0089L374.046 26.4856C374.674 26.7988 375.3 27.1145 375.924 27.4328L376.166 26.9581C378.671 28.2349 381.152 29.553 383.607 30.9115L383.349 31.3776C383.963 31.7173 384.575 32.0594 385.186 32.4041L385.447 31.9401C387.895 33.322 390.318 34.7441 392.713 36.2057L392.436 36.6605C393.035 37.026 393.632 37.3938 394.227 37.7642L394.509 37.3117C396.896 38.7962 399.256 40.3201 401.588 41.8824L401.292 42.3251C401.874 42.7153 402.455 43.1078 403.034 43.5028L403.334 43.0627C405.657 44.6471 407.951 46.2699 410.215 47.9301L409.901 48.3598C410.466 48.774 411.029 49.1905 411.59 49.6093L411.909 49.1823C414.162 50.8634 416.386 52.5819 418.579 54.3367L418.246 54.7527C418.793 55.1905 419.338 55.6306 419.882 56.0729L420.218 55.6597C422.398 57.4341 424.546 59.2447 426.664 61.0906L426.314 61.4922C426.842 61.9527 427.368 62.4155 427.892 62.8805L428.246 62.4818C430.348 64.3462 432.419 66.2458 434.456 68.1795L434.089 68.5659C434.598 69.0484 435.104 69.533 435.608 70.0197L435.979 69.6364C438 71.5875 439.988 73.5726 441.943 75.5907L441.56 75.9614C442.048 76.4649 442.533 76.9704 443.017 77.478L443.402 77.1106C445.34 79.145 447.242 81.2122 449.11 83.3114L448.712 83.6655C449.178 84.1891 449.642 84.7146 450.103 85.2421L450.504 84.8913C452.354 87.0055 454.168 89.1514 455.946 91.3279L455.533 91.665C455.976 92.2076 456.417 92.7521 456.856 93.2986L457.271 92.965C459.03 95.1554 460.752 97.3763 462.437 99.6267L462.01 99.946C462.43 100.507 462.847 101.069 463.262 101.634L463.692 101.318C465.356 103.58 466.982 105.872 468.57 108.191L468.13 108.492C468.526 109.071 468.92 109.651 469.311 110.233L469.753 109.935C471.319 112.265 472.846 114.623 474.334 117.008L473.882 117.29C474.254 117.885 474.622 118.482 474.989 119.08L475.443 118.802C476.908 121.195 478.334 123.615 479.719 126.061L479.256 126.324C479.601 126.934 479.944 127.546 480.285 128.159L480.751 127.9C482.113 130.354 483.434 132.832 484.715 135.336L484.24 135.578C484.559 136.202 484.876 136.828 485.19 137.455L485.666 137.216C486.922 139.725 488.137 142.258 489.31 144.815L488.826 145.037C489.118 145.674 489.407 146.312 489.694 146.952L490.18 146.734C491.328 149.294 492.434 151.877 493.497 154.483L493.003 154.684C493.268 155.332 493.529 155.982 493.788 156.633L494.284 156.436C495.321 159.043 496.316 161.672 497.266 164.322L496.765 164.502C497.001 165.16 497.235 165.82 497.465 166.481L497.968 166.306C498.893 168.955 499.775 171.626 500.612 174.316L500.103 174.474C500.311 175.141 500.515 175.81 500.717 176.479L501.228 176.325C502.038 179.01 502.803 181.714 503.524 184.436L503.009 184.572C503.188 185.25 503.365 185.93 503.539 186.61L504.055 186.478C504.748 189.192 505.397 191.923 506 194.672L505.48 194.786C505.63 195.471 505.777 196.158 505.922 196.846L506.444 196.736C507.02 199.476 507.551 202.232 508.036 205.005L507.512 205.097C507.632 205.787 507.75 206.479 507.866 207.172L508.391 207.084C508.85 209.847 509.264 212.625 509.63 215.417L509.102 215.486C509.193 216.181 509.282 216.876 509.367 217.572L509.896 217.507C510.237 220.288 510.533 223.083 510.781 225.891L510.25 225.938C510.312 226.634 510.371 227.332 510.426 228.03L510.957 227.987C511.181 230.781 511.358 233.589 511.488 236.409L510.956 236.433C510.988 237.13 511.017 237.828 511.043 238.526L511.576 238.506Z" stroke="#8C9096" stroke-width="1.06557" stroke-dasharray="2.13 8.52"/>
<path d="M385.647 238.465C385.864 241.263 385.987 244.087 386.012 246.935L384.946 246.944C384.949 247.296 384.951 247.648 384.951 248C384.951 248.352 384.949 248.704 384.946 249.055L386.012 249.065C385.987 251.912 385.864 254.737 385.647 257.535L384.584 257.452C384.53 258.15 384.47 258.846 384.404 259.541L385.464 259.642C385.195 262.473 384.827 265.276 384.366 268.047L383.315 267.872C383.2 268.564 383.079 269.254 382.952 269.942L384 270.135C383.485 272.927 382.874 275.685 382.171 278.405L381.139 278.139C380.964 278.819 380.782 279.497 380.595 280.172L381.622 280.456C380.864 283.19 380.013 285.885 379.072 288.537L378.068 288.181C377.833 288.841 377.594 289.499 377.348 290.154L378.346 290.527C377.351 293.182 376.266 295.793 375.095 298.355L374.125 297.912C373.834 298.549 373.538 299.182 373.236 299.813L374.197 300.273C372.974 302.828 371.665 305.333 370.272 307.786L369.345 307.259C368.999 307.868 368.648 308.474 368.292 309.076L369.209 309.619C367.769 312.055 366.246 314.436 364.644 316.758L363.767 316.153C363.369 316.73 362.966 317.303 362.559 317.873L363.425 318.493C361.78 320.792 360.055 323.032 358.256 325.208L357.435 324.529C356.989 325.069 356.538 325.605 356.082 326.137L356.892 326.83C355.053 328.977 353.141 331.059 351.159 333.072L350.4 332.324C349.909 332.823 349.413 333.318 348.913 333.808L349.66 334.569C347.643 336.547 345.558 338.456 343.408 340.291L342.716 339.48C342.184 339.935 341.647 340.385 341.106 340.831L341.784 341.653C339.605 343.448 337.363 345.169 335.06 346.811L334.442 345.943C333.872 346.35 333.298 346.752 332.721 347.149L333.324 348.027C330.999 349.625 328.616 351.145 326.178 352.581L325.637 351.663C325.034 352.019 324.427 352.369 323.818 352.714L324.343 353.641C321.889 355.03 319.381 356.337 316.825 357.556L316.366 356.594C315.735 356.895 315.101 357.191 314.464 357.481L314.906 358.451C312.342 359.619 309.73 360.701 307.074 361.693L306.701 360.695C306.046 360.939 305.388 361.179 304.728 361.412L305.083 362.417C302.43 363.355 299.734 364.203 297 364.959L296.716 363.932C296.041 364.118 295.363 364.299 294.683 364.474L294.948 365.506C292.227 366.207 289.469 366.816 286.677 367.329L286.484 366.281C285.796 366.408 285.106 366.528 284.414 366.643L284.589 367.694C281.817 368.154 279.014 368.52 276.183 368.789L276.082 367.728C275.388 367.794 274.691 367.854 273.993 367.908L274.076 368.971C271.278 369.188 268.453 369.31 265.605 369.334L265.596 368.269C265.245 368.272 264.893 368.273 264.541 368.273C264.189 368.273 263.837 368.272 263.485 368.269L263.476 369.334C260.628 369.31 257.804 369.188 255.006 368.971L255.088 367.908C254.39 367.854 253.694 367.794 253 367.728L252.899 368.789C250.067 368.52 247.264 368.154 244.493 367.694L244.668 366.643C243.975 366.528 243.285 366.408 242.597 366.281L242.405 367.329C239.613 366.816 236.855 366.207 234.133 365.506L234.399 364.474C233.719 364.299 233.041 364.118 232.366 363.932L232.082 364.959C229.347 364.203 226.652 363.355 223.998 362.417L224.354 361.412C223.693 361.179 223.035 360.939 222.38 360.695L222.008 361.693C219.352 360.701 216.74 359.619 214.176 358.451L214.618 357.481C213.981 357.191 213.347 356.895 212.716 356.594L212.257 357.556C209.7 356.337 207.193 355.03 204.739 353.641L205.264 352.714C204.654 352.369 204.048 352.019 203.445 351.663L202.904 352.581C200.466 351.145 198.083 349.625 195.758 348.027L196.361 347.149C195.784 346.752 195.21 346.35 194.64 345.943L194.021 346.811C191.719 345.169 189.477 343.448 187.298 341.653L187.975 340.831C187.435 340.385 186.898 339.935 186.365 339.48L185.674 340.291C183.523 338.456 181.438 336.547 179.422 334.569L180.168 333.808C179.668 333.318 179.173 332.823 178.682 332.324L177.922 333.072C175.94 331.059 174.028 328.977 172.19 326.83L172.999 326.137C172.544 325.605 172.093 325.069 171.646 324.529L170.825 325.208C169.026 323.032 167.302 320.792 165.656 318.493L166.523 317.873C166.115 317.303 165.713 316.73 165.315 316.153L164.438 316.758C162.836 314.436 161.313 312.055 159.872 309.619L160.789 309.076C160.433 308.474 160.082 307.868 159.736 307.259L158.81 307.786C157.417 305.333 156.107 302.828 154.884 300.273L155.846 299.813C155.544 299.182 155.247 298.549 154.956 297.912L153.987 298.355C152.815 295.792 151.73 293.182 150.736 290.527L151.733 290.153C151.488 289.499 151.248 288.841 151.014 288.181L150.01 288.537C149.069 285.885 148.218 283.19 147.46 280.456L148.487 280.172C148.299 279.497 148.118 278.819 147.942 278.139L146.911 278.405C146.208 275.685 145.597 272.927 145.082 270.135L146.13 269.942C146.003 269.254 145.882 268.564 145.767 267.872L144.716 268.047C144.254 265.276 143.887 262.473 143.617 259.642L144.678 259.541C144.612 258.846 144.552 258.15 144.497 257.452L143.435 257.535C143.217 254.737 143.095 251.912 143.07 249.065L144.136 249.055C144.133 248.704 144.131 248.352 144.131 248C144.131 247.648 144.133 247.296 144.136 246.944L143.07 246.935C143.095 244.087 143.217 241.263 143.435 238.465L144.497 238.548C144.552 237.85 144.612 237.154 144.678 236.459L143.617 236.358C143.887 233.527 144.254 230.724 144.716 227.953L145.767 228.128C145.882 227.436 146.003 226.746 146.13 226.058L145.082 225.865C145.597 223.073 146.208 220.315 146.911 217.594L147.942 217.861C148.118 217.181 148.299 216.503 148.487 215.828L147.46 215.543C148.218 212.81 149.069 210.115 150.01 207.463L151.014 207.819C151.248 207.159 151.488 206.501 151.733 205.846L150.736 205.473C151.73 202.818 152.815 200.207 153.987 197.645L154.956 198.088C155.247 197.451 155.544 196.818 155.846 196.187L154.884 195.727C156.107 193.172 157.417 190.667 158.81 188.214L159.736 188.741C160.082 188.132 160.433 187.526 160.789 186.923L159.872 186.381C161.313 183.945 162.836 181.564 164.438 179.241L165.315 179.846C165.713 179.27 166.115 178.697 166.523 178.127L165.656 177.507C167.302 175.208 169.026 172.968 170.825 170.792L171.647 171.471C172.093 170.931 172.544 170.395 172.999 169.863L172.19 169.17C174.028 167.023 175.94 164.941 177.922 162.928L178.682 163.676C179.173 163.177 179.668 162.682 180.168 162.191L179.422 161.431C181.438 159.453 183.523 157.544 185.674 155.709L186.365 156.519C186.898 156.065 187.435 155.615 187.975 155.169L187.298 154.347C189.477 152.552 191.719 150.831 194.021 149.189L194.64 150.056C195.21 149.65 195.784 149.248 196.361 148.851L195.758 147.973C198.083 146.375 200.466 144.855 202.904 143.419L203.445 144.337C204.048 143.981 204.654 143.631 205.264 143.286L204.739 142.359C207.193 140.97 209.7 139.663 212.257 138.444L212.716 139.406C213.347 139.105 213.981 138.809 214.618 138.519L214.176 137.549C216.74 136.381 219.352 135.299 222.008 134.307L222.38 135.305C223.035 135.06 223.693 134.821 224.354 134.588L223.998 133.583C226.652 132.645 229.347 131.796 232.082 131.041L232.366 132.068C233.041 131.881 233.719 131.701 234.399 131.525L234.133 130.494C236.855 129.793 239.613 129.184 242.405 128.671L242.597 129.719C243.285 129.592 243.975 129.472 244.668 129.357L244.493 128.306C247.264 127.846 250.067 127.48 252.899 127.211L253 128.272C253.694 128.206 254.39 128.146 255.088 128.092L255.006 127.029C257.804 126.812 260.628 126.69 263.476 126.665L263.485 127.731C263.837 127.728 264.189 127.726 264.541 127.726C264.893 127.726 265.245 127.728 265.596 127.731L265.605 126.665C268.453 126.69 271.278 126.812 274.076 127.029L273.993 128.092C274.691 128.146 275.388 128.206 276.082 128.272L276.183 127.211C279.014 127.48 281.817 127.846 284.589 128.306L284.414 129.357C285.106 129.472 285.796 129.592 286.484 129.719L286.677 128.671C289.469 129.184 292.227 129.793 294.948 130.494L294.683 131.525C295.363 131.701 296.041 131.881 296.716 132.068L297 131.041C299.734 131.797 302.43 132.645 305.083 133.583L304.728 134.588C305.388 134.821 306.046 135.06 306.701 135.305L307.074 134.307C309.73 135.299 312.342 136.381 314.906 137.549L314.464 138.519C315.101 138.809 315.735 139.105 316.366 139.406L316.825 138.444C319.381 139.663 321.889 140.97 324.343 142.359L323.818 143.286C324.427 143.631 325.034 143.981 325.637 144.337L326.178 143.419C328.616 144.855 330.999 146.375 333.324 147.973L332.721 148.851C333.298 149.248 333.872 149.65 334.442 150.056L335.06 149.189C337.363 150.831 339.605 152.552 341.784 154.347L341.106 155.169C341.647 155.615 342.184 156.065 342.716 156.519L343.408 155.709C345.558 157.544 347.643 159.453 349.66 161.431L348.913 162.192C349.413 162.682 349.909 163.177 350.4 163.676L351.159 162.928C353.141 164.941 355.053 167.023 356.892 169.17L356.082 169.863C356.538 170.395 356.989 170.931 357.435 171.471L358.256 170.792C360.055 172.968 361.78 175.208 363.425 177.507L362.559 178.127C362.966 178.697 363.369 179.27 363.767 179.846L364.644 179.241C366.246 181.564 367.769 183.945 369.209 186.381L368.292 186.923C368.648 187.526 368.999 188.132 369.345 188.741L370.272 188.214C371.665 190.667 372.974 193.172 374.197 195.727L373.236 196.187C373.538 196.818 373.834 197.451 374.125 198.088L375.095 197.645C376.266 200.207 377.351 202.818 378.346 205.473L377.348 205.846C377.594 206.501 377.833 207.159 378.068 207.819L379.072 207.463C380.013 210.115 380.864 212.81 381.622 215.543L380.595 215.828C380.782 216.503 380.964 217.181 381.139 217.861L382.171 217.594C382.874 220.315 383.485 223.073 384 225.865L382.952 226.058C383.079 226.746 383.2 227.436 383.315 228.128L384.366 227.953C384.827 230.724 385.195 233.527 385.464 236.358L384.404 236.459C384.47 237.154 384.53 237.85 384.584 238.548L385.647 238.465Z" stroke="#8C9096" stroke-width="2.13115" stroke-dasharray="2.13 8.52"/>
<path d="M343.919 238.731C344.237 241.436 344.417 244.183 344.453 246.964L343.387 246.978C343.392 247.318 343.394 247.659 343.394 248C343.394 248.341 343.392 248.682 343.387 249.022L344.453 249.036C344.417 251.817 344.237 254.564 343.919 257.269L342.861 257.144C342.782 257.819 342.694 258.492 342.597 259.161L343.652 259.313C343.257 262.059 342.72 264.758 342.048 267.404L341.016 267.143C340.848 267.802 340.673 268.458 340.489 269.11L341.514 269.4C340.763 272.063 339.875 274.669 338.859 277.21L337.87 276.814C337.618 277.444 337.357 278.071 337.089 278.693L338.068 279.114C336.975 281.651 335.752 284.118 334.409 286.509L333.48 285.987C333.147 286.578 332.807 287.165 332.459 287.747L333.374 288.294C331.961 290.661 330.426 292.947 328.78 295.145L327.927 294.506C327.52 295.05 327.106 295.588 326.685 296.12L327.521 296.781C325.813 298.94 323.994 301.008 322.074 302.977L321.311 302.232C320.837 302.718 320.357 303.197 319.871 303.67L320.614 304.434C318.642 306.352 316.571 308.167 314.409 309.871L313.749 309.034C313.216 309.454 312.678 309.867 312.134 310.273L312.771 311.127C310.571 312.77 308.282 314.301 305.912 315.711L305.367 314.795C304.785 315.142 304.197 315.482 303.605 315.813L304.126 316.743C301.734 318.083 299.265 319.303 296.727 320.393L296.306 319.413C295.684 319.681 295.057 319.94 294.427 320.191L294.821 321.181C292.279 322.195 289.672 323.08 287.008 323.828L286.72 322.803C286.067 322.986 285.411 323.161 284.752 323.328L285.013 324.361C282.366 325.03 279.666 325.565 276.92 325.959L276.769 324.905C276.099 325.001 275.427 325.088 274.752 325.167L274.876 326.226C272.171 326.542 269.424 326.722 266.643 326.757L266.629 325.692C266.289 325.696 265.948 325.698 265.607 325.698C265.266 325.698 264.925 325.696 264.584 325.692L264.571 326.757C261.789 326.722 259.043 326.542 256.338 326.226L256.462 325.167C255.787 325.088 255.114 325.001 254.445 324.905L254.293 325.959C251.548 325.565 248.848 325.03 246.201 324.361L246.462 323.328C245.803 323.161 245.146 322.986 244.494 322.803L244.205 323.828C241.541 323.08 238.934 322.195 236.392 321.181L236.787 320.191C236.156 319.94 235.53 319.681 234.908 319.413L234.487 320.393C231.949 319.303 229.48 318.083 227.088 316.743L227.609 315.813C227.016 315.482 226.429 315.142 225.846 314.795L225.301 315.711C222.932 314.301 220.643 312.77 218.443 311.127L219.08 310.273C218.536 309.867 217.998 309.454 217.465 309.034L216.805 309.871C214.642 308.167 212.571 306.352 210.6 304.434L211.343 303.67C210.857 303.197 210.377 302.718 209.903 302.232L209.14 302.977C207.219 301.008 205.401 298.94 203.693 296.781L204.529 296.12C204.108 295.588 203.694 295.05 203.287 294.506L202.434 295.145C200.788 292.947 199.253 290.661 197.84 288.294L198.754 287.747C198.407 287.165 198.067 286.578 197.734 285.987L196.805 286.509C195.461 284.118 194.239 281.651 193.146 279.114L194.124 278.693C193.856 278.071 193.596 277.444 193.344 276.814L192.355 277.21C191.338 274.669 190.451 272.063 189.7 269.4L190.725 269.11C190.541 268.458 190.365 267.802 190.198 267.143L189.165 267.405C188.494 264.758 187.957 262.059 187.562 259.313L188.616 259.161C188.52 258.492 188.432 257.819 188.353 257.144L187.295 257.269C186.977 254.564 186.797 251.817 186.761 249.036L187.827 249.022C187.822 248.682 187.82 248.341 187.82 248C187.82 247.659 187.822 247.318 187.827 246.978L186.761 246.964C186.797 244.183 186.977 241.436 187.295 238.732L188.353 238.856C188.432 238.181 188.52 237.508 188.616 236.839L187.562 236.687C187.957 233.941 188.494 231.242 189.165 228.596L190.198 228.858C190.365 228.198 190.541 227.542 190.725 226.89L189.7 226.6C190.451 223.937 191.338 221.331 192.355 218.79L193.344 219.186C193.596 218.556 193.856 217.929 194.124 217.307L193.146 216.886C194.239 214.349 195.461 211.882 196.805 209.491L197.734 210.014C198.067 209.422 198.407 208.835 198.754 208.253L197.84 207.706C199.253 205.339 200.788 203.053 202.434 200.855L203.287 201.494C203.694 200.95 204.108 200.413 204.529 199.88L203.693 199.219C205.401 197.06 207.219 194.992 209.14 193.024L209.903 193.768C210.377 193.282 210.857 192.803 211.343 192.33L210.6 191.566C212.571 189.649 214.642 187.833 216.805 186.129L217.465 186.966C217.998 186.546 218.536 186.133 219.08 185.727L218.443 184.873C220.643 183.23 222.932 181.699 225.301 180.289L225.846 181.205C226.429 180.858 227.016 180.519 227.609 180.187L227.088 179.257C229.48 177.917 231.949 176.698 234.487 175.608L234.908 176.587C235.53 176.319 236.156 176.06 236.787 175.809L236.392 174.819C238.934 173.805 241.541 172.92 244.205 172.172L244.494 173.198C245.146 173.014 245.803 172.839 246.462 172.672L246.201 171.639C248.848 170.97 251.548 170.435 254.293 170.041L254.445 171.096C255.114 170.999 255.787 170.912 256.462 170.833L256.338 169.774C259.043 169.458 261.789 169.279 264.571 169.243L264.584 170.308C264.925 170.304 265.266 170.302 265.607 170.302C265.948 170.302 266.289 170.304 266.629 170.308L266.643 169.243C269.424 169.279 272.171 169.458 274.876 169.774L274.752 170.833C275.427 170.912 276.099 170.999 276.769 171.096L276.92 170.041C279.666 170.435 282.366 170.97 285.013 171.639L284.752 172.672C285.411 172.839 286.067 173.014 286.72 173.198L287.008 172.172C289.672 172.92 292.279 173.805 294.821 174.819L294.427 175.809C295.057 176.06 295.684 176.319 296.306 176.587L296.727 175.608C299.265 176.698 301.734 177.917 304.126 179.257L303.605 180.187C304.197 180.519 304.785 180.858 305.367 181.205L305.912 180.289C308.282 181.699 310.571 183.23 312.771 184.873L312.134 185.727C312.678 186.133 313.216 186.546 313.749 186.966L314.409 186.129C316.571 187.833 318.642 189.649 320.613 191.566L319.871 192.33C320.357 192.803 320.837 193.282 321.311 193.768L322.074 193.024C323.994 194.992 325.813 197.06 327.521 199.219L326.685 199.88C327.106 200.413 327.52 200.95 327.927 201.494L328.78 200.855C330.426 203.053 331.961 205.339 333.374 207.706L332.459 208.253C332.807 208.835 333.147 209.422 333.48 210.014L334.409 209.491C335.752 211.882 336.975 214.349 338.068 216.886L337.089 217.307C337.357 217.929 337.618 218.556 337.87 219.186L338.859 218.79C339.875 221.331 340.763 223.937 341.514 226.6L340.489 226.89C340.673 227.542 340.848 228.198 341.016 228.858L342.048 228.596C342.72 231.242 343.257 233.941 343.652 236.687L342.597 236.839C342.694 237.508 342.782 238.181 342.861 238.856L343.919 238.731Z" stroke="#8C9096" stroke-width="2.13115" stroke-dasharray="2.13 8.52"/>
<ellipse cx="265.607" cy="248" rx="43.6885" ry="43.6395" fill="black"/>
<g filter="url(#filter0_d)">
<ellipse cx="266.867" cy="42.575" rx="20.4406" ry="20.2232" fill="white"/>
</g>
<path d="M275.979 50.6954C275.979 49.0106 274.613 47.6448 272.928 47.6448H265.004C262.87 47.6448 261.675 49.1226 261.675 50.6954C261.675 52.1468 262.688 53.746 265.004 53.746H272.928C274.613 53.746 275.979 52.3802 275.979 50.6954Z" fill="white" stroke="black" stroke-width="2.13115"/>
<path d="M273.822 53.7408C275.497 53.7408 276.855 52.3762 276.855 50.6928C276.855 49.0094 275.497 47.6448 273.822 47.6448C272.147 47.6448 270.789 49.0094 270.789 50.6928C270.789 52.3762 272.147 53.7408 273.822 53.7408Z" fill="white" stroke="black" stroke-width="2.13115"/>
<path d="M275.979 34.454C275.979 32.7691 274.613 31.4033 272.928 31.4033H265.004C262.87 31.4033 261.675 32.8811 261.675 34.454C261.675 35.9054 262.688 37.5046 265.004 37.5046H272.928C274.613 37.5046 275.979 36.1388 275.979 34.454Z" fill="white" stroke="black" stroke-width="2.13115"/>
<path d="M273.822 37.4994C275.497 37.4994 276.855 36.1347 276.855 34.4514C276.855 32.768 275.497 31.4033 273.822 31.4033C272.147 31.4033 270.789 32.768 270.789 34.4514C270.789 36.1347 272.147 37.4994 273.822 37.4994Z" fill="white" stroke="black" stroke-width="2.13115"/>
<path d="M266.88 42.5746C266.88 40.8897 265.514 39.5239 263.829 39.5239H255.905C253.771 39.5239 252.576 41.0017 252.576 42.5746C252.576 44.026 253.59 45.6252 255.905 45.6252H263.829C265.514 45.6252 266.88 44.2594 266.88 42.5746Z" fill="white" stroke="black" stroke-width="2.13115"/>
<path d="M264.723 45.62C266.398 45.62 267.756 44.2553 267.756 42.572C267.756 40.8886 266.398 39.5239 264.723 39.5239C263.048 39.5239 261.69 40.8886 261.69 42.572C261.69 44.2553 263.048 45.62 264.723 45.62Z" fill="white" stroke="black" stroke-width="2.13115"/>
<g filter="url(#filter1_d)">
<ellipse cx="97.4406" cy="434.266" rx="20.4406" ry="20.2232" fill="white"/>
</g>
<path fill-rule="evenodd" clip-rule="evenodd" d="M95.0858 421.394L99.7895 426.047L92.163 433.593L99.4234 440.916C99.5302 440.999 99.6329 441.088 99.7311 441.185C101.018 442.459 101.018 444.523 99.7311 445.797C98.4439 447.07 96.357 447.07 95.0699 445.797C94.9766 445.705 94.8901 445.608 94.8103 445.508L85.1131 435.914C84.804 435.609 84.5588 435.246 84.3916 434.847C84.2243 434.447 84.1382 434.02 84.1382 433.587C84.1382 433.155 84.2243 432.727 84.3916 432.328C84.5588 431.929 84.804 431.566 85.1131 431.26L95.0858 421.394Z" fill="white"/>
<path d="M99.7895 426.047L100.539 426.805L101.305 426.047L100.539 425.29L99.7895 426.047ZM95.0858 421.394L95.8352 420.636L95.0858 419.895L94.3364 420.636L95.0858 421.394ZM92.163 433.593L91.4135 432.835L90.6553 433.586L91.4062 434.343L92.163 433.593ZM99.4234 440.916L98.6667 441.666L98.7167 441.717L98.7728 441.76L99.4234 440.916ZM99.7311 441.185L100.481 440.428L100.481 440.428L99.7311 441.185ZM99.7311 445.797L98.9816 445.039L99.7311 445.797ZM95.0699 445.797L94.3204 446.554L94.3204 446.554L95.0699 445.797ZM94.8103 445.508L95.6433 444.844L95.6043 444.795L95.5597 444.751L94.8103 445.508ZM85.1131 435.914L85.8625 435.157L85.8621 435.156L85.1131 435.914ZM84.3916 434.847L85.3744 434.435L85.3744 434.435L84.3916 434.847ZM84.3916 432.328L83.4088 431.916L83.4088 431.916L84.3916 432.328ZM85.1131 431.26L85.8621 432.018L85.8625 432.018L85.1131 431.26ZM100.539 425.29L95.8352 420.636L94.3364 422.151L99.0401 426.805L100.539 425.29ZM92.9124 434.35L100.539 426.805L99.0401 425.29L91.4135 432.835L92.9124 434.35ZM100.18 440.166L92.9197 432.843L91.4062 434.343L98.6667 441.666L100.18 440.166ZM100.481 440.428C100.351 440.3 100.215 440.181 100.074 440.072L98.7728 441.76C98.845 441.816 98.9148 441.877 98.9816 441.943L100.481 440.428ZM100.481 446.554C102.189 444.864 102.189 442.118 100.481 440.428L98.9816 441.943C99.8473 442.799 99.8473 444.183 98.9816 445.039L100.481 446.554ZM94.3204 446.554C96.0228 448.239 98.7782 448.239 100.481 446.554L98.9816 445.039C98.1097 445.902 96.6913 445.902 95.8193 445.039L94.3204 446.554ZM93.9773 446.173C94.083 446.305 94.1975 446.433 94.3204 446.554L95.8193 445.039C95.7557 444.977 95.6971 444.911 95.6433 444.844L93.9773 446.173ZM84.3636 436.672L94.0609 446.266L95.5597 444.751L85.8625 435.157L84.3636 436.672ZM83.4088 435.258C83.6306 435.788 83.9554 436.268 84.3641 436.672L85.8621 435.156C85.6527 434.949 85.4871 434.704 85.3744 434.435L83.4088 435.258ZM83.0726 433.587C83.0726 434.161 83.1869 434.729 83.4088 435.258L85.3744 434.435C85.2616 434.166 85.2038 433.878 85.2038 433.587H83.0726ZM83.4088 431.916C83.1869 432.446 83.0726 433.013 83.0726 433.587H85.2038C85.2038 433.297 85.2616 433.009 85.3744 432.74L83.4088 431.916ZM84.364 430.503C83.9554 430.906 83.6306 431.387 83.4088 431.916L85.3744 432.74C85.4871 432.471 85.6527 432.225 85.8621 432.018L84.364 430.503ZM94.3364 420.636L84.3636 430.503L85.8625 432.018L95.8352 422.151L94.3364 420.636Z" fill="black"/>
<path fill-rule="evenodd" clip-rule="evenodd" d="M109.763 431.259L99.7903 421.393C99.1665 420.776 98.3206 420.429 97.4384 420.429C96.5563 420.429 95.7103 420.776 95.0866 421.393C94.4628 422.01 94.1124 422.847 94.1124 423.72C94.1124 424.592 94.4628 425.429 95.0866 426.046L102.721 433.596L95.4568 440.857C95.3215 440.955 95.1921 441.064 95.0699 441.185C93.7827 442.459 93.7827 444.524 95.0699 445.797C96.357 447.07 98.4439 447.07 99.7311 445.797C99.8034 445.725 99.8717 445.651 99.9359 445.575L109.64 436.034C109.684 435.995 109.727 435.955 109.769 435.913C110.392 435.296 110.743 434.459 110.743 433.586C110.743 432.714 110.392 431.877 109.769 431.259H109.763Z" fill="white"/>
<path d="M99.7903 421.393L99.0408 422.15L99.0408 422.15L99.7903 421.393ZM109.763 431.259L109.014 432.017L109.325 432.325H109.763V431.259ZM95.0866 421.393L94.3372 420.635L94.3372 420.635L95.0866 421.393ZM95.0866 426.046L94.3372 426.804L94.3374 426.804L95.0866 426.046ZM102.721 433.596L103.475 434.349L104.233 433.592L103.471 432.838L102.721 433.596ZM95.4568 440.857L96.0818 441.72L96.1503 441.67L96.2101 441.611L95.4568 440.857ZM95.0699 441.185L94.3204 440.428H94.3204L95.0699 441.185ZM95.0699 445.797L95.8193 445.039L95.8193 445.039L95.0699 445.797ZM99.7311 445.797L100.48 446.554L100.48 446.554L99.7311 445.797ZM99.9359 445.575L99.1888 444.815L99.153 444.85L99.1206 444.889L99.9359 445.575ZM109.64 436.034L108.932 435.238L108.912 435.256L108.893 435.274L109.64 436.034ZM109.769 435.913L109.019 435.156L109.019 435.156L109.769 435.913ZM109.769 431.259L110.518 430.502L110.207 430.194H109.769V431.259ZM99.0408 422.15L109.014 432.017L110.512 430.502L100.54 420.635L99.0408 422.15ZM97.4384 421.495C98.0416 421.495 98.6178 421.732 99.0408 422.15L100.54 420.635C99.7153 419.82 98.5995 419.363 97.4384 419.363V421.495ZM95.836 422.15C96.2591 421.732 96.8353 421.495 97.4384 421.495V419.363C96.2774 419.363 95.1616 419.82 94.3372 420.635L95.836 422.15ZM95.178 423.72C95.178 423.133 95.4134 422.568 95.836 422.15L94.3372 420.635C93.5123 421.451 93.0469 422.561 93.0469 423.72H95.178ZM95.836 425.289C95.4134 424.871 95.178 424.306 95.178 423.72H93.0469C93.0469 424.879 93.5123 425.988 94.3372 426.804L95.836 425.289ZM103.471 432.838L95.8358 425.289L94.3374 426.804L101.972 434.354L103.471 432.838ZM96.2101 441.611L103.475 434.349L101.968 432.842L94.7035 440.103L96.2101 441.611ZM94.8318 439.994C94.6526 440.124 94.4816 440.268 94.3204 440.428L95.8193 441.943C95.9026 441.86 95.9904 441.786 96.0818 441.72L94.8318 439.994ZM94.3204 440.428C92.6118 442.118 92.6118 444.864 94.3204 446.554L95.8193 445.039C94.9537 444.183 94.9537 442.799 95.8193 441.943L94.3204 440.428ZM94.3204 446.554C96.0228 448.239 98.7781 448.239 100.48 446.554L98.9816 445.039C98.1097 445.902 96.6913 445.902 95.8193 445.039L94.3204 446.554ZM100.48 446.554C100.576 446.46 100.666 446.362 100.751 446.261L99.1206 444.889C99.0773 444.94 99.0309 444.991 98.9816 445.039L100.48 446.554ZM108.893 435.274L99.1888 444.815L100.683 446.335L110.387 436.794L108.893 435.274ZM109.019 435.156C108.991 435.184 108.962 435.211 108.932 435.238L110.348 436.831C110.406 436.779 110.463 436.726 110.518 436.671L109.019 435.156ZM109.677 433.586C109.677 434.173 109.442 434.737 109.019 435.156L110.518 436.671C111.343 435.855 111.808 434.745 111.808 433.586H109.677ZM109.019 432.017C109.442 432.435 109.677 433 109.677 433.586H111.808C111.808 432.427 111.343 431.318 110.518 430.502L109.019 432.017ZM109.763 432.325H109.769V430.194H109.763V432.325Z" fill="black"/>
<path d="M99.7311 445.797C101.018 444.524 101.018 442.459 99.7311 441.185C98.4439 439.912 96.357 439.912 95.0699 441.185C93.7827 442.459 93.7827 444.524 95.0699 445.797C96.357 447.071 98.4439 447.071 99.7311 445.797Z" fill="white" stroke="black" stroke-width="2.13115"/>
<g filter="url(#filter2_d)">
<ellipse cx="428.834" cy="430.009" rx="20.4406" ry="20.2232" fill="white"/>
</g>
<path d="M432.118 431.071C432.1 430.297 431.773 429.56 431.21 429.022C430.646 428.483 429.891 428.187 429.108 428.196H421.347V433.947H426.373V438.784C426.352 439.162 426.408 439.541 426.538 439.898C426.669 440.255 426.87 440.582 427.131 440.86C427.391 441.138 427.706 441.361 428.056 441.516C428.406 441.671 428.784 441.754 429.167 441.761C429.558 441.758 429.945 441.678 430.305 441.526C430.665 441.374 430.992 441.154 431.266 440.877C431.54 440.601 431.756 440.273 431.902 439.914C432.048 439.555 432.122 439.171 432.118 438.784V431.071Z" fill="white" stroke="black" stroke-width="2.13115"/>
<path d="M421.313 434.01C422.935 434.01 424.249 432.71 424.249 431.105C424.249 429.501 422.935 428.2 421.313 428.2C419.691 428.2 418.377 429.501 418.377 431.105C418.377 432.71 419.691 434.01 421.313 434.01Z" fill="white" stroke="black" stroke-width="2.13115"/>
<path d="M439.284 423.364C439.276 422.595 438.961 421.86 438.409 421.318C437.856 420.777 437.11 420.474 436.333 420.474H428.395C427.667 420.546 426.992 420.883 426.502 421.42C426.011 421.957 425.739 422.655 425.739 423.378C425.739 424.102 426.011 424.8 426.502 425.337C426.992 425.874 427.667 426.211 428.395 426.283H433.48V431.115C433.464 431.502 433.527 431.889 433.666 432.251C433.805 432.614 434.016 432.945 434.287 433.224C434.559 433.504 434.884 433.727 435.245 433.879C435.605 434.031 435.993 434.109 436.384 434.109C436.776 434.109 437.164 434.031 437.524 433.879C437.885 433.727 438.21 433.504 438.481 433.224C438.753 432.945 438.964 432.614 439.103 432.251C439.241 431.889 439.305 431.502 439.289 431.115L439.284 423.364Z" fill="white" stroke="black" stroke-width="2.13115"/>
<g filter="url(#filter3_d)">
<ellipse cx="32.4406" cy="155.399" rx="20.4406" ry="20.2232" fill="white"/>
</g>
<path d="M29.8283 162.144V148.315C29.8283 146.95 31.0264 145.821 32.3337 145.821C33.6366 145.821 34.8391 146.799 34.8391 148.485V162.144C34.8391 163.238 34.4711 163.919 34.0293 164.332C33.5691 164.762 32.9465 164.977 32.3337 164.977C31.0821 164.977 29.8283 164.057 29.8283 162.144Z" stroke="black" stroke-width="2.13115"/>
<path d="M34.8391 155.355C34.8391 156.707 33.7281 157.822 32.3337 157.822C30.9392 157.822 29.8283 156.707 29.8283 155.355C29.8283 154.003 30.9392 152.887 32.3337 152.887C33.7281 152.887 34.8391 154.003 34.8391 155.355Z" stroke="black" stroke-width="2.13115"/>
<path d="M38.6251 162.144V148.315C38.6251 146.95 39.8233 145.821 41.1305 145.821C42.4335 145.821 43.6359 146.799 43.6359 148.485V162.144C43.6359 163.238 43.2679 163.919 42.8261 164.332C42.366 164.762 41.7433 164.977 41.1305 164.977C39.879 164.977 38.6251 164.057 38.6251 162.144Z" stroke="black" stroke-width="2.13115"/>
<path d="M43.6359 148.288C43.6359 149.64 42.525 150.756 41.1305 150.756C39.7361 150.756 38.6251 149.64 38.6251 148.288C38.6251 146.936 39.7361 145.821 41.1305 145.821C42.525 145.821 43.6359 146.936 43.6359 148.288Z" stroke="black" stroke-width="2.13115"/>
<path d="M21.2457 162.144V148.315C21.2457 146.95 22.4439 145.821 23.7511 145.821C25.0541 145.821 26.2565 146.799 26.2565 148.485V162.144C26.2565 163.238 25.8885 163.919 25.4467 164.332C24.9866 164.762 24.3639 164.977 23.7511 164.977C22.4996 164.977 21.2457 164.057 21.2457 162.144Z" stroke="black" stroke-width="2.13115"/>
<path d="M26.2565 162.51C26.2565 163.862 25.1456 164.977 23.7511 164.977C22.3567 164.977 21.2457 163.862 21.2457 162.51C21.2457 161.158 22.3567 160.042 23.7511 160.042C25.1456 160.042 26.2565 161.158 26.2565 162.51Z" stroke="black" stroke-width="2.13115"/>
<path d="M255.916 241.139L253.64 260.982C253.586 261.456 253.842 261.893 254.248 262.091L253.83 265.739C253.761 266.339 254.192 266.882 254.794 266.951L255.148 266.992L254.737 270.578C254.668 271.178 255.1 271.721 255.701 271.79L256.81 271.917L257.161 271.957L269.499 273.369L269.722 273.395L270.969 273.537C271.57 273.606 272.114 273.175 272.183 272.575L272.594 268.989L272.944 269.029C273.545 269.097 274.088 268.666 274.157 268.066L274.409 265.873L274.776 265.915C275.378 265.984 275.921 265.553 275.99 264.952L276.241 262.76L276.595 262.8C277.197 262.869 277.74 262.438 277.809 261.838L278.06 259.645L278.424 259.687C279.025 259.756 279.568 259.324 279.637 258.724L279.701 258.171L280.062 258.213C280.663 258.282 281.206 257.85 281.275 257.25L281.653 253.959C281.722 253.359 281.29 252.816 280.689 252.747L280.328 252.706L280.369 252.354C280.437 251.753 280.006 251.211 279.405 251.142L276.495 250.809C276.369 250.794 276.246 250.802 276.129 250.828L277.375 239.965C277.444 239.365 277.013 238.822 276.411 238.753L276.082 238.715L276.12 238.382C276.189 237.782 275.757 237.239 275.156 237.17L272.186 236.83C271.585 236.762 271.042 237.193 270.973 237.793L270.935 238.126L270.605 238.088C270.004 238.02 269.461 238.451 269.392 239.051L268.798 244.228L266.907 244.012C266.306 243.943 265.763 244.374 265.694 244.975L265.652 245.337L265.591 245.33L265.365 245.305L263.551 245.097L263.9 242.053C263.969 241.453 263.538 240.91 262.936 240.841L262.607 240.803L262.649 240.441C262.718 239.84 262.286 239.298 261.685 239.229L258.727 238.89C258.126 238.821 257.582 239.253 257.514 239.853L257.472 240.216L257.13 240.177C256.529 240.108 255.985 240.539 255.916 241.139Z" fill="white"/>
<path d="M254.729 261.107L255.455 261.19L254.919 265.863L256.362 266.029L255.826 270.702L256.935 270.829L257.286 270.869L269.624 272.281L269.847 272.307L271.094 272.45L271.63 267.776L273.069 267.941L273.445 264.661L274.901 264.828L275.278 261.548L276.72 261.713L277.097 258.433L278.549 258.599L278.737 256.959L280.187 257.125L280.564 253.834L279.115 253.669L279.28 252.229L276.371 251.896L276.206 253.331L274.758 253.165L276.287 239.84L274.869 239.678L275.032 238.258L272.062 237.918L271.899 239.338L270.481 239.176L269.762 245.44L266.783 245.099L266.616 246.549L265.466 246.418L265.241 246.392L262.338 246.06L262.812 241.928L261.394 241.766L261.56 240.316L258.603 239.978L258.436 241.428L257.005 241.264L254.729 261.107ZM257.452 269.419L257.825 266.17L256.373 266.003L256.908 261.338L256.183 261.255L258.453 241.462L261.356 241.795L259.983 253.764L261.435 253.93L262.171 247.51L265.075 247.842L264.522 252.657L265.974 252.823L266.684 246.632L269.587 246.964L268.877 253.155L270.328 253.321L271.929 239.372L274.832 239.704L273.021 255.488L274.473 255.654L274.592 254.615L276.043 254.781L276.209 253.342L279.106 253.673L278.729 256.957L277.284 256.791L277.096 258.429L275.644 258.263L275.269 261.535L273.817 261.369L273.44 264.656L271.988 264.49L271.614 267.755L270.162 267.589L269.79 270.831L257.452 269.419Z" fill="black"/>
<path d="M287.34 240.473L285.468 239.496C285.134 239.325 285.003 238.917 285.174 238.584L287.152 234.787C287.209 234.677 287.077 234.567 286.979 234.643L280.964 239.342C280.562 239.641 280.613 240.259 281.059 240.488L282.931 241.465C283.265 241.635 283.396 242.044 283.225 242.377L281.436 245.801C281.379 245.909 281.508 246.019 281.606 245.946L287.435 241.618C287.838 241.319 287.786 240.702 287.34 240.473Z" fill="white"/>
<path d="M267.734 228.063L265.261 228.298C264.823 228.343 264.432 228.024 264.387 227.587L263.902 222.577C263.888 222.432 263.687 222.408 263.64 222.546L260.722 231.028C260.517 231.581 260.963 232.157 261.55 232.097L264.023 231.862C264.461 231.817 264.852 232.136 264.897 232.573L265.329 237.095C265.342 237.238 265.54 237.263 265.59 237.129L268.562 229.132C268.767 228.579 268.321 228.003 267.734 228.063Z" fill="white"/>
<path d="M249.223 235.354L247.841 236.861C247.598 237.13 247.182 237.151 246.913 236.908L243.849 234.111C243.761 234.031 243.625 234.127 243.672 234.237L246.573 241.032C246.753 241.483 247.344 241.589 247.67 241.229L249.052 239.723C249.295 239.454 249.711 239.433 249.98 239.676L252.741 242.203C252.828 242.282 252.964 242.189 252.92 242.079L250.32 235.552C250.14 235.101 249.549 234.994 249.223 235.354Z" fill="white"/>
<g filter="url(#filter4_d)">
<ellipse cx="185.688" cy="155.399" rx="20.2459" ry="20.2232" fill="white"/>
</g>
<path d="M191.016 153.802C191.016 157.622 187.916 160.72 184.09 160.72C180.264 160.72 177.164 157.622 177.164 153.802C177.164 149.983 180.264 146.885 184.09 146.885C187.916 146.885 191.016 149.983 191.016 153.802Z" fill="#F6F6F6" stroke="black" stroke-width="2.13115"/>
<path d="M189.418 158.809L195.062 164.446" stroke="black" stroke-width="2.13115"/>
<g filter="url(#filter5_d)">
<ellipse cx="342.328" cy="243.742" rx="20.2459" ry="20.2232" fill="white"/>
</g>
<rect x="1.45631" y="-0.390217" width="22.6255" height="6.0979" rx="3.04895" transform="matrix(0.500421 -0.865782 0.866268 0.499579 329.541 253.47)" stroke="black" stroke-width="2.13115"/>
<rect x="0.389837" y="-1.45489" width="22.6255" height="6.0979" rx="3.04895" transform="matrix(-0.500421 -0.865782 0.866268 -0.499579 350.988 254.671)" stroke="black" stroke-width="2.13115"/>
<path d="M337.115 250.886C337.115 252.567 335.751 253.932 334.065 253.932C332.38 253.932 331.015 252.567 331.015 250.886C331.015 249.206 332.38 247.841 334.065 247.841C335.751 247.841 337.115 249.206 337.115 250.886Z" stroke="black" stroke-width="2.13115"/>
<g filter="url(#filter6_d)">
<ellipse cx="364.705" cy="118.146" rx="20.2459" ry="20.2232" fill="white"/>
</g>
<path d="M360.368 116.873V117.556C360.368 118.822 359.963 119.847 359.153 120.631C358.344 121.416 357.297 121.808 356.015 121.808C354.649 121.808 353.514 121.365 352.611 120.479C351.717 119.585 351.27 118.497 351.27 117.215C351.27 115.924 351.713 114.832 352.599 113.937C353.493 113.043 354.598 112.596 355.914 112.596C356.741 112.596 357.496 112.786 358.179 113.166C358.862 113.537 359.394 114.034 359.773 114.659L358.28 115.519C358.069 115.156 357.749 114.861 357.319 114.633C356.897 114.406 356.424 114.292 355.901 114.292C355.058 114.292 354.362 114.57 353.814 115.127C353.274 115.675 353.004 116.371 353.004 117.215C353.004 118.05 353.278 118.742 353.826 119.29C354.383 119.83 355.117 120.1 356.028 120.1C356.703 120.1 357.26 119.952 357.698 119.657C358.145 119.353 358.449 118.94 358.609 118.417H355.927V116.873H360.368ZM365.461 112.773C366.676 112.773 367.688 113.199 368.498 114.051C369.316 114.903 369.725 115.954 369.725 117.202C369.725 118.451 369.316 119.501 368.498 120.353C367.688 121.205 366.676 121.631 365.461 121.631H361.943V112.773H365.461ZM365.461 119.961C366.229 119.961 366.853 119.707 367.334 119.201C367.814 118.687 368.055 118.02 368.055 117.202C368.055 116.384 367.814 115.722 367.334 115.215C366.853 114.701 366.229 114.444 365.461 114.444H363.689V119.961H365.461ZM376.422 112.773H378.168V121.631H376.839L373.043 116.215V121.631H371.297V112.773H372.625L376.422 118.176V112.773Z" fill="black"/>
<g filter="url(#filter7_d)">
<ellipse cx="128.148" cy="329.957" rx="20.2459" ry="20.2232" fill="white"/>
</g>
<path d="M137.591 326.939L137.591 326.942C137.657 327.756 137.688 328.46 137.688 329.057V329.087L137.69 329.117L137.738 329.987C137.737 332.286 137.585 333.874 137.326 334.826C137.159 335.428 136.826 335.762 136.224 335.93C135.847 336.029 135.006 336.127 133.6 336.194L133.599 336.194C132.246 336.26 130.996 336.293 129.849 336.293H129.833L129.818 336.293L128.132 336.343C125.914 336.342 124.127 336.305 122.765 336.232C121.372 336.157 120.505 336.047 120.075 335.93C119.472 335.764 119.138 335.431 118.971 334.829C118.861 334.417 118.769 333.824 118.705 333.024C118.639 332.176 118.608 331.455 118.608 330.858V330.828L118.606 330.798L118.558 329.928C118.559 327.629 118.711 326.041 118.97 325.089C119.137 324.486 119.47 324.153 120.072 323.985C120.45 323.885 121.276 323.788 122.646 323.721C124.033 323.655 125.3 323.622 126.447 323.622H126.463L126.478 323.622L128.164 323.572C130.382 323.573 132.169 323.61 133.531 323.683C134.923 323.758 135.791 323.868 136.221 323.985C136.824 324.151 137.158 324.484 137.325 325.086C137.434 325.495 137.527 326.103 137.591 326.939Z" stroke="black" stroke-width="2.13115"/>
<path d="M131.344 329.957L126.017 333.15V326.764L131.344 329.957Z" fill="black"/>
<g filter="url(#filter8_d)">
<ellipse cx="188.885" cy="246.936" rx="20.2459" ry="20.2232" fill="white"/>
</g>
<path d="M193.363 256.053V238.086C193.363 237.119 194.229 236.294 195.186 236.294C196.14 236.294 197.01 236.996 197.01 238.222V256.053C197.01 256.877 196.733 257.365 196.422 257.654C196.092 257.96 195.639 258.118 195.186 258.118C194.278 258.118 193.363 257.465 193.363 256.053Z" stroke="black" stroke-width="2.13115"/>
<path d="M185.797 256.052V247.205C185.797 246.238 186.662 245.412 187.62 245.412C188.573 245.412 189.443 246.115 189.443 247.341V256.052C189.443 256.876 189.167 257.365 188.856 257.653C188.526 257.959 188.073 258.117 187.62 258.117C186.712 258.117 185.797 257.465 185.797 256.052Z" stroke="black" stroke-width="2.13115"/>
<path d="M181.877 256.325C181.877 257.304 181.071 258.118 180.053 258.118C179.035 258.118 178.23 257.304 178.23 256.325C178.23 255.345 179.035 254.532 180.053 254.532C181.071 254.532 181.877 255.345 181.877 256.325Z" stroke="black" stroke-width="2.13115"/>
<g filter="url(#filter9_d)">
<ellipse cx="411.59" cy="316.12" rx="20.2459" ry="20.2232" fill="white"/>
</g>
<path d="M421.584 315.023H423.311V317.218H421.584C421.271 319.588 420.294 321.591 418.654 323.229C417.049 324.832 415.061 325.79 412.689 326.104V327.829H410.491V326.104C408.119 325.79 406.113 324.832 404.473 323.229C402.869 321.591 401.909 319.588 401.595 317.218H399.869V315.023H401.595C401.909 312.653 402.869 310.667 404.473 309.064C406.113 307.427 408.119 306.451 410.491 306.137V304.412H412.689V306.137C415.061 306.451 417.049 307.427 418.654 309.064C420.294 310.667 421.271 312.653 421.584 315.023ZM403.846 315.023H405.468V317.218H403.846C404.125 318.96 404.857 320.441 406.043 321.661C407.264 322.846 408.747 323.577 410.491 323.856V322.236H412.689V323.856C414.433 323.577 415.898 322.846 417.084 321.661C418.305 320.441 419.055 318.96 419.334 317.218H417.712V315.023H419.334C419.055 313.281 418.305 311.817 417.084 310.632C415.898 309.413 414.433 308.664 412.689 308.385V310.005H410.491V308.385C408.747 308.664 407.264 309.413 406.043 310.632C404.857 311.817 404.125 313.281 403.846 315.023ZM416.038 320.563H407.142V319.466C407.212 318.734 407.753 318.176 408.764 317.793C409.811 317.41 410.753 317.218 411.59 317.218C412.427 317.218 413.352 317.41 414.363 317.793C415.41 318.176 415.968 318.734 416.038 319.466V320.563ZM411.59 311.678C412.218 311.678 412.741 311.887 413.16 312.305C413.578 312.723 413.788 313.246 413.788 313.873C413.788 314.5 413.578 315.04 413.16 315.493C412.741 315.911 412.218 316.121 411.59 316.121C410.962 316.121 410.439 315.911 410.02 315.493C409.602 315.04 409.392 314.5 409.392 313.873C409.392 313.246 409.602 312.723 410.02 312.305C410.439 311.887 410.962 311.678 411.59 311.678Z" fill="black"/>
<g filter="url(#filter10_d)">
<ellipse cx="326.344" cy="346.987" rx="20.2459" ry="20.2232" fill="white"/>
</g>
<path d="M313.557 338.472L317.819 338.472L322.082 355.502H333.803" stroke="black" stroke-width="2.13115"/>
<path d="M322.082 341.665H334.954C335.691 341.665 336.206 342.396 335.958 343.09L333.803 349.116L321.016 350.18" stroke="black" stroke-width="2.13115"/>
<path d="M324.213 355.502C324.213 356.676 323.26 357.63 322.081 357.63C320.903 357.63 319.95 356.676 319.95 355.502C319.95 354.328 320.903 353.375 322.081 353.375C323.26 353.375 324.213 354.328 324.213 355.502Z" fill="white" stroke="black" stroke-width="2.13115"/>
<path d="M335.934 355.502C335.934 356.676 334.981 357.63 333.803 357.63C332.625 357.63 331.672 356.676 331.672 355.502C331.672 354.328 332.625 353.375 333.803 353.375C334.981 353.375 335.934 354.328 335.934 355.502Z" fill="white" stroke="black" stroke-width="2.13115"/>
<g filter="url(#filter11_d)">
<ellipse cx="270.934" cy="451.296" rx="20.2459" ry="20.2232" fill="white"/>
</g>
<rect x="264.541" y="439.589" width="12.7869" height="22.3495" rx="2.13115" stroke="black" stroke-width="2.13115"/>
<ellipse cx="270.935" cy="457.683" rx="1.06557" ry="1.06438" fill="black"/>
<g filter="url(#filter12_d)">
<ellipse cx="511.754" cy="228.841" rx="20.2459" ry="20.2232" fill="white"/>
</g>
<rect x="505.36" y="217.134" width="12.7869" height="22.3495" rx="2.13115" stroke="black" stroke-width="2.13115"/>
<ellipse cx="511.754" cy="235.227" rx="1.06557" ry="1.06438" fill="black"/>
<path d="M508.557 224.583H500.033V220.328H509.623V224.989L509.034 224.695L508.809 224.583H508.557Z" fill="#F6F6F6" stroke="black" stroke-width="2.13115"/>
<path d="M514.951 230.969H523.475V226.714H513.885V231.376L514.475 231.081L514.7 230.969H514.951Z" fill="#F6F6F6" stroke="black" stroke-width="2.13115"/>
<defs>
<filter id="filter0_d" x="234.426" y="10.3518" width="64.8811" height="64.4464" filterUnits="userSpaceOnUse" color-interpolation-filters="sRGB">
<feFlood flood-opacity="0" result="BackgroundImageFix"/>
<feColorMatrix in="SourceAlpha" type="matrix" values="0 0 0 0 0 0 0 0 0 0 0 0 0 0 0 0 0 0 127 0"/>
<feOffset/>
<feGaussianBlur stdDeviation="6"/>
<feColorMatrix type="matrix" values="0 0 0 0 0 0 0 0 0 0 0 0 0 0 0 0 0 0 0.1 0"/>
<feBlend mode="normal" in2="BackgroundImageFix" result="effect1_dropShadow"/>
<feBlend mode="normal" in="SourceGraphic" in2="effect1_dropShadow" result="shape"/>
</filter>
<filter id="filter1_d" x="65" y="402.043" width="64.8811" height="64.4464" filterUnits="userSpaceOnUse" color-interpolation-filters="sRGB">
<feFlood flood-opacity="0" result="BackgroundImageFix"/>
<feColorMatrix in="SourceAlpha" type="matrix" values="0 0 0 0 0 0 0 0 0 0 0 0 0 0 0 0 0 0 127 0"/>
<feOffset/>
<feGaussianBlur stdDeviation="6"/>
<feColorMatrix type="matrix" values="0 0 0 0 0 0 0 0 0 0 0 0 0 0 0 0 0 0 0.1 0"/>
<feBlend mode="normal" in2="BackgroundImageFix" result="effect1_dropShadow"/>
<feBlend mode="normal" in="SourceGraphic" in2="effect1_dropShadow" result="shape"/>
</filter>
<filter id="filter2_d" x="396.394" y="397.786" width="64.8811" height="64.4464" filterUnits="userSpaceOnUse" color-interpolation-filters="sRGB">
<feFlood flood-opacity="0" result="BackgroundImageFix"/>
<feColorMatrix in="SourceAlpha" type="matrix" values="0 0 0 0 0 0 0 0 0 0 0 0 0 0 0 0 0 0 127 0"/>
<feOffset/>
<feGaussianBlur stdDeviation="6"/>
<feColorMatrix type="matrix" values="0 0 0 0 0 0 0 0 0 0 0 0 0 0 0 0 0 0 0.1 0"/>
<feBlend mode="normal" in2="BackgroundImageFix" result="effect1_dropShadow"/>
<feBlend mode="normal" in="SourceGraphic" in2="effect1_dropShadow" result="shape"/>
</filter>
<filter id="filter3_d" x="0" y="123.176" width="64.8811" height="64.4464" filterUnits="userSpaceOnUse" color-interpolation-filters="sRGB">
<feFlood flood-opacity="0" result="BackgroundImageFix"/>
<feColorMatrix in="SourceAlpha" type="matrix" values="0 0 0 0 0 0 0 0 0 0 0 0 0 0 0 0 0 0 127 0"/>
<feOffset/>
<feGaussianBlur stdDeviation="6"/>
<feColorMatrix type="matrix" values="0 0 0 0 0 0 0 0 0 0 0 0 0 0 0 0 0 0 0.1 0"/>
<feBlend mode="normal" in2="BackgroundImageFix" result="effect1_dropShadow"/>
<feBlend mode="normal" in="SourceGraphic" in2="effect1_dropShadow" result="shape"/>
</filter>
<filter id="filter4_d" x="153.442" y="123.176" width="64.4918" height="64.4464" filterUnits="userSpaceOnUse" color-interpolation-filters="sRGB">
<feFlood flood-opacity="0" result="BackgroundImageFix"/>
<feColorMatrix in="SourceAlpha" type="matrix" values="0 0 0 0 0 0 0 0 0 0 0 0 0 0 0 0 0 0 127 0"/>
<feOffset/>
<feGaussianBlur stdDeviation="6"/>
<feColorMatrix type="matrix" values="0 0 0 0 0 0 0 0 0 0 0 0 0 0 0 0 0 0 0.1 0"/>
<feBlend mode="normal" in2="BackgroundImageFix" result="effect1_dropShadow"/>
<feBlend mode="normal" in="SourceGraphic" in2="effect1_dropShadow" result="shape"/>
</filter>
<filter id="filter5_d" x="310.082" y="211.519" width="64.4918" height="64.4464" filterUnits="userSpaceOnUse" color-interpolation-filters="sRGB">
<feFlood flood-opacity="0" result="BackgroundImageFix"/>
<feColorMatrix in="SourceAlpha" type="matrix" values="0 0 0 0 0 0 0 0 0 0 0 0 0 0 0 0 0 0 127 0"/>
<feOffset/>
<feGaussianBlur stdDeviation="6"/>
<feColorMatrix type="matrix" values="0 0 0 0 0 0 0 0 0 0 0 0 0 0 0 0 0 0 0.1 0"/>
<feBlend mode="normal" in2="BackgroundImageFix" result="effect1_dropShadow"/>
<feBlend mode="normal" in="SourceGraphic" in2="effect1_dropShadow" result="shape"/>
</filter>
<filter id="filter6_d" x="332.459" y="85.9226" width="64.4918" height="64.4464" filterUnits="userSpaceOnUse" color-interpolation-filters="sRGB">
<feFlood flood-opacity="0" result="BackgroundImageFix"/>
<feColorMatrix in="SourceAlpha" type="matrix" values="0 0 0 0 0 0 0 0 0 0 0 0 0 0 0 0 0 0 127 0"/>
<feOffset/>
<feGaussianBlur stdDeviation="6"/>
<feColorMatrix type="matrix" values="0 0 0 0 0 0 0 0 0 0 0 0 0 0 0 0 0 0 0.1 0"/>
<feBlend mode="normal" in2="BackgroundImageFix" result="effect1_dropShadow"/>
<feBlend mode="normal" in="SourceGraphic" in2="effect1_dropShadow" result="shape"/>
</filter>
<filter id="filter7_d" x="95.9019" y="297.734" width="64.4918" height="64.4464" filterUnits="userSpaceOnUse" color-interpolation-filters="sRGB">
<feFlood flood-opacity="0" result="BackgroundImageFix"/>
<feColorMatrix in="SourceAlpha" type="matrix" values="0 0 0 0 0 0 0 0 0 0 0 0 0 0 0 0 0 0 127 0"/>
<feOffset/>
<feGaussianBlur stdDeviation="6"/>
<feColorMatrix type="matrix" values="0 0 0 0 0 0 0 0 0 0 0 0 0 0 0 0 0 0 0.1 0"/>
<feBlend mode="normal" in2="BackgroundImageFix" result="effect1_dropShadow"/>
<feBlend mode="normal" in="SourceGraphic" in2="effect1_dropShadow" result="shape"/>
</filter>
<filter id="filter8_d" x="156.639" y="214.712" width="64.4918" height="64.4464" filterUnits="userSpaceOnUse" color-interpolation-filters="sRGB">
<feFlood flood-opacity="0" result="BackgroundImageFix"/>
<feColorMatrix in="SourceAlpha" type="matrix" values="0 0 0 0 0 0 0 0 0 0 0 0 0 0 0 0 0 0 127 0"/>
<feOffset/>
<feGaussianBlur stdDeviation="6"/>
<feColorMatrix type="matrix" values="0 0 0 0 0 0 0 0 0 0 0 0 0 0 0 0 0 0 0.1 0"/>
<feBlend mode="normal" in2="BackgroundImageFix" result="effect1_dropShadow"/>
<feBlend mode="normal" in="SourceGraphic" in2="effect1_dropShadow" result="shape"/>
</filter>
<filter id="filter9_d" x="379.344" y="283.897" width="64.4918" height="64.4464" filterUnits="userSpaceOnUse" color-interpolation-filters="sRGB">
<feFlood flood-opacity="0" result="BackgroundImageFix"/>
<feColorMatrix in="SourceAlpha" type="matrix" values="0 0 0 0 0 0 0 0 0 0 0 0 0 0 0 0 0 0 127 0"/>
<feOffset/>
<feGaussianBlur stdDeviation="6"/>
<feColorMatrix type="matrix" values="0 0 0 0 0 0 0 0 0 0 0 0 0 0 0 0 0 0 0.1 0"/>
<feBlend mode="normal" in2="BackgroundImageFix" result="effect1_dropShadow"/>
<feBlend mode="normal" in="SourceGraphic" in2="effect1_dropShadow" result="shape"/>
</filter>
<filter id="filter10_d" x="294.098" y="314.764" width="64.4918" height="64.4464" filterUnits="userSpaceOnUse" color-interpolation-filters="sRGB">
<feFlood flood-opacity="0" result="BackgroundImageFix"/>
<feColorMatrix in="SourceAlpha" type="matrix" values="0 0 0 0 0 0 0 0 0 0 0 0 0 0 0 0 0 0 127 0"/>
<feOffset/>
<feGaussianBlur stdDeviation="6"/>
<feColorMatrix type="matrix" values="0 0 0 0 0 0 0 0 0 0 0 0 0 0 0 0 0 0 0.1 0"/>
<feBlend mode="normal" in2="BackgroundImageFix" result="effect1_dropShadow"/>
<feBlend mode="normal" in="SourceGraphic" in2="effect1_dropShadow" result="shape"/>
</filter>
<filter id="filter11_d" x="238.688" y="419.073" width="64.4918" height="64.4464" filterUnits="userSpaceOnUse" color-interpolation-filters="sRGB">
<feFlood flood-opacity="0" result="BackgroundImageFix"/>
<feColorMatrix in="SourceAlpha" type="matrix" values="0 0 0 0 0 0 0 0 0 0 0 0 0 0 0 0 0 0 127 0"/>
<feOffset/>
<feGaussianBlur stdDeviation="6"/>
<feColorMatrix type="matrix" values="0 0 0 0 0 0 0 0 0 0 0 0 0 0 0 0 0 0 0.1 0"/>
<feBlend mode="normal" in2="BackgroundImageFix" result="effect1_dropShadow"/>
<feBlend mode="normal" in="SourceGraphic" in2="effect1_dropShadow" result="shape"/>
</filter>
<filter id="filter12_d" x="479.508" y="196.618" width="64.4918" height="64.4464" filterUnits="userSpaceOnUse" color-interpolation-filters="sRGB">
<feFlood flood-opacity="0" result="BackgroundImageFix"/>
<feColorMatrix in="SourceAlpha" type="matrix" values="0 0 0 0 0 0 0 0 0 0 0 0 0 0 0 0 0 0 127 0"/>
<feOffset/>
<feGaussianBlur stdDeviation="6"/>
<feColorMatrix type="matrix" values="0 0 0 0 0 0 0 0 0 0 0 0 0 0 0 0 0 0 0.1 0"/>
<feBlend mode="normal" in2="BackgroundImageFix" result="effect1_dropShadow"/>
<feBlend mode="normal" in="SourceGraphic" in2="effect1_dropShadow" result="shape"/>
</filter>
</defs>
</svg>
