<svg width="366" height="494" viewBox="0 0 366 494" fill="none" xmlns="http://www.w3.org/2000/svg">
<rect width="78.5062" height="12.7307" rx="6.36537" transform="matrix(0.93358 0.358368 0 1 62.939 160.552)" fill="#F6F6F6"/>
<rect width="78.5062" height="12.7307" rx="6.36537" transform="matrix(0.93358 0.358368 0 1 62.939 178.587)" fill="#F6F6F6"/>
<rect width="78.5062" height="12.7307" rx="6.36537" transform="matrix(0.93358 0.358368 0 1 62.939 196.622)" fill="#F6F6F6"/>
<rect width="41.3749" height="12.7307" rx="6.36537" transform="matrix(0.93358 0.358368 0 1 61.9478 215.339)" fill="#F6F6F6"/>
<rect x="0.93358" y="1.35837" width="76.5062" height="10.7307" rx="5.36537" transform="matrix(0.93358 0.358368 0 1 58.2739 161.433)" stroke="black" stroke-width="2"/>
<rect x="0.93358" y="1.35837" width="76.5062" height="10.7307" rx="5.36537" transform="matrix(0.93358 0.358368 0 1 58.2739 179.468)" stroke="black" stroke-width="2"/>
<rect x="0.93358" y="1.35837" width="76.5062" height="10.7307" rx="5.36537" transform="matrix(0.93358 0.358368 0 1 58.2739 197.505)" stroke="black" stroke-width="2"/>
<rect x="0.93358" y="1.35837" width="39.3749" height="10.7307" rx="5.36537" transform="matrix(0.93358 0.358368 0 1 58.2739 216.6)" stroke="black" stroke-width="2"/>
<path d="M76.0387 171.794L76.7058 174.249L78.8645 175.078L77.1181 175.767L77.7852 178.222L76.0387 176.192L74.2922 176.881L74.9593 174.938L73.2128 172.909L75.3716 173.737L76.0387 171.794Z" fill="black"/>
<path d="M84.954 175.216L85.6211 177.671L87.7798 178.499L86.0333 179.188L86.7004 181.643L84.954 179.614L83.2075 180.303L83.8746 178.36L82.1281 176.33L84.2869 177.159L84.954 175.216Z" fill="black"/>
<path d="M94.858 179.018L95.5251 181.473L97.6839 182.302L95.9374 182.991L96.6045 185.446L94.858 183.416L93.1115 184.105L93.7786 182.162L92.0321 180.132L94.1909 180.961L94.858 179.018Z" fill="black"/>
<path d="M104.763 182.82L105.43 185.275L107.589 186.103L105.842 186.792L106.509 189.247L104.763 187.218L103.016 187.907L103.683 185.964L101.937 183.934L104.096 184.763L104.763 182.82Z" fill="black"/>
<path d="M114.667 186.622L115.334 189.077L117.493 189.906L115.746 190.594L116.413 193.05L114.667 191.02L112.92 191.709L113.587 189.766L111.841 187.736L114 188.565L114.667 186.622Z" fill="#C7C7C7"/>
<path d="M66.4192 188.213C66.9089 189.065 68.7596 192.744 69.8643 191.761C70.3864 191.297 70.9453 190.881 71.4652 190.43C71.9089 190.046 73.4472 192.226 73.8337 192.563C75.1374 193.701 76.6082 193.891 77.7656 193.551C78.9533 193.202 79.09 193.551 79.7691 195.142C80.262 196.298 80.9544 197.502 81.9316 197.015C82.4367 196.764 83.1598 195.841 83.9538 196.698C84.6897 197.493 84.731 198.327 85.7419 198.438C87.0132 198.577 87.9507 197.797 89.2151 197.896C89.9889 197.956 90.3407 198.849 90.8159 199.523C91.7657 200.87 93.4414 199.829 94.2423 199.695C95.0941 199.553 95.6674 200.012 96.3206 200.934C97.2508 202.248 99.2573 202.252 100.309 202.315C101.153 202.365 100.989 202.08 101.732 203.272C102.659 204.761 103.778 203.993 104.671 203.618" stroke="black" stroke-width="2" stroke-linecap="round" stroke-linejoin="round"/>
<path d="M66.085 207.757C67.169 208.537 68.2061 209.121 69.268 208.938C69.7823 208.85 70.5201 208.182 71.1778 208.669C71.8775 209.187 72.5559 209.338 73.2561 209.828C73.5503 210.033 73.6403 210.443 73.9395 210.682C74.2283 210.911 74.5438 211.004 74.8476 211.12C75.4724 211.36 76.0507 211.742 76.6637 211.998C77.2909 212.26 78.0028 212.594 78.611 212.645C78.897 212.669 79.133 212.38 79.4348 212.52C80.1334 212.844 80.679 215.236 81.588 214.269C81.9191 213.917 82.1083 213.15 82.5336 212.928C83.096 212.634 83.6925 214.23 83.8723 214.645C83.9921 214.921 84.096 215.811 84.4621 215.854C84.9987 215.916 85.0917 215.116 85.4638 214.915C86.4726 214.369 86.7346 217.235 87.3174 217.131C87.6374 217.073 87.7112 216.492 88.0944 216.576C88.673 216.703 89.0006 217.185 89.4332 217.682C90.8828 219.347 91.0833 216.44 91.7362 216.38C93.1959 216.245 93.6675 219.428 94.6383 219.8C95.5646 220.156 96.1495 218.733 96.96 219.548C97.4517 220.043 97.5115 220.484 98.1302 220.479C98.6378 220.474 99.1043 220.092 99.6562 220.283C102.103 221.128 104.582 222.535 107.033 223.475" stroke="black" stroke-width="2" stroke-linecap="round" stroke-linejoin="round"/>
<path d="M76.3235 232.437C75.8648 232.747 75.3065 232.776 74.6486 232.524C73.9908 232.271 73.4325 231.814 72.9738 231.151C72.5193 230.485 72.2921 229.797 72.2921 229.088C72.2921 228.379 72.5193 227.868 72.9738 227.556C73.4325 227.24 73.9908 227.209 74.6486 227.462C75.3065 227.714 75.8648 228.174 76.3235 228.842C76.7823 229.504 77.0117 230.191 77.0117 230.9C77.0117 231.609 76.7823 232.121 76.3235 232.437ZM73.6035 230.739C73.8848 231.144 74.2332 231.426 74.6486 231.585C75.0641 231.745 75.4125 231.73 75.6938 231.541C75.9751 231.348 76.1158 231.019 76.1158 230.556C76.1158 230.092 75.9751 229.656 75.6938 229.247C75.4125 228.837 75.0641 228.553 74.6486 228.393C74.2332 228.234 73.8848 228.251 73.6035 228.444C73.3221 228.638 73.1815 228.966 73.1815 229.43C73.1815 229.893 73.3221 230.33 73.6035 230.739ZM81.1923 234.938L80.1601 234.542L78.5372 231.638V233.919L77.6413 233.575V228.708L78.5372 229.052V231.2L80.0952 229.65L81.1274 230.046L79.446 231.765L81.1923 234.938Z" fill="black"/>
<ellipse cx="153.872" cy="469.426" rx="80.4409" ry="23.9149" fill="#F6F6F6"/>
<path d="M156.091 37.2597C156.005 26.7956 163.874 21.2299 173.691 24.8109L343.949 86.9152C353.881 90.5383 362.001 102.128 362.001 112.682L362.001 429.611C362.001 440.051 354.049 445.516 344.223 441.828L176.559 378.907C166.755 375.228 158.77 363.82 158.684 353.371L156.091 37.2597Z" fill="#F6F6F6"/>
<path d="M147.508 20.9007C147.423 10.4461 155.278 4.87929 165.086 8.44351L336.352 70.6808C346.294 74.2934 354.427 85.8921 354.427 96.4563L354.427 436.749C354.427 447.145 346.54 452.616 336.756 449.006L168.282 386.853C158.437 383.221 150.387 371.77 150.301 361.277L147.508 20.9007Z" stroke="black" stroke-width="2"/>
<rect width="173.926" height="26.089" rx="13.0445" transform="matrix(0.938191 0.346117 0.00820296 0.999966 168.216 66.0486)" stroke="black" stroke-width="2"/>
<circle r="5.4352" transform="matrix(0.938191 0.346117 0.00820296 0.999966 312.111 131.056)" stroke="black" stroke-width="2"/>
<line x1="315.874" y1="137.157" x2="319.989" y2="143.01" stroke="black" stroke-width="2"/>
<circle r="3.26112" transform="matrix(0.938191 0.346117 0.00820296 0.999966 164.807 22.5265)" fill="black"/>
<circle r="3.26112" transform="matrix(0.938191 0.346117 0.00820296 0.999966 177.044 27.0414)" fill="black"/>
<circle r="3.26112" transform="matrix(0.938191 0.346117 0.00820296 0.999966 189.284 31.5562)" fill="black"/>
<path d="M147.576 29.2612L354.5 106" stroke="black" stroke-width="2"/>
<rect width="73.9187" height="54.352" transform="matrix(0.938191 0.346117 0.00820296 0.999966 174.78 122.656)" stroke="black" stroke-width="2"/>
<line y1="-1" x2="60.8742" y2="-1" transform="matrix(0.938191 0.346117 0.00820296 0.999966 175.332 190.05)" stroke="black" stroke-width="2"/>
<line y1="-1" x2="60.8742" y2="-1" transform="matrix(0.938191 0.346117 0.00820296 0.999966 175.387 196.572)" stroke="black" stroke-width="2"/>
<line y1="-1" x2="30.4371" y2="-1" transform="matrix(0.938191 0.346117 0.00820296 0.999966 175.441 203.094)" stroke="black" stroke-width="2"/>
<rect width="73.9187" height="54.352" transform="matrix(0.938191 0.346117 0.00820296 0.999966 262.487 155.014)" stroke="black" stroke-width="2"/>
<line y1="-1" x2="60.8742" y2="-1" transform="matrix(0.938191 0.346117 0.00820296 0.999966 263.038 222.408)" stroke="black" stroke-width="2"/>
<line y1="-1" x2="60.8742" y2="-1" transform="matrix(0.938191 0.346117 0.00820296 0.999966 263.093 228.93)" stroke="black" stroke-width="2"/>
<line y1="-1" x2="30.4371" y2="-1" transform="matrix(0.938191 0.346117 0.00820296 0.999966 263.147 235.451)" stroke="black" stroke-width="2"/>
<rect width="73.9187" height="32.6112" rx="16.3056" transform="matrix(0.938191 0.346117 0.00820296 0.999966 175.583 220.486)" fill="black"/>
<rect width="73.9187" height="30.4371" rx="15.2186" transform="matrix(0.938191 0.346117 0.00820296 0.999966 263.289 252.844)" stroke="black" stroke-width="2"/>
<path d="M198.081 236.372L203.181 238.254L207.349 250.629L217.548 254.391L218.496 246.071L209.317 242.685" stroke="white" stroke-width="2.37501"/>
<circle r="2.17408" transform="matrix(0.938191 0.346117 0.00820296 0.999966 208.413 256.439)" fill="white"/>
<circle r="2.17408" transform="matrix(0.938191 0.346117 0.00820296 0.999966 216.572 259.449)" fill="white"/>
<path d="M290.931 276.046L297.104 284.826L307.213 277.718" stroke="black" stroke-width="2"/>
<line y1="-1" x2="69.5705" y2="-1" transform="matrix(0.938191 0.346117 0.00820296 0.999966 176.081 281.358)" stroke="black" stroke-width="2"/>
<line y1="-1" x2="69.5705" y2="-1" transform="matrix(0.938191 0.346117 0.00820296 0.999966 176.135 287.88)" stroke="black" stroke-width="2"/>
<line y1="-1" x2="167.404" y2="-1" transform="matrix(0.938191 0.346117 0.00820296 0.999966 176.259 303.099)" stroke="black" stroke-width="2"/>
<line y1="-1" x2="167.404" y2="-1" transform="matrix(0.938191 0.346117 0.00820296 0.999966 176.332 311.794)" stroke="black" stroke-width="2"/>
<line y1="-1" x2="167.404" y2="-1" transform="matrix(0.938191 0.346117 0.00820296 0.999966 176.401 320.49)" stroke="black" stroke-width="2"/>
<line y1="-1" x2="123.923" y2="-1" transform="matrix(0.938191 0.346117 0.00820296 0.999966 176.474 329.187)" stroke="black" stroke-width="2"/>
<line y1="-1" x2="141.315" y2="-1" transform="matrix(0.938191 0.346117 0.00820296 0.999966 176.543 337.883)" stroke="black" stroke-width="2"/>
<line y1="-1" x2="154.36" y2="-1" transform="matrix(0.938191 0.346117 0.00820296 0.999966 176.616 346.578)" stroke="black" stroke-width="2"/>
<line y1="-1" x2="154.36" y2="-1" transform="matrix(0.938191 0.346117 0.00820296 0.999966 176.688 355.275)" stroke="black" stroke-width="2"/>
<path d="M197.159 267.877L195.527 271.458L198.791 275.934C199.879 275.635 201.565 275.397 202.871 273.248C204.503 270.562 204.503 270.562 203.687 268.772C203.103 267.491 202.599 266.982 202.055 266.982C201.783 266.982 202.061 265.628 202.871 264.296C204.503 261.61 204.503 260.715 203.687 260.715C202.871 260.715 197.975 266.086 197.159 267.877Z" stroke="black" stroke-width="2.37501"/>
<path d="M115.086 471.601C115.086 468.992 115.81 466.89 116.173 466.165C118.709 465.441 124 464.209 124.869 465.078C125.956 466.165 128.13 468.34 130.305 469.427C132.479 470.514 135.74 471.601 134.653 473.775C133.566 475.949 125.956 475.949 119.434 475.949C112.912 475.949 115.086 474.862 115.086 471.601Z" fill="white" stroke="black" stroke-width="2.37501"/>
<path d="M151.055 471.901C150.761 469.309 151.391 467.122 151.742 466.353C154.691 465.29 160.874 463.35 162.011 464.096C163.432 465.029 166.274 466.895 168.994 467.681C171.714 468.467 175.733 469.106 174.679 471.414C173.625 473.721 164.532 474.751 156.739 475.633C148.946 476.516 151.422 475.141 151.055 471.901Z" fill="white" stroke="black" stroke-width="2.37501"/>
<path d="M142.262 287.891L141.175 295.5C143.35 299.848 153.133 297.674 152.045 295.5C150.957 293.326 152.045 290.065 153.133 290.065C154.22 290.065 155.307 291.152 157.481 290.065C159.272 289.17 159.587 286.062 160.25 284.386C160.482 283.801 161.142 283.37 160.795 282.844C160.394 282.236 159.655 281.296 159.655 280.282C159.655 278.542 158.93 274.122 157.481 272.672L142.262 287.891Z" fill="white" stroke="black" stroke-width="2.37501"/>
<path d="M124.869 406.378C121.608 424.858 116.172 462.904 115.085 466.166C119.434 468.774 124.144 467.977 125.956 467.253C127.043 464.716 130.304 456.165 134.652 442.251C139 428.337 144.436 402.393 146.61 391.16C147.334 392.972 149.218 399.421 150.958 410.726C153.132 424.858 148.784 463.991 150.958 466.166C152.697 467.905 160.379 466.89 164.002 466.166C165.452 461.093 168.568 444.642 169.437 419.423C170.307 394.203 167.626 368.332 166.176 358.549L129.217 359.636C128.855 369.057 127.478 391.595 124.869 406.378Z" fill="black"/>
<path d="M141.174 295.5C141.174 295.863 142.044 296.805 145.523 297.674C149.001 298.544 151.32 296.587 152.045 295.5C156.393 295.5 166.394 295.066 171.612 293.326C176.829 291.587 189.729 278.108 195.526 271.585L199.875 277.021C198.063 282.456 192.483 294.848 184.656 300.936C176.829 307.023 169.075 309.994 166.176 310.719C165.814 311.081 165.089 312.676 165.089 316.154C165.089 320.502 169.437 350.939 169.437 354.2C169.437 356.809 167.988 358.911 167.263 359.636C163.64 361.085 154.219 363.766 145.523 362.897C136.826 362.027 129.579 359.636 127.043 358.549C127.955 354.594 129.634 346.248 130.149 340.069H123.782C121.173 340.069 119.072 336.445 118.347 334.634C117.26 324.85 118.347 317.241 120.521 310.719C122.695 304.197 125.956 299.848 131.391 296.587C135.74 293.978 139.725 294.776 141.174 295.5Z" fill="white"/>
<path d="M130.149 340.069C129.634 346.248 127.955 354.594 127.043 358.549C129.579 359.636 136.826 362.027 145.523 362.897C154.219 363.766 163.64 361.085 167.263 359.636C167.988 358.911 169.437 356.809 169.437 354.2C169.437 350.939 165.089 320.502 165.089 316.154C165.089 312.676 165.814 311.081 166.176 310.719C169.075 309.994 176.829 307.023 184.656 300.936C192.483 294.848 198.063 282.456 199.875 277.021L195.526 271.585C189.729 278.108 176.829 291.587 171.612 293.326C166.394 295.066 156.393 295.5 152.045 295.5C151.32 296.587 149.001 298.544 145.523 297.674C142.044 296.805 141.174 295.863 141.174 295.5C139.725 294.776 135.74 293.978 131.391 296.587C125.956 299.848 122.695 304.197 120.521 310.719C118.347 317.241 117.26 324.85 118.347 334.634C119.072 336.445 121.173 340.069 123.782 340.069C126.391 340.069 129.114 340.069 130.149 340.069ZM130.149 340.069C130.248 338.887 130.304 337.785 130.304 336.808C130.304 330.72 130.304 319.053 130.304 313.98L130.149 340.069Z" stroke="black" stroke-width="2.37501"/>
<path d="M150.958 287.891C149.218 290.5 145.885 290.427 144.435 290.065C137.913 287.891 135.739 281.369 139 274.847C142.261 268.324 150.958 267.237 154.219 267.237C157.48 267.237 160.741 268.324 160.741 271.585C160.741 274.847 158.567 277.021 156.393 278.108C154.219 279.195 153.132 279.195 152.045 281.369C150.958 283.543 153.132 284.63 150.958 287.891Z" fill="black"/>
<path d="M5.05933 247.777C5.05933 245.153 7.04473 243.789 9.49386 244.729L46.8606 259.073C48.0367 259.524 49.1646 260.457 49.9963 261.668L60.5915 277.084C61.4231 278.294 61.8903 279.681 61.8903 280.941V334.011C61.8903 336.634 59.9049 337.999 57.4558 337.058L9.49385 318.648C7.04473 317.707 5.05933 314.819 5.05933 312.195V247.777Z" fill="#F6F6F6"/>
<path d="M1 250.566C1 247.943 2.98541 246.578 5.43453 247.518L42.8012 261.862C43.9773 262.314 45.1053 263.247 45.9369 264.457L56.5321 279.873C57.3638 281.083 57.831 282.471 57.831 283.731V336.8C57.831 339.424 55.8456 340.788 53.3965 339.848L5.43453 321.437C2.9854 320.497 1 317.608 1 314.985V250.566Z" stroke="black" stroke-width="2"/>
<path d="M43.624 263.265V277.396L57.8318 282.85" stroke="black" stroke-width="2"/>
<path d="M29.4161 277.379V309.99M29.4161 309.99L21.2974 298.177M29.4161 309.99L37.5348 304.41" stroke="black" stroke-width="2"/>
<line y1="-1" x2="30.4371" y2="-1" transform="matrix(0.93358 0.358368 0 1 15.2087 309.971)" stroke="black" stroke-width="2"/>
<rect width="105.76" height="74.6538" rx="21.3751" transform="matrix(0.942641 0.333807 0 1 21.4524 10.0979)" fill="#F6F6F6"/>
<rect x="0.942641" y="1.33381" width="102.718" height="71.9187" rx="20.3751" transform="matrix(0.942641 0.333807 0 1 15.7003 14.6221)" stroke="black" stroke-width="2"/>
<path d="M76.6165 67.3264L59.1967 71.827L59.1967 50.4885L76.6165 67.3264Z" fill="black"/>
<line y1="-1" x2="73.9187" y2="-1" transform="matrix(0.942641 0.333807 0 1 29.9922 78.7178)" stroke="black" stroke-width="2"/>
<circle r="5.4352" transform="matrix(0.942641 0.333807 0 1 49.4616 84.5249)" fill="black"/>
</svg>
