<?xml version="1.0" encoding="utf-8"?>
<!-- Generator: Adobe Illustrator 24.1.1, SVG Export Plug-In . SVG Version: 6.00 Build 0)  -->
<svg version="1.1" id="Layer_1" xmlns="http://www.w3.org/2000/svg" xmlns:xlink="http://www.w3.org/1999/xlink" x="0px" y="0px"
	 width="162px" height="90px" viewBox="0 0 162 90" style="enable-background:new 0 0 162 90;" xml:space="preserve">
<style type="text/css">
	.st0{fill:#F6F6F6;}
</style>
<path class="st0" d="M161.4030151,47.0470161l-23.4532318,5.6474571l6.7549896,7.1088295
	c-16.511322,13.2409019-44.5607147,29.7885551-76.5985565,23.9273872
	c-21.0435982-3.8493195-36.9321976-19.5840149-47.6592331-34.7031326
	c-5.3395119-7.5254784-9.3389816-14.8129578-12.0031271-20.2206879c-1.3311162-2.7018261-2.3263612-4.9294281-2.9868827-6.4761696
	c-0.3301969-0.7732449-0.5764894-1.3758106-0.7391334-1.782198c-0.0812902-0.203064-0.1416678-0.3571644-0.1811333-0.4587936
	c-0.0197649-0.0507507-0.0343013-0.0885582-0.0434823-0.1127853c-0.0047178-0.0121136-0.007906-0.0207863-0.0100098-0.0261402
	c-0.0009565-0.002615-0.001658-0.0044632-0.0019765-0.0054207c-0.0001912-0.0004463-0.0001912-0.0005093-0.000319-0.0007H4.4808578
	c-0.4068327-1.0793419-1.6116469-1.6248455-2.6912422-1.2182045c-1.0797868,0.4067059-1.6253545,1.6116467-1.218713,2.6914978
	l1.689749-0.6364212c-1.6688367,0.628706-1.6894302,0.6373138-1.6890476,0.6382694
	c0.000255,0.000639,0.0007651,0.0019131,0.0011476,0.0031242c0.0009564,0.0025501,0.0022953,0.0059948,0.0038891,0.0102654
	c0.0032516,0.0084171,0.0078421,0.0204659,0.0137078,0.0358315c0.0116675,0.0306664,0.0286906,0.0749779,0.0510693,0.1325512
	c0.044566,0.1148891,0.1104269,0.2825699,0.1973276,0.4997253c0.1736738,0.4341221,0.432208,1.0663357,0.7756026,1.8703728
	c0.6864705,1.6078205,1.7131476,3.9045353,3.0813069,6.6817856c2.7345328,5.5505466,6.843792,13.0405178,12.3436518,20.792017
	C27.9910202,66.8803787,44.7046356,83.6983032,67.354332,87.841156c34.0263519,6.224205,63.451683-11.4715805,80.2386246-24.9983711
	l6.9742432,7.3395653L161.4030151,47.0470161z"/>
<path d="M6.0954332,0.4665327C5.8925748-0.07352,5.2902632-0.346786,4.7502065-0.1439275
	C4.2101541,0.058931,3.936888,0.6612463,4.1397462,1.2012991L6.0954332,0.4665327z M64.7453537,61.2918167l0.3286362-0.9913139
	L64.7453537,61.2918167z M159.8308868,49.174015c0.1138611-0.5655403-0.2517548-1.1165581-0.8179169-1.2307396l-9.2153931-1.8605194
	c-0.5651245-0.1141739-1.1166687,0.2517433-1.2305298,0.8171883c-0.1138763,0.5655365,0.2517395,1.1165657,0.816864,1.2307396
	l8.1916962,1.6537971l-1.6535797,8.191803c-0.1138763,0.5651245,0.2517395,1.1156273,0.816864,1.230526
	c0.5661621,0.1138611,1.1166687-0.2517471,1.2305298-0.8179169L159.8308868,49.174015z M5.11759,0.8339159
	C4.1397462,1.2012991,4.1399574,1.2018211,4.1401649,1.2024467c0.0002112,0.000522,0.0005221,0.0013587,0.0008368,0.0022992
	c0.0007291,0.0018809,0.0016694,0.0043873,0.0029249,0.0077305C4.1464329,1.2189517,4.1499834,1.2282482,4.154582,1.2403661
	c0.0092964,0.0242356,0.022769,0.059541,0.0406327,0.1055057C4.2310462,1.4380045,4.284112,1.573173,4.3547225,1.7488751
	C4.4960599,2.1004863,4.7075891,2.6147375,4.9911957,3.27231c0.5670061,1.314934,1.4223166,3.2037637,2.5803528,5.511795
	c2.3152361,4.6145926,5.8437653,10.9117126,10.7012272,17.6500664C27.978611,39.8983459,43.0472832,55.2018394,64.416832,62.2831345
	l0.6571579-1.9826317c-20.7941933-6.8911819-35.5394592-21.8164291-45.1064682-35.088089
	c-4.7791166-6.6295052-8.2518625-12.8271818-10.528657-17.3652058C8.3006725,5.5787716,7.4622855,3.7268131,6.9095888,2.4449928
	C6.6331906,1.8041323,6.4283476,1.3060715,6.2932787,0.9698177c-0.0675821-0.1680751-0.117723-0.2956208-0.1506295-0.3803378
	c-0.0163975-0.0423067-0.0285153-0.073954-0.0364571-0.0945355c-0.0038652-0.0103406-0.0067902-0.0178599-0.008563-0.022562
	C6.0967922,0.4699796,6.0961666,0.46831,6.0957479,0.4673696c-0.0002112-0.000522-0.0002112-0.0007332-0.0003147-0.0009404
	C6.0954332,0.4664291,6.0954332,0.4665327,5.11759,0.8339159z M64.416832,62.2831345
	c25.4482651,8.4330063,49.1939545,5.3128052,66.54673,0.1055107c8.6795349-2.6041756,15.7723083-5.7348213,20.6986084-8.2157288
	c2.4641876-1.2407684,4.3872833-2.320034,5.6982574-3.0911598c0.654953-0.3856659,1.1574097-0.6943359,1.4979401-0.9077454
	c0.1702728-0.1067619,0.2998047-0.1897011,0.3875427-0.2465248c0.0449219-0.0284195,0.0783386-0.0503502,0.1013336-0.0653915
	c0.0114899-0.0076256,0.0198364-0.0134735,0.026123-0.0175476c0.0031128-0.0020943,0.0062561-0.0036583,0.0072937-0.0048065
	c0.0010529-0.0006294,0.0020905-0.0011559,0.0020905-0.0014648c0.0010529-0.0005188,0.0020905-0.0008392-0.5765991-0.8709831
	c-0.5776672-0.8702507-0.5776672-0.8703537-0.5776672-0.8703537c0,0.000103,0,0.000206,0,0.0005264
	c-0.0010376,0.0006218-0.0031433,0.0015602-0.0052338,0.0030289c-0.0041809,0.0029221-0.0114746,0.0076256-0.020874,0.0138893
	c-0.0198517,0.0126419-0.0491028,0.0321732-0.0898438,0.0580826c-0.0804443,0.0520172-0.2016144,0.1299438-0.3635254,0.2315826
	c-0.3248749,0.2034874-0.8106079,0.5018196-1.4477997,0.877037c-1.2754517,0.7503319-3.1588593,1.8074608-5.5791779,3.0259819
	c-4.8395996,2.4372444-11.818512,5.517746-20.3591003,8.0811806c-17.0853729,5.1268578-40.3703918,8.1687126-65.2889404-0.0877457
	L64.416832,62.2831345z"/>
</svg>
