<svg width="160" height="17" viewBox="0 0 160 17" fill="none" xmlns="http://www.w3.org/2000/svg">
<path d="M7.98751 0H0V2.31569H7.98751C11.8925 2.31569 14.3775 4.63137 14.3775 8.43147C14.3775 12.2316 11.9517 14.5473 7.98751 14.5473H2.42584V6.8283H7.86918C9.11168 6.8283 9.88085 7.42207 9.88085 8.55022C9.88085 9.619 9.11168 10.2721 7.86918 10.2721H7.21834V8.31272H4.85167V12.5285H7.86918C10.3542 12.5285 12.2475 10.9253 12.2475 8.49085C12.2475 5.75952 10.295 4.45324 7.86918 4.45324H0V16.7442H7.98751C13.2533 16.7442 16.7442 13.3597 16.7442 8.31272C16.7442 3.38446 13.2533 0 7.98751 0Z" fill="black"/>
<path d="M28.7546 7.57109H23.2556V16.615H28.7546C32.3452 16.615 33.8141 14.7804 33.8141 12.106C33.8141 9.21192 32.0564 7.57109 28.7546 7.57109ZM28.8927 14.69H25.6787V9.49616H28.8927C30.6754 9.49616 31.391 10.7365 31.391 12.0931C31.391 13.4755 30.5875 14.69 28.8927 14.69Z" fill="black"/>
<path d="M43.2335 16.615H45.7319L41.2373 7.57109H38.3874L33.9054 16.615H36.4163L37.3203 14.7287H42.317L43.2335 16.615ZM38.174 12.9587L39.781 9.62536H39.8312L41.4508 12.9587H38.174Z" fill="black"/>
<path d="M54.8832 7.57109V14.031H54.833L49.6353 7.57109H46.6975V16.615H49.0202V10.1551H49.0704L54.268 16.615H57.2058V7.57109H54.8832Z" fill="black"/>
<path d="M63.2517 11.8088L68.4869 7.57109H65.1851L61.3057 10.8011H61.2555V7.57109H58.958V16.615H61.2555V12.9975H61.3057L65.7249 16.615H69.1523L63.2517 11.8088Z" fill="black"/>
<path d="M74.7399 16.7442C78.2175 16.7442 80.4146 14.9484 80.4146 12.0931C80.4146 9.23776 78.2175 7.44189 74.7399 7.44189C71.2622 7.44189 69.0652 9.23776 69.0652 12.0931C69.0652 14.9484 71.2622 16.7442 74.7399 16.7442ZM74.7399 14.8321C72.7186 14.8321 71.4631 13.708 71.4631 12.0931C71.4631 10.4781 72.7186 9.35404 74.7399 9.35404C76.7737 9.35404 78.0166 10.4781 78.0166 12.0931C78.0166 13.708 76.7737 14.8321 74.7399 14.8321Z" fill="black"/>
<path d="M91.3269 15.168V13.9923C91.3269 13.1783 90.9377 12.5194 89.8957 12.4031V12.3515C90.7871 12.1318 91.5278 11.4729 91.5278 10.2197C91.5278 8.82432 90.6866 7.57109 88.2636 7.57109H81.8482V16.615H84.1331V13.4238H87.8116C88.5649 13.4238 88.9039 13.7468 88.9039 14.367V15.336C88.9039 15.8786 89.0169 16.3179 89.1926 16.615H91.5655V16.3825C91.3897 16.0207 91.3269 15.6719 91.3269 15.168ZM87.8618 11.5633H84.1331V9.4574H87.8618C88.6026 9.4574 89.1173 9.7804 89.1173 10.5298C89.1173 11.2403 88.6277 11.5633 87.8618 11.5633Z" fill="black"/>
<path d="M102.096 7.57109H96.5974V16.615H102.096C105.687 16.615 107.156 14.7804 107.156 12.106C107.156 9.21192 105.398 7.57109 102.096 7.57109ZM102.234 14.69H99.0205V9.49616H102.234C104.017 9.49616 104.733 10.7365 104.733 12.0931C104.733 13.4755 103.929 14.69 102.234 14.69Z" fill="black"/>
<path d="M110.961 16.615V7.57109H108.588V16.615H110.961Z" fill="black"/>
<path d="M118.056 11.4083V13.1008H121.458C121.232 14.2765 119.788 14.8062 118.219 14.8062C116.411 14.8062 114.804 14.1215 114.804 12.1706C114.804 10.3876 116.273 9.44448 118.231 9.44448C119.763 9.44448 120.855 9.80624 121.245 10.5943H123.693C123.341 8.50133 120.918 7.44189 118.156 7.44189C114.829 7.44189 112.393 9.23776 112.393 12.1577C112.393 15.2584 115.03 16.7442 118.244 16.7442C121.42 16.7442 123.944 15.1551 123.944 12.2869V11.4083H118.056Z" fill="black"/>
<path d="M127.733 16.615V7.57109H125.36V16.615H127.733Z" fill="black"/>
<path d="M139.137 7.57109H128.956V9.53492H132.86V16.615H135.233V9.53492H139.137V7.57109Z" fill="black"/>
<path d="M147.484 16.615H149.982L145.488 7.57109H142.638L138.156 16.615H140.667L141.571 14.7287H146.567L147.484 16.615ZM142.424 12.9587L144.031 9.62536H144.082L145.701 12.9587H142.424Z" fill="black"/>
<path d="M153.333 14.6512V7.57109H150.948V16.615H160V14.6512H153.333Z" fill="black"/>
<path d="M24.7341 0.05669C25.27 0.05669 25.7123 0.231914 26.0608 0.582361C26.4131 0.929374 26.5892 1.35541 26.5892 1.86046C26.5892 2.36552 26.4131 2.79327 26.0608 3.14372C25.7123 3.49073 25.27 3.66424 24.7341 3.66424H23.2556V0.05669H24.7341ZM24.7341 3.40656C25.1913 3.40656 25.5661 3.25882 25.8584 2.96334C26.1508 2.66443 26.2969 2.29681 26.2969 1.86046C26.2969 1.42412 26.1508 1.05821 25.8584 0.762739C25.5661 0.463828 25.1913 0.314372 24.7341 0.314372H23.5536V3.40656H24.7341Z" fill="black"/>
<path d="M30.7299 3.40656H32.6975V3.66424H30.432V0.05669H32.6694V0.314372H30.7299V1.71616H32.5289V1.97385H30.7299V3.40656Z" fill="black"/>
<path d="M37.7244 3.72093C37.3609 3.72093 37.0517 3.64534 36.7968 3.49417C36.5457 3.33956 36.3752 3.1317 36.2853 2.87058L36.5439 2.73143C36.6151 2.95476 36.75 3.1317 36.9486 3.26226C37.151 3.39281 37.4096 3.45809 37.7244 3.45809C38.043 3.45809 38.2866 3.3911 38.4552 3.2571C38.6276 3.12311 38.7138 2.9496 38.7138 2.73658C38.7138 2.53731 38.6314 2.38442 38.4665 2.27791C38.3016 2.1714 38.0448 2.06661 37.6963 1.96354C37.5689 1.92574 37.4752 1.89826 37.4152 1.88108C37.359 1.86046 37.2765 1.83126 37.1679 1.79347C37.0592 1.75224 36.9786 1.71616 36.9261 1.68524C36.8737 1.65432 36.8099 1.61309 36.735 1.56155C36.6638 1.51002 36.6113 1.45848 36.5776 1.40694C36.5439 1.35197 36.5139 1.28841 36.4876 1.21626C36.4614 1.14067 36.4483 1.05821 36.4483 0.968885C36.4483 0.676845 36.5607 0.443213 36.7856 0.267989C37.0142 0.0893298 37.299 0 37.6401 0C37.9474 0 38.2097 0.0704331 38.4271 0.211299C38.6445 0.352166 38.8038 0.534261 38.9049 0.757586L38.652 0.886426C38.4646 0.470699 38.1273 0.262836 37.6401 0.262836C37.3702 0.262836 37.1547 0.328115 36.9936 0.458674C36.8324 0.589233 36.7519 0.755867 36.7519 0.958577C36.7519 1.15442 36.8268 1.30044 36.9767 1.39664C37.1266 1.49284 37.3721 1.59248 37.7132 1.69555C37.9305 1.76083 38.0992 1.81752 38.2191 1.86562C38.3428 1.91028 38.474 1.97385 38.6126 2.0563C38.755 2.13533 38.8581 2.23153 38.9218 2.34491C38.9855 2.45485 39.0174 2.58369 39.0174 2.73143C39.0174 3.03034 38.8993 3.27085 38.6632 3.45294C38.4271 3.6316 38.1142 3.72093 37.7244 3.72093Z" fill="black"/>
<path d="M42.8139 0.05669H43.1118V3.66424H42.8139V0.05669Z" fill="black"/>
<path d="M50.9234 1.98415V2.1233C50.9234 2.57339 50.7492 2.95304 50.4006 3.26226C50.0521 3.56804 49.593 3.72093 49.0233 3.72093C48.4237 3.72093 47.929 3.54227 47.5392 3.18495C47.1494 2.8242 46.9546 2.3827 46.9546 1.86046C46.9546 1.33823 47.1476 0.898452 47.5336 0.541133C47.9196 0.180378 48.4087 0 49.0008 0C49.3606 0 49.6904 0.0790225 49.9902 0.237068C50.2938 0.395113 50.5281 0.606412 50.693 0.870965L50.4287 1.01527C50.2976 0.788507 50.1027 0.606412 49.8441 0.468982C49.5892 0.331551 49.3082 0.262836 49.0008 0.262836C48.4911 0.262836 48.0714 0.417445 47.7416 0.726663C47.4155 1.03245 47.2525 1.41038 47.2525 1.86046C47.2525 2.31055 47.4174 2.6902 47.7472 2.99942C48.077 3.3052 48.5024 3.45809 49.0233 3.45809C49.4843 3.45809 49.8572 3.343 50.142 3.1128C50.4269 2.8826 50.5861 2.59228 50.6199 2.24183H48.9502V1.98415H50.9234Z" fill="black"/>
<path d="M57.348 0.05669H57.646V3.66424H57.3817L55.06 0.561747V3.66424H54.7621V0.05669H55.0206L57.348 3.15918V0.05669Z" fill="black"/>
<path d="M68.4084 3.56632L68.1441 3.70547L67.6888 3.26741C67.4002 3.56976 67.0086 3.72093 66.5139 3.72093C66.1241 3.72093 65.813 3.62988 65.5807 3.44779C65.3483 3.26226 65.2321 3.01488 65.2321 2.70566C65.2321 2.4789 65.2996 2.27276 65.4345 2.08722C65.5694 1.89826 65.7624 1.75396 66.0135 1.65432C65.8037 1.43099 65.6987 1.19565 65.6987 0.94827C65.6987 0.663102 65.8074 0.434624 66.0248 0.262836C66.2421 0.0876119 66.5045 0 66.8118 0C67.0629 0 67.2878 0.0601258 67.4864 0.180377C67.685 0.300629 67.8256 0.467264 67.908 0.680281L67.6607 0.814276C67.6007 0.645923 67.4939 0.511928 67.3402 0.412291C67.1903 0.312654 67.0161 0.262836 66.8174 0.262836C66.5813 0.262836 66.3864 0.326397 66.2328 0.453521C66.0791 0.580644 66.0023 0.742124 66.0023 0.937963C66.0023 1.07196 66.0379 1.19393 66.1091 1.30387C66.1803 1.41038 66.2871 1.53063 66.4295 1.66463L67.6607 2.84481C67.7806 2.6421 67.8593 2.40332 67.8968 2.12845L68.161 2.2676C68.1085 2.56651 68.0111 2.82591 67.8687 3.0458L68.4084 3.56632ZM66.5026 3.45809C66.9111 3.45809 67.239 3.32925 67.4864 3.07157L66.2215 1.85531C65.9892 1.93433 65.8168 2.05115 65.7043 2.20576C65.5919 2.35693 65.5357 2.52185 65.5357 2.70051C65.5357 2.93758 65.6219 3.12311 65.7943 3.2571C65.9704 3.3911 66.2065 3.45809 66.5026 3.45809Z" fill="black"/>
<path d="M77.2748 0.05669C77.8108 0.05669 78.253 0.231914 78.6016 0.582361C78.9538 0.929374 79.13 1.35541 79.13 1.86046C79.13 2.36552 78.9538 2.79327 78.6016 3.14372C78.253 3.49073 77.8108 3.66424 77.2748 3.66424H75.7964V0.05669H77.2748ZM77.2748 3.40656C77.7321 3.40656 78.1068 3.25882 78.3992 2.96334C78.6915 2.66443 78.8377 2.29681 78.8377 1.86046C78.8377 1.42412 78.6915 1.05821 78.3992 0.762739C78.1068 0.463828 77.7321 0.314372 77.2748 0.314372H76.0943V3.40656H77.2748Z" fill="black"/>
<path d="M83.2707 3.40656H85.2383V3.66424H82.9727V0.05669H85.2101V0.314372H83.2707V1.71616H85.0696V1.97385H83.2707V3.40656Z" fill="black"/>
<path d="M90.1133 3.66424L88.6461 0.05669H88.9722L90.2708 3.30864L91.575 0.05669H91.8954L90.4282 3.66424H90.1133Z" fill="black"/>
<path d="M95.8557 3.40656H97.8233V3.66424H95.5577V0.05669H97.7952V0.314372H95.8557V1.71616H97.6546V1.97385H95.8557V3.40656Z" fill="black"/>
<path d="M101.945 3.40656H103.8V3.66424H101.647V0.05669H101.945V3.40656Z" fill="black"/>
<path d="M110.475 3.1798C110.082 3.54055 109.602 3.72093 109.036 3.72093C108.47 3.72093 107.99 3.54055 107.597 3.1798C107.203 2.81561 107.007 2.37583 107.007 1.86046C107.007 1.3451 107.203 0.907041 107.597 0.546286C107.99 0.182095 108.47 0 109.036 0C109.602 0 110.082 0.182095 110.475 0.546286C110.869 0.907041 111.065 1.3451 111.065 1.86046C111.065 2.37583 110.869 2.81561 110.475 3.1798ZM107.805 2.99427C108.142 3.30348 108.553 3.45809 109.036 3.45809C109.519 3.45809 109.928 3.30348 110.261 2.99427C110.599 2.68161 110.767 2.30368 110.767 1.86046C110.767 1.41725 110.599 1.04104 110.261 0.731817C109.928 0.419163 109.519 0.262836 109.036 0.262836C108.553 0.262836 108.142 0.419163 107.805 0.731817C107.471 1.04104 107.304 1.41725 107.304 1.86046C107.304 2.30368 107.471 2.68161 107.805 2.99427Z" fill="black"/>
<path d="M116.251 0.05669C116.603 0.05669 116.895 0.163199 117.128 0.376216C117.36 0.589233 117.476 0.855505 117.476 1.17503C117.476 1.49456 117.36 1.76083 117.128 1.97385C116.895 2.18343 116.603 2.28822 116.251 2.28822H115.211V3.66424H114.913V0.05669H116.251ZM116.251 2.03054C116.521 2.03054 116.742 1.94979 116.914 1.78831C117.09 1.62683 117.178 1.42241 117.178 1.17503C117.178 0.92422 117.09 0.718074 116.914 0.556593C116.742 0.395113 116.521 0.314372 116.251 0.314372H115.211V2.03054H116.251Z" fill="black"/>
<path d="M124.863 0.05669V3.66424H124.565V0.458674L123.109 2.67474H123.058L121.602 0.458674V3.66424H121.304V0.05669H121.675L123.081 2.1903L124.486 0.05669H124.863Z" fill="black"/>
<path d="M129.229 3.40656H131.196V3.66424H128.931V0.05669H131.168V0.314372H129.229V1.71616H131.028V1.97385H129.229V3.40656Z" fill="black"/>
<path d="M137.606 0.05669H137.904V3.66424H137.64L135.318 0.561747V3.66424H135.02V0.05669H135.279L137.606 3.15918V0.05669Z" fill="black"/>
<path d="M144.389 0.05669V0.314372H143.152V3.66424H142.848V0.314372H141.612V0.05669H144.389Z" fill="black"/>
<path d="M152.913 1.79347C153.115 1.86562 153.278 1.98072 153.402 2.13876C153.526 2.29681 153.587 2.47718 153.587 2.67989C153.587 2.95132 153.482 3.18323 153.273 3.37564C153.063 3.56804 152.81 3.66424 152.514 3.66424H150.816V0.0566901H152.384C152.669 0.0566901 152.913 0.149455 153.115 0.334986C153.318 0.520517 153.419 0.743843 153.419 1.00496C153.419 1.17675 153.372 1.33308 153.278 1.47394C153.188 1.61137 153.066 1.71788 152.913 1.79347ZM152.384 0.314373H151.114V1.69555H152.384C152.587 1.69555 152.759 1.62855 152.902 1.49456C153.048 1.35713 153.121 1.19393 153.121 1.00496C153.121 0.815993 153.048 0.654512 152.902 0.520517C152.759 0.383087 152.587 0.314373 152.384 0.314373ZM152.514 3.40656C152.727 3.40656 152.909 3.33613 153.059 3.19526C153.213 3.05096 153.289 2.87917 153.289 2.67989C153.289 2.48062 153.213 2.31055 153.059 2.16968C152.909 2.02538 152.727 1.95323 152.514 1.95323H151.114V3.40656H152.514Z" fill="black"/>
<path d="M160 0.0566901L158.566 2.17999V3.66424H158.268V2.17999L156.835 0.0566901H157.172L158.42 1.91716L159.663 0.0566901H160Z" fill="black"/>
</svg>
