<svg width="260" height="58" viewBox="0 0 260 58" fill="none" xmlns="http://www.w3.org/2000/svg">
<path d="M81.0641 9.05738C80.1099 5.49036 77.3088 2.68721 73.7442 1.73236C67.2899 6.50436e-07 41.3976 0 41.3976 0C41.3976 0 15.5054 6.50436e-07 9.05105 1.73236C5.48652 2.68721 2.68532 5.49036 1.73115 9.05738C-1.94994e-06 15.5162 0 29 0 29C0 29 -1.94994e-06 42.4838 1.73115 48.9426C2.68532 52.5096 5.48652 55.3128 9.05105 56.2676C15.5054 58 41.3976 58 41.3976 58C41.3976 58 67.2899 58 73.7442 56.2676C77.3088 55.3128 80.1099 52.5096 81.0641 48.9426C82.7953 42.4838 82.7953 29 82.7953 29C82.7953 29 82.7953 15.5162 81.0641 9.05738Z" fill="#FF0000"/>
<path d="M33.1172 41.4265L54.6271 28.9999L33.1172 16.5732V41.4265Z" fill="white"/>
<path d="M100.108 37.7185L90.812 4.12842H98.9225L102.18 19.3514C102.951 22.8434 103.659 26.5809 104.014 28.9476H104.252C104.607 26.5809 105.377 22.7888 106.086 19.4128L109.459 4.12842H117.57L108.158 37.7185V53.8895H100.108V37.7185Z" fill="#282828"/>
<path d="M116.028 38.3121V33.04C116.028 21.309 119.463 16.8076 127.512 16.8076C135.561 16.8076 138.642 21.4864 138.642 33.04V38.3121C138.642 49.7429 135.738 54.4217 127.335 54.4217C118.693 54.4217 116.028 49.627 116.028 38.3121ZM130.415 41.2721V29.9572C130.415 24.9784 129.707 22.4344 127.335 22.4344C125.024 22.4344 124.316 24.9784 124.316 29.9572V41.2721C124.316 46.4828 125.024 48.8563 127.335 48.8563C129.707 48.8563 130.415 46.4828 130.415 41.2721Z" fill="#282828"/>
<path d="M164.509 17.5156V53.827H158.116L157.407 49.387H157.23C155.397 52.9404 152.732 54.4204 149.419 54.4204C144.567 54.4204 142.372 51.3376 142.372 44.6468V17.5156H150.544V44.1694C150.544 47.3682 151.198 48.6708 152.854 48.6708C154.272 48.6708 155.696 47.7228 156.344 46.3587V17.5088H164.509V17.5156Z" fill="#282828"/>
<path d="M186.351 10.7027H178.24V53.8276H170.246V10.7027H162.135V4.12793H186.344V10.7027H186.351Z" fill="#282828"/>
<path d="M206.186 17.5156V53.827H199.793L199.084 49.387H198.907C197.073 52.9404 194.408 54.4204 191.096 54.4204C186.243 54.4204 184.049 51.3376 184.049 44.6468V17.5156H192.221V44.1694C192.221 47.3682 192.875 48.6708 194.531 48.6708C195.949 48.6708 197.373 47.7228 198.021 46.3587V17.5088H206.186V17.5156Z" fill="#282828"/>
<path d="M233.768 32.8616V38.6043C233.768 49.4418 231.225 54.3593 225.718 54.3593C222.699 54.3593 219.98 52.8793 218.671 50.3899H218.494L217.662 53.8273H210.915V2.29297H218.787V12.7212C218.787 15.4494 218.848 18.1707 218.61 21.4308H218.848C220.211 18.7027 222.992 16.8134 226.073 16.8134C231.818 16.8066 233.768 20.892 233.768 32.8616ZM225.541 33.455C225.541 25.0456 224.832 22.6175 222.406 22.6175C220.866 22.6175 219.387 23.9816 218.794 25.9936V46.6114C219.503 47.9141 220.75 48.5075 222.052 48.5075C224.655 48.5075 225.541 46.018 225.541 38.1406V33.455Z" fill="#282828"/>
<path d="M246.314 38.4267V40.2614C246.314 46.6588 246.668 48.8482 249.394 48.8482C251.998 48.8482 252.591 46.8362 252.652 42.6894L259.7 43.1055C260.231 50.9215 256.149 54.4204 249.224 54.4204C240.82 54.4204 238.333 48.9095 238.333 38.9041V32.5681C238.333 22.0238 241.114 16.8677 249.463 16.8677C257.866 16.8677 259.999 21.2531 259.999 32.2134V38.4335H246.314V38.4267ZM246.314 30.9653V33.5706H252.291V30.9653C252.291 24.2745 251.814 22.3785 249.272 22.3785C246.73 22.3785 246.314 24.3291 246.314 30.9653Z" fill="#282828"/>
</svg>
