<svg width="38" height="38" viewBox="0 0 38 38" fill="none" xmlns="http://www.w3.org/2000/svg">
<circle cx="19" cy="19" r="19" fill="white"/>
<path d="M14.93 18.535V19.1762C14.93 20.3637 14.55 21.3256 13.79 22.0619C13.03 22.7981 12.0483 23.1663 10.845 23.1663C9.5625 23.1663 8.49771 22.7506 7.65063 21.9194C6.81146 21.0802 6.39188 20.059 6.39188 18.8556C6.39188 17.6444 6.8075 16.6192 7.63875 15.78C8.47792 14.9408 9.515 14.5212 10.75 14.5212C11.5258 14.5212 12.2344 14.6994 12.8756 15.0556C13.5169 15.404 14.0156 15.871 14.3719 16.4569L12.9706 17.2644C12.7727 16.924 12.4719 16.6469 12.0681 16.4331C11.6723 16.2194 11.229 16.1125 10.7381 16.1125C9.94646 16.1125 9.29333 16.3737 8.77875 16.8962C8.27208 17.4108 8.01875 18.064 8.01875 18.8556C8.01875 19.6394 8.27604 20.2885 8.79063 20.8031C9.31313 21.3098 10.0019 21.5631 10.8569 21.5631C11.4902 21.5631 12.0127 21.4246 12.4244 21.1475C12.844 20.8625 13.129 20.4746 13.2794 19.9837H10.7619V18.535H14.93ZM19.7094 14.6875C20.8494 14.6875 21.7994 15.0873 22.5594 15.8869C23.3273 16.6865 23.7112 17.6721 23.7112 18.8437C23.7112 20.0154 23.3273 21.001 22.5594 21.8006C21.7994 22.6002 20.8494 23 19.7094 23H16.4081V14.6875H19.7094ZM19.7094 21.4325C20.4298 21.4325 21.0156 21.195 21.4669 20.72C21.9181 20.2371 22.1437 19.6117 22.1437 18.8437C22.1437 18.0758 21.9181 17.4544 21.4669 16.9794C21.0156 16.4965 20.4298 16.255 19.7094 16.255H18.0469V21.4325H19.7094ZM29.9956 14.6875H31.6343V23H30.3874L26.8249 17.9175V23H25.1862V14.6875H26.4331L29.9956 19.7581V14.6875Z" fill="black"/>
</svg>
