<svg width="38" height="38" viewBox="0 0 38 38" fill="none" xmlns="http://www.w3.org/2000/svg">
<circle cx="19" cy="19" r="19" fill="white"/>
<path d="M22.2649 19.9988C22.248 19.2709 21.9419 18.5789 21.4131 18.0731C20.8843 17.5673 20.1754 17.2885 19.4403 17.2971H12.1572V22.7005H16.8742V27.2445C16.8542 27.6002 16.9069 27.9563 17.029 28.2914C17.1511 28.6265 17.3402 28.9338 17.5849 29.195C17.8296 29.4561 18.1249 29.6657 18.4532 29.8113C18.7815 29.9569 19.1361 30.0354 19.4957 30.0422C19.863 30.0387 20.226 29.9634 20.564 29.8209C20.9019 29.6784 21.2082 29.4713 21.4654 29.2115C21.7225 28.9517 21.9255 28.6443 22.0627 28.3068C22.1999 27.9693 22.2686 27.6083 22.2649 27.2445V19.9988Z" fill="white" stroke="black" stroke-width="2"/>
<path d="M12.1245 22.7595C13.6463 22.7595 14.8799 21.5376 14.8799 20.0304C14.8799 18.5231 13.6463 17.3013 12.1245 17.3013C10.6028 17.3013 9.36914 18.5231 9.36914 20.0304C9.36914 21.5376 10.6028 22.7595 12.1245 22.7595Z" fill="white" stroke="black" stroke-width="2"/>
<path d="M28.9894 12.7574C28.9821 12.0347 28.6871 11.3441 28.1686 10.8356C27.65 10.3272 26.9498 10.042 26.2202 10.042H18.771C18.0878 10.1099 17.4545 10.4268 16.9939 10.931C16.5334 11.4353 16.2783 12.0911 16.2783 12.7711C16.2783 13.4512 16.5334 14.1069 16.9939 14.6112C17.4545 15.1155 18.0878 15.4324 18.771 15.5003H23.5433V20.0397C23.5281 20.4036 23.5874 20.7667 23.7176 21.1072C23.8477 21.4478 24.046 21.7588 24.3006 22.0215C24.5552 22.2843 24.8607 22.4933 25.1989 22.6361C25.5371 22.7789 25.901 22.8525 26.2686 22.8525C26.6363 22.8525 27.0001 22.7789 27.3383 22.6361C27.6765 22.4933 27.9821 22.2843 28.2366 22.0215C28.4912 21.7588 28.6895 21.4478 28.8197 21.1072C28.9498 20.7667 29.0091 20.4036 28.994 20.0397L28.9894 12.7574Z" fill="white" stroke="black" stroke-width="2"/>
</svg>
