<svg width="38" height="38" viewBox="0 0 38 38" fill="none" xmlns="http://www.w3.org/2000/svg">
<circle cx="19" cy="19" r="19" fill="white"/>
<path d="M28.3795 17.9688H30V20.0312H28.3795C28.0848 22.2574 27.1682 24.1399 25.6295 25.6786C24.1235 27.1845 22.2574 28.0848 20.0312 28.3795V30H17.9687V28.3795C15.7426 28.0848 13.8601 27.1845 12.3214 25.6786C10.8155 24.1399 9.91518 22.2574 9.62054 20.0312H8V17.9688H9.62054C9.91518 15.7426 10.8155 13.8765 12.3214 12.3705C13.8601 10.8318 15.7426 9.91518 17.9687 9.62054V8H20.0312V9.62054C22.2574 9.91518 24.1235 10.8318 25.6295 12.3705C27.1682 13.8765 28.0848 15.7426 28.3795 17.9688ZM11.7321 17.9688H13.2545V20.0312H11.7321C11.994 21.6682 12.6815 23.0595 13.7946 24.2054C14.9405 25.3185 16.3318 26.006 17.9687 26.2679V24.7455H20.0312V26.2679C21.6682 26.006 23.0432 25.3185 24.1562 24.2054C25.3021 23.0595 26.006 21.6682 26.2679 20.0312H24.7455V17.9688H26.2679C26.006 16.3318 25.3021 14.9568 24.1562 13.8438C23.0432 12.6979 21.6682 11.994 20.0312 11.7321V13.2545H17.9687V11.7321C16.3318 11.994 14.9405 12.6979 13.7946 13.8438C12.6815 14.9568 11.994 16.3318 11.7321 17.9688ZM23.1741 23.1741H14.8259V22.1429C14.8914 21.4554 15.3988 20.9315 16.3482 20.5714C17.3304 20.2113 18.2143 20.0312 19 20.0312C19.7857 20.0312 20.6533 20.2113 21.6027 20.5714C22.5848 20.9315 23.1086 21.4554 23.1741 22.1429V23.1741ZM19 14.8259C19.5893 14.8259 20.0804 15.0223 20.4732 15.4152C20.8661 15.808 21.0625 16.2991 21.0625 16.8884C21.0625 17.4777 20.8661 17.9851 20.4732 18.4107C20.0804 18.8036 19.5893 19 19 19C18.4107 19 17.9196 18.8036 17.5268 18.4107C17.1339 17.9851 16.9375 17.4777 16.9375 16.8884C16.9375 16.2991 17.1339 15.808 17.5268 15.4152C17.9196 15.0223 18.4107 14.8259 19 14.8259Z" fill="black"/>
</svg>
