<svg width="38" height="38" viewBox="0 0 38 38" fill="none" xmlns="http://www.w3.org/2000/svg">
<circle cx="19" cy="19" r="19" fill="white"/>
<path fill-rule="evenodd" clip-rule="evenodd" d="M16.9731 6.90576L21.3874 11.278L14.2302 18.367L21.0451 25.2487C21.1449 25.3258 21.241 25.4098 21.3327 25.5007C22.5407 26.6971 22.5407 28.6369 21.3327 29.8333C20.1248 31.0298 18.1663 31.0298 16.9583 29.8333C16.8704 29.7462 16.7889 29.6552 16.7138 29.5608L7.61412 20.5479C7.32408 20.2609 7.09399 19.9201 6.93701 19.545C6.78002 19.1699 6.69922 18.7678 6.69922 18.3618C6.69922 17.9557 6.78002 17.5536 6.93701 17.1785C7.09399 16.8034 7.32408 16.4626 7.61412 16.1757L16.9731 6.90576Z" fill="white"/>
<path d="M21.3874 11.278L22.0911 11.9884L22.8084 11.278L22.0911 10.5675L21.3874 11.278ZM16.9731 6.90576L17.6769 6.19528L16.9731 5.49827L16.2694 6.19528L16.9731 6.90576ZM14.2302 18.367L13.5265 17.6565L12.816 18.3602L13.5196 19.0707L14.2302 18.367ZM21.0451 25.2487L20.3346 25.9524L20.3812 25.9995L20.4337 26.0401L21.0451 25.2487ZM21.3327 25.5007L20.629 26.2111L20.629 26.2112L21.3327 25.5007ZM21.3327 29.8333L22.0364 30.5438H22.0364L21.3327 29.8333ZM16.9583 29.8333L17.662 29.1228H17.662L16.9583 29.8333ZM16.7138 29.5608L17.4962 28.9381L17.4594 28.8919L17.4175 28.8503L16.7138 29.5608ZM7.61412 20.5479L8.31784 19.8374L8.31746 19.837L7.61412 20.5479ZM6.93701 19.545L7.85948 19.1589L6.93701 19.545ZM6.93701 17.1785L7.85948 17.5646L6.93701 17.1785ZM7.61412 16.1757L8.31746 16.8865L8.31784 16.8861L7.61412 16.1757ZM22.0911 10.5675L17.6769 6.19528L16.2694 7.61624L20.6837 11.9884L22.0911 10.5675ZM14.9339 19.0775L22.0911 11.9884L20.6837 10.5675L13.5265 17.6565L14.9339 19.0775ZM21.7557 24.5451L14.9407 17.6634L13.5196 19.0707L20.3346 25.9524L21.7557 24.5451ZM22.0364 24.7902C21.9155 24.6704 21.7885 24.5594 21.6565 24.4574L20.4337 26.0401C20.5012 26.0922 20.5665 26.1492 20.629 26.2111L22.0364 24.7902ZM22.0364 30.5438C23.6395 28.9561 23.6395 26.3779 22.0364 24.7902L20.629 26.2112C21.4419 27.0163 21.4419 28.3177 20.629 29.1228L22.0364 30.5438ZM16.2546 30.5438C17.8523 32.1263 20.4387 32.1263 22.0364 30.5438L20.629 29.1228C19.8108 29.9333 18.4803 29.9333 17.662 29.1228L16.2546 30.5438ZM15.9313 30.1836C16.0309 30.3087 16.1387 30.429 16.2546 30.5438L17.662 29.1228C17.6021 29.0635 17.5468 29.0017 17.4962 28.9381L15.9313 30.1836ZM6.91041 21.2583L16.01 30.2713L17.4175 28.8503L8.31784 19.8374L6.91041 21.2583ZM6.01454 19.9311C6.22261 20.4282 6.52733 20.8793 6.91079 21.2587L8.31746 19.837C8.12084 19.6425 7.96537 19.412 7.85948 19.1589L6.01454 19.9311ZM5.69922 18.3618C5.69922 18.9006 5.80645 19.4339 6.01454 19.9311L7.85948 19.1589C7.75359 18.9059 7.69922 18.6351 7.69922 18.3618H5.69922ZM6.01454 16.7925C5.80645 17.2897 5.69922 17.823 5.69922 18.3618H7.69922C7.69922 18.0884 7.75359 17.8176 7.85948 17.5646L6.01454 16.7925ZM6.91079 15.4648C6.52733 15.8442 6.22261 16.2953 6.01454 16.7925L7.85948 17.5646C7.96537 17.3116 8.12084 17.0811 8.31746 16.8865L6.91079 15.4648ZM16.2694 6.19528L6.91041 15.4652L8.31784 16.8861L17.6769 7.61624L16.2694 6.19528Z" fill="black"/>
<path fill-rule="evenodd" clip-rule="evenodd" d="M30.7477 16.1759L21.3887 6.906C20.8033 6.32621 20.0094 6.00049 19.1816 6.00049C18.3537 6.00049 17.5598 6.32621 16.9744 6.906C16.3891 7.48579 16.0602 8.27215 16.0602 9.0921C16.0602 9.91205 16.3891 10.6984 16.9744 11.2782L24.139 18.3706L17.3201 25.1939C17.1937 25.2856 17.0729 25.388 16.9587 25.5011C15.7508 26.6976 15.7508 28.6374 16.9587 29.8339C18.1666 31.0303 20.1251 31.0303 21.333 29.8339C21.4018 29.7657 21.4666 29.6952 21.5275 29.6226L30.6231 20.6697C30.6674 20.6305 30.7107 20.5899 30.753 20.5481C31.3384 19.9683 31.6672 19.1819 31.6672 18.362C31.6672 17.5421 31.3384 16.7557 30.753 16.1759H30.7477Z" fill="white"/>
<path d="M21.3887 6.906L20.685 7.61648L21.3887 6.906ZM30.7477 16.1759L30.044 16.8864L30.3363 17.1759H30.7477V16.1759ZM16.9744 6.906L16.2707 6.19552L16.2707 6.19552L16.9744 6.906ZM16.9744 11.2782L16.2707 11.9887L16.2709 11.9889L16.9744 11.2782ZM24.139 18.3706L24.8464 19.0774L25.5566 18.3667L24.8426 17.6599L24.139 18.3706ZM17.3201 25.1939L17.9076 26.0031L17.9715 25.9567L18.0274 25.9008L17.3201 25.1939ZM16.9587 25.5011L17.6624 26.2116L17.6624 26.2116L16.9587 25.5011ZM16.9587 29.8339L17.6624 29.1234H17.6624L16.9587 29.8339ZM21.333 29.8339L22.0367 30.5443H22.0367L21.333 29.8339ZM21.5275 29.6226L20.826 28.9099L20.792 28.9434L20.7613 28.98L21.5275 29.6226ZM30.6231 20.6697L29.9611 19.9201L29.9408 19.938L29.9216 19.957L30.6231 20.6697ZM30.753 20.5481L31.4567 21.2586L31.4567 21.2586L30.753 20.5481ZM30.753 16.1759L31.4567 15.4654L31.1644 15.1759H30.753V16.1759ZM20.685 7.61648L30.044 16.8864L31.4514 15.4654L22.0924 6.19552L20.685 7.61648ZM19.1816 7.00049C19.7472 7.00049 20.2878 7.22316 20.685 7.61648L22.0924 6.19552C21.3188 5.42927 20.2715 5.00049 19.1816 5.00049V7.00049ZM17.6782 7.61648C18.0753 7.22316 18.6159 7.00049 19.1816 7.00049V5.00049C18.0916 5.00049 17.0443 5.42927 16.2707 6.19552L17.6782 7.61648ZM17.0602 9.0921C17.0602 8.54047 17.2814 8.00949 17.6782 7.61648L16.2707 6.19552C15.4968 6.96209 15.0602 8.00383 15.0602 9.0921H17.0602ZM17.6782 10.5677C17.2814 10.1747 17.0602 9.64372 17.0602 9.0921H15.0602C15.0602 10.1804 15.4968 11.2221 16.2707 11.9887L17.6782 10.5677ZM24.8426 17.6599L17.678 10.5675L16.2709 11.9889L23.4355 19.0812L24.8426 17.6599ZM18.0274 25.9008L24.8464 19.0774L23.4317 17.6637L16.6127 24.487L18.0274 25.9008ZM16.7325 24.3847C16.5652 24.5062 16.4055 24.6415 16.255 24.7906L17.6624 26.2116C17.7402 26.1345 17.8222 26.0651 17.9076 26.0031L16.7325 24.3847ZM16.255 24.7906C14.652 26.3784 14.652 28.9566 16.255 30.5443L17.6624 29.1234C16.8495 28.3182 16.8495 27.0168 17.6624 26.2116L16.255 24.7906ZM16.255 30.5443C17.8526 32.1268 20.4391 32.1268 22.0367 30.5443L20.6293 29.1234C19.8111 29.9338 18.4806 29.9338 17.6624 29.1234L16.255 30.5443ZM22.0367 30.5443C22.1274 30.4546 22.213 30.3614 22.2937 30.2652L20.7613 28.98C20.7202 29.0291 20.6762 29.0769 20.6293 29.1234L22.0367 30.5443ZM29.9216 19.957L20.826 28.9099L22.229 30.3353L31.3245 21.3823L29.9216 19.957ZM30.0493 19.8376C30.0206 19.866 29.9912 19.8935 29.9611 19.9201L31.285 21.4192C31.3436 21.3674 31.4009 21.3139 31.4567 21.2586L30.0493 19.8376ZM30.6672 18.362C30.6672 18.9136 30.4461 19.4446 30.0493 19.8376L31.4567 21.2586C32.2307 20.492 32.6672 19.4503 32.6672 18.362H30.6672ZM30.0493 16.8864C30.4461 17.2794 30.6672 17.8104 30.6672 18.362H32.6672C32.6672 17.2737 32.2307 16.232 31.4567 15.4654L30.0493 16.8864ZM30.7477 17.1759H30.753V15.1759H30.7477V17.1759Z" fill="black"/>
<path d="M21.333 29.8339C22.5409 28.6374 22.5409 26.6976 21.333 25.5011C20.125 24.3046 18.1666 24.3046 16.9586 25.5011C15.7507 26.6976 15.7507 28.6374 16.9586 29.8339C18.1666 31.0303 20.125 31.0303 21.333 29.8339Z" fill="white" stroke="black" stroke-width="2"/>
</svg>
