<svg width="38" height="38" viewBox="0 0 38 38" fill="none" xmlns="http://www.w3.org/2000/svg">
<circle cx="19" cy="19" r="19" fill="white"/>
<path fill-rule="evenodd" clip-rule="evenodd" d="M28.5775 14.1611C28.7027 14.6309 28.7966 15.2729 28.8592 16.0872C28.9218 16.8702 28.9531 17.5593 28.9531 18.1544L29 19C29 21.1924 28.8592 22.8054 28.5775 23.8389C28.3271 24.7472 27.748 25.3266 26.8404 25.5772C26.3709 25.7025 25.4789 25.7964 24.1643 25.8591C22.8811 25.9217 21.6917 25.953 20.5962 25.953L19 26C14.8059 26 12.1925 25.8591 11.1596 25.5772C10.252 25.3266 9.67293 24.7472 9.42254 23.8389C9.29734 23.3691 9.20344 22.7427 9.14085 21.9597C9.07825 21.1454 9.04695 20.4407 9.04695 19.8456L9 19C9 16.8076 9.14085 15.1946 9.42254 14.1611C9.67293 13.2528 10.252 12.6734 11.1596 12.4228C11.6291 12.2975 12.5055 12.2036 13.7887 12.1409C15.1033 12.0783 16.3083 12.047 17.4038 12.047L19 12C23.1941 12 25.8075 12.1409 26.8404 12.4228C27.748 12.6734 28.3271 13.2528 28.5775 14.1611ZM26.9531 18.2098L27 19.0549C26.9975 21.1802 26.8545 22.5524 26.6487 23.31C26.6016 23.4792 26.5509 23.5307 26.5407 23.541C26.5306 23.551 26.4806 23.6005 26.3168 23.6469C26.0755 23.7092 25.389 23.7984 24.0691 23.8613L24.0668 23.8614C22.8107 23.9228 21.6542 23.953 20.5962 23.953H20.5668L18.9707 24C16.9047 23.9997 15.2523 23.9646 14.0021 23.8972C12.6965 23.8268 11.9792 23.7271 11.6891 23.6485C11.5206 23.6016 11.4695 23.5512 11.4593 23.541C11.4491 23.5308 11.3993 23.4802 11.3527 23.3148C11.2724 23.0098 11.1922 22.5209 11.1347 21.8034C11.0749 21.0241 11.0469 20.3741 11.0469 19.8456V19.7902L11 18.9451C11.0025 16.8199 11.1455 15.4478 11.3513 14.6902C11.3983 14.5208 11.449 14.4693 11.4593 14.459C11.4694 14.449 11.5194 14.3995 11.6833 14.3531C11.9268 14.2901 12.6009 14.2013 13.885 14.1386C15.1735 14.0772 16.3459 14.047 17.4038 14.047H17.4332L19.0293 14C21.0953 14.0003 22.7477 14.0354 23.9979 14.1028C25.3035 14.1732 26.0208 14.2729 26.3109 14.3515C26.4794 14.3984 26.5305 14.4488 26.5407 14.459C26.5508 14.4692 26.6007 14.5198 26.6473 14.6851C26.7261 14.9848 26.807 15.4858 26.865 16.2405L26.8655 16.2466C26.9251 16.9923 26.9531 17.6262 26.9531 18.1544V18.2098ZM17 22L22 19L17 16V22Z" fill="black"/>
</svg>
