<svg width="38" height="38" viewBox="0 0 38 38" fill="none" xmlns="http://www.w3.org/2000/svg">
<circle cx="19" cy="19" r="19" fill="white"/>
<path d="M27.7342 26.6298C27.7342 25.0469 26.451 23.7637 24.8681 23.7637H17.4345C15.432 23.7637 14.3105 25.1521 14.3105 26.6298C14.3105 27.9934 15.2618 29.4959 17.4345 29.4959H24.8681C26.451 29.4959 27.7342 28.2127 27.7342 26.6298Z" fill="white" stroke="black" stroke-width="2"/>
<path d="M25.7095 29.491C27.2814 29.491 28.5557 28.2089 28.5557 26.6274C28.5557 25.0458 27.2814 23.7637 25.7095 23.7637C24.1376 23.7637 22.8633 25.0458 22.8633 26.6274C22.8633 28.2089 24.1376 29.491 25.7095 29.491Z" fill="white" stroke="black" stroke-width="2"/>
<path d="M27.7342 11.3705C27.7342 9.7876 26.451 8.50439 24.8681 8.50439H17.4345C15.432 8.50439 14.3105 9.89283 14.3105 11.3705C14.3105 12.7342 15.2618 14.2366 17.4345 14.2366H24.8681C26.451 14.2366 27.7342 12.9534 27.7342 11.3705Z" fill="white" stroke="black" stroke-width="2"/>
<path d="M25.7095 14.2318C27.2814 14.2318 28.5557 12.9496 28.5557 11.3681C28.5557 9.78651 27.2814 8.50439 25.7095 8.50439C24.1376 8.50439 22.8633 9.78651 22.8633 11.3681C22.8633 12.9496 24.1376 14.2318 25.7095 14.2318Z" fill="white" stroke="black" stroke-width="2"/>
<path d="M19.1952 18.9999C19.1952 17.417 17.912 16.1338 16.3291 16.1338H8.89545C6.89291 16.1338 5.77148 17.5222 5.77148 18.9999C5.77148 20.3635 6.72269 21.866 8.89545 21.866H16.3291C17.912 21.866 19.1952 20.5828 19.1952 18.9999Z" fill="white" stroke="black" stroke-width="2"/>
<path d="M17.1714 21.8611C18.7433 21.8611 20.0176 20.579 20.0176 18.9975C20.0176 17.4159 18.7433 16.1338 17.1714 16.1338C15.5995 16.1338 14.3252 17.4159 14.3252 18.9975C14.3252 20.579 15.5995 21.8611 17.1714 21.8611Z" fill="white" stroke="black" stroke-width="2"/>
</svg>
